Lora-BoldItalic.ufo
<glyph name="exclam" format="2">
  <advance width="255.0"/>
  <unicode hex="0021"/>
  <outline>
    <contour>
      <point x="149.0" y="716.0" type="curve" smooth="yes"/>
      <point x="99.0" y="716.0"/>
      <point x="72.0" y="668.0"/>
      <point x="74.0" y="625.0" type="curve" smooth="yes"/>
      <point x="90.0" y="213.0" type="line"/>
      <point x="157.0" y="213.0" type="line"/>
      <point x="215.0" y="625.0" type="line" smooth="yes"/>
      <point x="221.0" y="668.0"/>
      <point x="203.0" y="716.0"/>
    </contour>
    <contour>
      <point x="119.0" y="140.0" type="curve" smooth="yes"/>
      <point x="81.0" y="140.0"/>
      <point x="45.0" y="105.0"/>
      <point x="43.0" y="62.0" type="curve" smooth="yes"/>
      <point x="41.0" y="19.0"/>
      <point x="71.0" y="-16.0"/>
      <point x="110.0" y="-16.0" type="curve" smooth="yes"/>
      <point x="148.0" y="-16.0"/>
      <point x="184.0" y="19.0"/>
      <point x="187.0" y="62.0" type="curve" smooth="yes"/>
      <point x="188.0" y="105.0"/>
      <point x="161.0" y="140.0"/>
    </contour>
  </outline>
</glyph>
<glyph name="dollar" format="2">
  <advance width="570.0"/>
  <unicode hex="0024"/>
  <outline>
    <contour>
      <point x="230.0" y="-154.0" type="line"/>
      <point x="321.0" y="-154.0" type="line"/>
      <point x="329.0" y="-13.0" type="line"/>
      <point x="453.0" y="4.0"/>
      <point x="525.0" y="81.0"/>
      <point x="531.0" y="186.0" type="curve" smooth="yes"/>
      <point x="538.0" y="316.0"/>
      <point x="426.0" y="371.0"/>
      <point x="329.0" y="416.0" type="curve" smooth="yes"/>
      <point x="217.0" y="468.0"/>
      <point x="181.0" y="496.0"/>
      <point x="185.0" y="558.0" type="curve" smooth="yes"/>
      <point x="187.0" y="608.0"/>
      <point x="227.0" y="647.0"/>
      <point x="283.0" y="648.0" type="curve" smooth="yes"/>
      <point x="376.0" y="649.0"/>
      <point x="421.0" y="587.0"/>
      <point x="433.0" y="476.0" type="curve"/>
      <point x="499.0" y="476.0" type="line"/>
      <point x="511.0" y="709.0" type="line"/>
      <point x="434.0" y="709.0" type="line"/>
      <point x="435.0" y="668.0" type="line"/>
      <point x="411.0" y="686.0"/>
      <point x="384.0" y="698.0"/>
      <point x="355.0" y="706.0" type="curve"/>
      <point x="363.0" y="837.0" type="line"/>
      <point x="270.0" y="837.0" type="line"/>
      <point x="263.0" y="716.0" type="line"/>
      <point x="103.0" y="708.0"/>
      <point x="57.0" y="604.0"/>
      <point x="53.0" y="525.0" type="curve" smooth="yes"/>
      <point x="46.0" y="394.0"/>
      <point x="144.0" y="329.0"/>
      <point x="256.0" y="281.0" type="curve" smooth="yes"/>
      <point x="331.0" y="250.0"/>
      <point x="399.0" y="224.0"/>
      <point x="396.0" y="156.0" type="curve" smooth="yes"/>
      <point x="393.0" y="99.0"/>
      <point x="351.0" y="57.0"/>
      <point x="280.0" y="57.0" type="curve" smooth="yes"/>
      <point x="187.0" y="57.0"/>
      <point x="125.0" y="113.0"/>
      <point x="113.0" y="225.0" type="curve"/>
      <point x="48.0" y="225.0" type="line"/>
      <point x="36.0" y="-9.0" type="line"/>
      <point x="113.0" y="-9.0" type="line"/>
      <point x="112.0" y="33.0" type="line"/>
      <point x="151.0" y="9.0"/>
      <point x="195.0" y="-6.0"/>
      <point x="236.0" y="-13.0" type="curve"/>
    </contour>
  </outline>
</glyph>
<glyph name="percent" format="2">
  <advance width="885.0"/>
  <unicode hex="0025"/>
  <outline>
    <contour>
      <point x="167.0" y="-17.0" type="line"/>
      <point x="780.0" y="650.0" type="line"/>
      <point x="710.0" y="716.0" type="line"/>
      <point x="105.0" y="44.0" type="line"/>
    </contour>
    <contour>
      <point x="223.0" y="325.0" type="curve" smooth="yes"/>
      <point x="328.0" y="325.0"/>
      <point x="413.0" y="420.0"/>
      <point x="418.0" y="526.0" type="curve" smooth="yes"/>
      <point x="423.0" y="618.0"/>
      <point x="363.0" y="718.0"/>
      <point x="241.0" y="716.0" type="curve" smooth="yes"/>
      <point x="121.0" y="713.0"/>
      <point x="49.0" y="611.0"/>
      <point x="44.0" y="517.0" type="curve" smooth="yes"/>
      <point x="40.0" y="418.0"/>
      <point x="100.0" y="325.0"/>
    </contour>
    <contour>
      <point x="227.0" y="393.0" type="curve" smooth="yes"/>
      <point x="177.0" y="393.0"/>
      <point x="164.0" y="468.0"/>
      <point x="164.0" y="518.0" type="curve" smooth="yes"/>
      <point x="164.0" y="555.0"/>
      <point x="175.0" y="648.0"/>
      <point x="237.0" y="648.0" type="curve" smooth="yes"/>
      <point x="284.0" y="648.0"/>
      <point x="298.0" y="584.0"/>
      <point x="298.0" y="525.0" type="curve" smooth="yes"/>
      <point x="298.0" y="479.0"/>
      <point x="282.0" y="393.0"/>
    </contour>
    <contour>
      <point x="651.0" y="-16.0" type="curve" smooth="yes"/>
      <point x="761.0" y="-16.0"/>
      <point x="842.0" y="80.0"/>
      <point x="848.0" y="185.0" type="curve" smooth="yes"/>
      <point x="853.0" y="277.0"/>
      <point x="792.0" y="378.0"/>
      <point x="669.0" y="375.0" type="curve" smooth="yes"/>
      <point x="550.0" y="373.0"/>
      <point x="479.0" y="270.0"/>
      <point x="474.0" y="176.0" type="curve" smooth="yes"/>
      <point x="468.0" y="77.0"/>
      <point x="528.0" y="-16.0"/>
    </contour>
    <contour>
      <point x="656.0" y="52.0" type="curve" smooth="yes"/>
      <point x="606.0" y="52.0"/>
      <point x="593.0" y="127.0"/>
      <point x="593.0" y="177.0" type="curve" smooth="yes"/>
      <point x="593.0" y="214.0"/>
      <point x="604.0" y="307.0"/>
      <point x="667.0" y="307.0" type="curve" smooth="yes"/>
      <point x="713.0" y="307.0"/>
      <point x="728.0" y="244.0"/>
      <point x="728.0" y="185.0" type="curve" smooth="yes"/>
      <point x="728.0" y="138.0"/>
      <point x="711.0" y="52.0"/>
    </contour>
  </outline>
</glyph>
<glyph name="quotesingle" format="2">
  <advance width="188.0"/>
  <unicode hex="0027"/>
  <outline>
    <contour>
      <point x="171.0" y="716.0" type="line"/>
      <point x="69.0" y="716.0" type="line"/>
      <point x="66.0" y="491.0" type="line"/>
      <point x="150.0" y="491.0" type="line"/>
    </contour>
  </outline>
</glyph>
<glyph name="asterisk" format="2">
  <advance width="512.0"/>
  <unicode hex="002A"/>
  <outline>
    <contour>
      <point x="282.0" y="716.0" type="curve" smooth="yes"/>
      <point x="238.0" y="716.0"/>
      <point x="229.0" y="679.0"/>
      <point x="228.0" y="645.0" type="curve" smooth="yes"/>
      <point x="227.0" y="617.0"/>
      <point x="230.0" y="577.0"/>
      <point x="247.0" y="518.0" type="curve"/>
      <point x="199.0" y="554.0"/>
      <point x="164.0" y="572.0"/>
      <point x="138.0" y="581.0" type="curve" smooth="yes"/>
      <point x="105.0" y="592.0"/>
      <point x="68.0" y="599.0"/>
      <point x="52.0" y="559.0" type="curve" smooth="yes"/>
      <point x="37.0" y="518.0"/>
      <point x="68.0" y="497.0"/>
      <point x="101.0" y="486.0" type="curve" smooth="yes"/>
      <point x="127.0" y="478.0"/>
      <point x="167.0" y="471.0"/>
      <point x="229.0" y="471.0" type="curve"/>
      <point x="177.0" y="436.0"/>
      <point x="146.0" y="406.0"/>
      <point x="127.0" y="383.0" type="curve" smooth="yes"/>
      <point x="106.0" y="355.0"/>
      <point x="90.0" y="322.0"/>
      <point x="123.0" y="296.0" type="curve" smooth="yes"/>
      <point x="157.0" y="271.0"/>
      <point x="187.0" y="298.0"/>
      <point x="208.0" y="326.0" type="curve" smooth="yes"/>
      <point x="227.0" y="348.0"/>
      <point x="245.0" y="384.0"/>
      <point x="268.0" y="443.0" type="curve"/>
      <point x="283.0" y="384.0"/>
      <point x="300.0" y="347.0"/>
      <point x="315.0" y="323.0" type="curve" smooth="yes"/>
      <point x="333.0" y="296.0"/>
      <point x="360.0" y="271.0"/>
      <point x="396.0" y="296.0" type="curve" smooth="yes"/>
      <point x="432.0" y="322.0"/>
      <point x="417.0" y="356.0"/>
      <point x="398.0" y="385.0" type="curve" smooth="yes"/>
      <point x="383.0" y="407.0"/>
      <point x="356.0" y="435.0"/>
      <point x="308.0" y="471.0" type="curve"/>
      <point x="370.0" y="471.0"/>
      <point x="410.0" y="478.0"/>
      <point x="438.0" y="486.0" type="curve" smooth="yes"/>
      <point x="471.0" y="496.0"/>
      <point x="505.0" y="515.0"/>
      <point x="494.0" y="556.0" type="curve" smooth="yes"/>
      <point x="482.0" y="596.0"/>
      <point x="444.0" y="592.0"/>
      <point x="410.0" y="581.0" type="curve" smooth="yes"/>
      <point x="384.0" y="572.0"/>
      <point x="347.0" y="554.0"/>
      <point x="295.0" y="518.0" type="curve"/>
      <point x="318.0" y="577.0"/>
      <point x="327.0" y="617.0"/>
      <point x="328.0" y="645.0" type="curve" smooth="yes"/>
      <point x="330.0" y="679.0"/>
      <point x="325.0" y="716.0"/>
    </contour>
  </outline>
</glyph>
<glyph name="comma" format="2">
  <advance width="249.0"/>
  <unicode hex="002C"/>
  <outline>
    <contour>
      <point x="103.0" y="137.0" type="curve" smooth="yes"/>
      <point x="60.0" y="137.0"/>
      <point x="29.0" y="102.0"/>
      <point x="27.0" y="62.0" type="curve" smooth="yes"/>
      <point x="25.0" y="16.0"/>
      <point x="57.0" y="-4.0"/>
      <point x="93.0" y="-4.0" type="curve" smooth="yes"/>
      <point x="100.0" y="-4.0"/>
      <point x="104.0" y="-4.0"/>
      <point x="114.0" y="-1.0" type="curve"/>
      <point x="113.0" y="-59.0"/>
      <point x="71.0" y="-132.0"/>
      <point x="49.0" y="-159.0" type="curve"/>
      <point x="86.0" y="-187.0" type="line"/>
      <point x="152.0" y="-110.0"/>
      <point x="186.0" y="-32.0"/>
      <point x="189.0" y="32.0" type="curve" smooth="yes"/>
      <point x="192.0" y="92.0"/>
      <point x="165.0" y="138.0"/>
    </contour>
  </outline>
</glyph>
<glyph name="hyphen" format="2">
  <advance width="473.0"/>
  <unicode hex="002D"/>
  <outline>
    <contour>
      <point x="424.0" y="366.0" type="line"/>
      <point x="56.0" y="366.0" type="line"/>
      <point x="50.0" y="261.0" type="line"/>
      <point x="418.0" y="265.0" type="line"/>
    </contour>
  </outline>
</glyph>
<glyph name="slash" format="2">
  <advance width="665.0"/>
  <unicode hex="002F"/>
  <outline>
    <contour>
      <point x="592.0" y="755.0" type="line"/>
      <point x="-20.0" y="-220.0" type="line"/>
      <point x="51.0" y="-271.0" type="line"/>
      <point x="677.0" y="697.0" type="line"/>
    </contour>
  </outline>
</glyph>
<glyph name="zero" format="2">
  <advance width="625.0"/>
  <unicode hex="0030"/>
  <outline>
    <contour>
      <point x="339.0" y="716.0" type="curve" smooth="yes"/>
      <point x="153.0" y="716.0"/>
      <point x="50.0" y="515.0"/>
      <point x="41.0" y="347.0" type="curve" smooth="yes"/>
      <point x="32.0" y="180.0"/>
      <point x="93.0" y="-16.0"/>
      <point x="296.0" y="-16.0" type="curve" smooth="yes"/>
      <point x="482.0" y="-16.0"/>
      <point x="582.0" y="186.0"/>
      <point x="590.0" y="352.0" type="curve" smooth="yes"/>
      <point x="599.0" y="519.0"/>
      <point x="533.0" y="716.0"/>
    </contour>
    <contour>
      <point x="333.0" y="648.0" type="curve" smooth="yes"/>
      <point x="437.0" y="648.0"/>
      <point x="449.0" y="493.0"/>
      <point x="440.0" y="331.0" type="curve" smooth="yes"/>
      <point x="433.0" y="184.0"/>
      <point x="401.0" y="52.0"/>
      <point x="306.0" y="52.0" type="curve" smooth="yes"/>
      <point x="192.0" y="52.0"/>
      <point x="184.0" y="229.0"/>
      <point x="191.0" y="368.0" type="curve" smooth="yes"/>
      <point x="199.0" y="517.0"/>
      <point x="237.0" y="648.0"/>
    </contour>
  </outline>
</glyph>
<glyph name="one" format="2">
  <advance width="397.0"/>
  <unicode hex="0031"/>
  <outline>
    <contour>
      <point x="313.0" y="716.0" type="line"/>
      <point x="252.0" y="716.0" type="line"/>
      <point x="17.0" y="549.0" type="line"/>
      <point x="49.0" y="489.0" type="line"/>
      <point x="162.0" y="554.0" type="line"/>
      <point x="141.0" y="153.0" type="line" smooth="yes"/>
      <point x="137.0" y="72.0"/>
      <point x="110.0" y="68.0"/>
      <point x="65.0" y="66.0" type="curve"/>
      <point x="62.0" y="0.0" type="line"/>
      <point x="346.0" y="0.0" type="line"/>
      <point x="350.0" y="77.0" type="line"/>
      <point x="336.0" y="77.0"/>
      <point x="296.0" y="76.0"/>
      <point x="275.0" y="74.0" type="curve"/>
      <point x="278.0" y="91.0"/>
      <point x="282.0" y="128.0"/>
      <point x="284.0" y="164.0" type="curve" smooth="yes"/>
    </contour>
  </outline>
</glyph>
<glyph name="two" format="2">
  <advance width="522.0"/>
  <unicode hex="0032"/>
  <outline>
    <contour>
      <point x="275.0" y="716.0" type="curve" smooth="yes"/>
      <point x="134.0" y="716.0"/>
      <point x="52.0" y="620.0"/>
      <point x="49.0" y="560.0" type="curve" smooth="yes"/>
      <point x="47.0" y="521.0"/>
      <point x="67.0" y="488.0"/>
      <point x="108.0" y="487.0" type="curve" smooth="yes"/>
      <point x="158.0" y="486.0"/>
      <point x="179.0" y="523.0"/>
      <point x="181.0" y="549.0" type="curve" smooth="yes"/>
      <point x="182.0" y="563.0"/>
      <point x="177.0" y="588.0"/>
      <point x="164.0" y="603.0" type="curve"/>
      <point x="179.0" y="625.0"/>
      <point x="210.0" y="645.0"/>
      <point x="246.0" y="645.0" type="curve" smooth="yes"/>
      <point x="322.0" y="646.0"/>
      <point x="341.0" y="578.0"/>
      <point x="338.0" y="515.0" type="curve" smooth="yes"/>
      <point x="334.0" y="443.0"/>
      <point x="292.0" y="373.0"/>
      <point x="189.0" y="283.0" type="curve" smooth="yes"/>
      <point x="109.0" y="212.0"/>
      <point x="26.0" y="139.0"/>
      <point x="19.0" y="0.0" type="curve"/>
      <point x="457.0" y="0.0" type="line"/>
      <point x="473.0" y="163.0" type="line"/>
      <point x="410.0" y="163.0" type="line"/>
      <point x="407.0" y="107.0"/>
      <point x="375.0" y="96.0"/>
      <point x="331.0" y="98.0" type="curve" smooth="yes"/>
      <point x="135.0" y="103.0" type="line"/>
      <point x="143.0" y="129.0"/>
      <point x="178.0" y="182.0"/>
      <point x="254.0" y="242.0" type="curve" smooth="yes"/>
      <point x="443.0" y="390.0"/>
      <point x="486.0" y="459.0"/>
      <point x="490.0" y="527.0" type="curve" smooth="yes"/>
      <point x="497.0" y="667.0"/>
      <point x="382.0" y="716.0"/>
    </contour>
  </outline>
</glyph>
<glyph name="nine" format="2">
  <advance width="561.0"/>
  <unicode hex="0039"/>
  <outline>
    <contour>
      <point x="301.0" y="716.0" type="curve" smooth="yes"/>
      <point x="158.0" y="716.0"/>
      <point x="58.0" y="621.0"/>
      <point x="50.0" y="487.0" type="curve" smooth="yes"/>
      <point x="43.0" y="351.0"/>
      <point x="104.0" y="250.0"/>
      <point x="251.0" y="254.0" type="curve" smooth="yes"/>
      <point x="301.0" y="256.0"/>
      <point x="357.0" y="286.0"/>
      <point x="380.0" y="311.0" type="curve"/>
      <point x="379.0" y="184.0"/>
      <point x="335.0" y="61.0"/>
      <point x="238.0" y="55.0" type="curve" smooth="yes"/>
      <point x="205.0" y="53.0"/>
      <point x="181.0" y="67.0"/>
      <point x="171.0" y="83.0" type="curve"/>
      <point x="182.0" y="94.0"/>
      <point x="187.0" y="115.0"/>
      <point x="188.0" y="126.0" type="curve" smooth="yes"/>
      <point x="189.0" y="153.0"/>
      <point x="177.0" y="189.0"/>
      <point x="127.0" y="189.0" type="curve" smooth="yes"/>
      <point x="86.0" y="189.0"/>
      <point x="60.0" y="151.0"/>
      <point x="58.0" y="115.0" type="curve" smooth="yes"/>
      <point x="54.0" y="48.0"/>
      <point x="102.0" y="-16.0"/>
      <point x="233.0" y="-16.0" type="curve" smooth="yes"/>
      <point x="467.0" y="-16.0"/>
      <point x="518.0" y="229.0"/>
      <point x="525.0" y="378.0" type="curve" smooth="yes"/>
      <point x="535.0" y="573.0"/>
      <point x="479.0" y="716.0"/>
    </contour>
    <contour>
      <point x="296.0" y="646.0" type="curve" smooth="yes"/>
      <point x="375.0" y="646.0"/>
      <point x="392.0" y="528.0"/>
      <point x="384.0" y="400.0" type="curve"/>
      <point x="365.0" y="364.0"/>
      <point x="325.0" y="334.0"/>
      <point x="283.0" y="334.0" type="curve" smooth="yes"/>
      <point x="200.0" y="334.0"/>
      <point x="197.0" y="450.0"/>
      <point x="201.0" y="510.0" type="curve" smooth="yes"/>
      <point x="204.0" y="579.0"/>
      <point x="236.0" y="646.0"/>
    </contour>
  </outline>
</glyph>
<glyph name="A" format="2">
  <advance width="667.0"/>
  <unicode hex="0041"/>
  <anchor x="300.0" y="0.0" name="bottom"/>
  <anchor x="600.0" y="0.0" name="ogonek"/>
  <anchor x="346.0" y="700.0" name="top"/>
  <outline>
    <contour>
      <point x="384.0" y="718.0" type="line"/>
      <point x="317.0" y="718.0" type="line"/>
      <point x="94.0" y="183.0" type="line" smooth="yes"/>
      <point x="68.0" y="123.0"/>
      <point x="47.0" y="69.0"/>
      <point x="-8.0" y="69.0" type="curve"/>
      <point x="-12.0" y="0.0" type="line"/>
      <point x="202.0" y="0.0" type="line"/>
      <point x="207.0" y="80.0" type="line"/>
      <point x="133.0" y="77.0" type="line"/>
      <point x="146.0" y="100.0"/>
      <point x="162.0" y="140.0"/>
      <point x="169.0" y="158.0" type="curve"/>
      <point x="188.0" y="205.0" type="line"/>
      <point x="407.0" y="209.0" type="line"/>
      <point x="424.0" y="154.0" type="line" smooth="yes"/>
      <point x="440.0" y="104.0"/>
      <point x="438.0" y="66.0"/>
      <point x="382.0" y="66.0" type="curve"/>
      <point x="378.0" y="0.0" type="line"/>
      <point x="646.0" y="0.0" type="line"/>
      <point x="649.0" y="77.0" type="line"/>
      <point x="592.0" y="74.0" type="line"/>
      <point x="590.0" y="104.0"/>
      <point x="575.0" y="153.0"/>
      <point x="569.0" y="173.0" type="curve" smooth="yes"/>
    </contour>
    <contour>
      <point x="315.0" y="542.0" type="curve"/>
      <point x="319.0" y="505.0"/>
      <point x="332.0" y="453.0"/>
      <point x="346.0" y="405.0" type="curve" smooth="yes"/>
      <point x="385.0" y="280.0" type="line"/>
      <point x="217.0" y="280.0" type="line"/>
      <point x="268.0" y="410.0" type="line"/>
      <point x="293.0" y="472.0"/>
      <point x="309.0" y="519.0"/>
    </contour>
  </outline>
</glyph>
<glyph name="B" format="2">
  <advance width="659.0"/>
  <unicode hex="0042"/>
  <outline>
    <contour>
      <point x="347.0" y="702.0" type="curve" smooth="yes"/>
      <point x="255.0" y="701.0"/>
      <point x="164.0" y="701.0"/>
      <point x="72.0" y="700.0" type="curve"/>
      <point x="68.0" y="623.0" type="line"/>
      <point x="82.0" y="624.0"/>
      <point x="122.0" y="625.0"/>
      <point x="143.0" y="626.0" type="curve"/>
      <point x="140.0" y="609.0"/>
      <point x="136.0" y="572.0"/>
      <point x="134.0" y="536.0" type="curve" smooth="yes"/>
      <point x="114.0" y="153.0" type="line" smooth="yes"/>
      <point x="110.0" y="72.0"/>
      <point x="83.0" y="68.0"/>
      <point x="39.0" y="66.0" type="curve"/>
      <point x="35.0" y="0.0" type="line"/>
      <point x="373.0" y="0.0" type="line" smooth="yes"/>
      <point x="513.0" y="0.0"/>
      <point x="617.0" y="69.0"/>
      <point x="624.0" y="199.0" type="curve" smooth="yes"/>
      <point x="628.0" y="282.0"/>
      <point x="573.0" y="357.0"/>
      <point x="442.0" y="378.0" type="curve"/>
      <point x="442.0" y="379.0" type="line"/>
      <point x="537.0" y="404.0"/>
      <point x="583.0" y="462.0"/>
      <point x="590.0" y="520.0" type="curve" smooth="yes"/>
      <point x="604.0" y="642.0"/>
      <point x="506.0" y="703.0"/>
    </contour>
    <contour>
      <point x="346.0" y="323.0" type="curve" smooth="yes"/>
      <point x="411.0" y="323.0"/>
      <point x="474.0" y="294.0"/>
      <point x="469.0" y="202.0" type="curve" smooth="yes"/>
      <point x="465.0" y="128.0"/>
      <point x="427.0" y="76.0"/>
      <point x="346.0" y="72.0" type="curve" smooth="yes"/>
      <point x="314.0" y="71.0"/>
      <point x="283.0" y="71.0"/>
      <point x="248.0" y="71.0" type="curve"/>
      <point x="251.0" y="88.0"/>
      <point x="255.0" y="123.0"/>
      <point x="257.0" y="159.0" type="curve" smooth="yes"/>
      <point x="265.0" y="322.0" type="line"/>
      <point x="291.0" y="323.0"/>
      <point x="313.0" y="323.0"/>
    </contour>
    <contour>
      <point x="340.0" y="632.0" type="curve" smooth="yes"/>
      <point x="391.0" y="633.0"/>
      <point x="445.0" y="607.0"/>
      <point x="440.0" y="528.0" type="curve" smooth="yes"/>
      <point x="437.0" y="455.0"/>
      <point x="406.0" y="396.0"/>
      <point x="321.0" y="394.0" type="curve"/>
      <point x="304.0" y="394.0"/>
      <point x="286.0" y="393.0"/>
      <point x="269.0" y="393.0" type="curve"/>
      <point x="277.0" y="548.0" type="line" smooth="yes"/>
      <point x="281.0" y="625.0"/>
      <point x="307.0" y="631.0"/>
    </contour>
  </outline>
</glyph>
<glyph name="F" format="2">
  <advance width="566.0"/>
  <unicode hex="0046"/>
  <outline>
    <contour>
      <point x="570.0" y="700.0" type="line"/>
      <point x="72.0" y="700.0" type="line"/>
      <point x="68.0" y="623.0" type="line"/>
      <point x="82.0" y="624.0"/>
      <point x="122.0" y="625.0"/>
      <point x="143.0" y="626.0" type="curve"/>
      <point x="140.0" y="609.0"/>
      <point x="136.0" y="572.0"/>
      <point x="134.0" y="536.0" type="curve" smooth="yes"/>
      <point x="114.0" y="153.0" type="line" smooth="yes"/>
      <point x="110.0" y="72.0"/>
      <point x="83.0" y="68.0"/>
      <point x="39.0" y="66.0" type="curve"/>
      <point x="35.0" y="0.0" type="line"/>
      <point x="333.0" y="0.0" type="line"/>
      <point x="337.0" y="77.0" type="line"/>
      <point x="323.0" y="77.0"/>
      <point x="270.0" y="76.0"/>
      <point x="249.0" y="74.0" type="curve"/>
      <point x="252.0" y="91.0"/>
      <point x="255.0" y="128.0"/>
      <point x="257.0" y="164.0" type="curve" smooth="yes"/>
      <point x="265.0" y="304.0" type="line"/>
      <point x="269.0" y="304.0"/>
      <point x="273.0" y="304.0"/>
      <point x="277.0" y="304.0" type="curve" smooth="yes"/>
      <point x="331.0" y="306.0"/>
      <point x="375.0" y="300.0"/>
      <point x="370.0" y="216.0" type="curve"/>
      <point x="436.0" y="216.0" type="line"/>
      <point x="449.0" y="459.0" type="line"/>
      <point x="372.0" y="459.0" type="line"/>
      <point x="372.0" y="435.0"/>
      <point x="371.0" y="400.0"/>
      <point x="372.0" y="373.0" type="curve"/>
      <point x="268.0" y="373.0" type="line"/>
      <point x="277.0" y="547.0" type="line" smooth="yes"/>
      <point x="281.0" y="625.0"/>
      <point x="307.0" y="633.0"/>
      <point x="349.0" y="634.0" type="curve" smooth="yes"/>
      <point x="385.0" y="635.0" type="line" smooth="yes"/>
      <point x="439.0" y="637.0"/>
      <point x="505.0" y="615.0"/>
      <point x="500.0" y="506.0" type="curve"/>
      <point x="565.0" y="506.0" type="line"/>
    </contour>
  </outline>
</glyph>
<glyph name="I" format="2">
  <advance width="384"/>
  <unicode hex="0049"/>
  <anchor x="179" y="0" name="bottom"/>
  <anchor x="318" y="0" name="ogonek"/>
  <anchor x="226" y="700" name="top"/>
  <anchor x="33" y="700" name="topleft"/>
  <outline>
    <contour>
      <point x="356" y="700" type="line"/>
      <point x="72" y="700" type="line"/>
      <point x="68" y="623" type="line"/>
      <point x="82" y="624"/>
      <point x="122" y="625"/>
      <point x="143" y="626" type="curve"/>
      <point x="140" y="609"/>
      <point x="136" y="572"/>
      <point x="134" y="536" type="curve" smooth="yes"/>
      <point x="114" y="153" type="line" smooth="yes"/>
      <point x="110" y="72"/>
      <point x="83" y="68"/>
      <point x="39" y="66" type="curve"/>
      <point x="35" y="0" type="line"/>
      <point x="320" y="0" type="line"/>
      <point x="324" y="77" type="line"/>
      <point x="310" y="77"/>
      <point x="270" y="76"/>
      <point x="249" y="74" type="curve"/>
      <point x="252" y="91"/>
      <point x="255" y="128"/>
      <point x="257" y="164" type="curve" smooth="yes"/>
      <point x="277" y="547" type="line" smooth="yes"/>
      <point x="281" y="628"/>
      <point x="308" y="632"/>
      <point x="353" y="634" type="curve"/>
    </contour>
  </outline>
</glyph>
<glyph name="K" format="2">
  <advance width="711.0"/>
  <unicode hex="004B"/>
  <anchor x="355.0" y="0.0" name="bottom"/>
  <anchor x="393.0" y="700.0" name="top"/>
  <outline>
    <contour>
      <point x="35.0" y="0.0" type="line"/>
      <point x="320.0" y="0.0" type="line"/>
      <point x="324.0" y="77.0" type="line"/>
      <point x="310.0" y="77.0"/>
      <point x="270.0" y="76.0"/>
      <point x="249.0" y="74.0" type="curve"/>
      <point x="252.0" y="91.0"/>
      <point x="255.0" y="128.0"/>
      <point x="257.0" y="164.0" type="curve" smooth="yes"/>
      <point x="265.0" y="315.0" type="line"/>
      <point x="277.0" y="315.0"/>
      <point x="299.0" y="315.0"/>
      <point x="301.0" y="315.0" type="curve"/>
      <point x="318.0" y="302.0"/>
      <point x="339.0" y="271.0"/>
      <point x="356.0" y="246.0" type="curve"/>
      <point x="447.0" y="102.0" type="line" smooth="yes"/>
      <point x="472.0" y="63.0"/>
      <point x="523.0" y="1.0"/>
      <point x="540.0" y="0.0" type="curve"/>
      <point x="692.0" y="0.0" type="line"/>
      <point x="696.0" y="66.0" type="line"/>
      <point x="651.0" y="68.0"/>
      <point x="608.0" y="117.0"/>
      <point x="570.0" y="174.0" type="curve" smooth="yes"/>
      <point x="476.0" y="319.0" type="line" smooth="yes"/>
      <point x="462.0" y="341.0"/>
      <point x="442.0" y="361.0"/>
      <point x="417.0" y="378.0" type="curve"/>
      <point x="521.0" y="532.0" type="line" smooth="yes"/>
      <point x="581.0" y="621.0"/>
      <point x="636.0" y="632.0"/>
      <point x="681.0" y="634.0" type="curve"/>
      <point x="684.0" y="700.0" type="line"/>
      <point x="439.0" y="700.0" type="line"/>
      <point x="436.0" y="623.0" type="line"/>
      <point x="450.0" y="624.0"/>
      <point x="478.0" y="625.0"/>
      <point x="499.0" y="627.0" type="curve"/>
      <point x="481.0" y="612.0"/>
      <point x="451.0" y="566.0"/>
      <point x="425.0" y="526.0" type="curve" smooth="yes"/>
      <point x="342.0" y="395.0" type="line"/>
      <point x="269.0" y="395.0" type="line"/>
      <point x="277.0" y="547.0" type="line" smooth="yes"/>
      <point x="281.0" y="628.0"/>
      <point x="308.0" y="632.0"/>
      <point x="353.0" y="634.0" type="curve"/>
      <point x="356.0" y="700.0" type="line"/>
      <point x="72.0" y="700.0" type="line"/>
      <point x="68.0" y="623.0" type="line"/>
      <point x="82.0" y="624.0"/>
      <point x="122.0" y="625.0"/>
      <point x="143.0" y="626.0" type="curve"/>
      <point x="140.0" y="609.0"/>
      <point x="136.0" y="572.0"/>
      <point x="134.0" y="536.0" type="curve" smooth="yes"/>
      <point x="114.0" y="153.0" type="line" smooth="yes"/>
      <point x="110.0" y="72.0"/>
      <point x="83.0" y="68.0"/>
      <point x="39.0" y="66.0" type="curve"/>
    </contour>
  </outline>
</glyph>
<glyph name="M" format="2">
  <advance width="970.0"/>
  <unicode hex="004D"/>
  <outline>
    <contour>
      <point x="397.0" y="-10.0" type="line"/>
      <point x="487.0" y="-10.0" type="line"/>
      <point x="669.0" y="428.0" type="line"/>
      <point x="716.0" y="542.0" type="line"/>
      <point x="717.0" y="542.0" type="line"/>
      <point x="717.0" y="481.0"/>
      <point x="717.0" y="389.0"/>
      <point x="716.0" y="365.0" type="curve" smooth="yes"/>
      <point x="713.0" y="153.0" type="line" smooth="yes"/>
      <point x="712.0" y="72.0"/>
      <point x="683.0" y="68.0"/>
      <point x="638.0" y="66.0" type="curve"/>
      <point x="634.0" y="0.0" type="line"/>
      <point x="914.0" y="0.0" type="line"/>
      <point x="918.0" y="77.0" type="line"/>
      <point x="904.0" y="77.0"/>
      <point x="864.0" y="76.0"/>
      <point x="842.0" y="74.0" type="curve"/>
      <point x="846.0" y="91.0"/>
      <point x="851.0" y="128.0"/>
      <point x="851.0" y="164.0" type="curve" smooth="yes"/>
      <point x="856.0" y="547.0" type="line"/>
      <point x="857.0" y="628.0"/>
      <point x="887.0" y="632.0"/>
      <point x="932.0" y="634.0" type="curve"/>
      <point x="936.0" y="700.0" type="line"/>
      <point x="703.0" y="700.0" type="line"/>
      <point x="645.0" y="562.0"/>
      <point x="588.0" y="425.0"/>
      <point x="530.0" y="287.0" type="curve" smooth="yes"/>
      <point x="512.0" y="244.0"/>
      <point x="494.0" y="196.0"/>
      <point x="475.0" y="150.0" type="curve"/>
      <point x="474.0" y="150.0" type="line"/>
      <point x="460.0" y="198.0"/>
      <point x="448.0" y="250.0"/>
      <point x="426.0" y="312.0" type="curve" smooth="yes"/>
      <point x="289.0" y="700.0" type="line"/>
      <point x="75.0" y="700.0" type="line"/>
      <point x="70.0" y="623.0" type="line"/>
      <point x="84.0" y="624.0"/>
      <point x="125.0" y="625.0"/>
      <point x="146.0" y="626.0" type="curve"/>
      <point x="143.0" y="609.0"/>
      <point x="140.0" y="572.0"/>
      <point x="137.0" y="536.0" type="curve" smooth="yes"/>
      <point x="111.0" y="153.0" type="line"/>
      <point x="105.0" y="72.0"/>
      <point x="81.0" y="68.0"/>
      <point x="36.0" y="66.0" type="curve"/>
      <point x="32.0" y="0.0" type="line"/>
      <point x="260.0" y="0.0" type="line"/>
      <point x="264.0" y="77.0" type="line"/>
      <point x="250.0" y="77.0"/>
      <point x="210.0" y="76.0"/>
      <point x="188.0" y="74.0" type="curve"/>
      <point x="191.0" y="91.0"/>
      <point x="195.0" y="128.0"/>
      <point x="197.0" y="164.0" type="curve" smooth="yes"/>
      <point x="208.0" y="345.0" type="line" smooth="yes"/>
      <point x="212.0" y="405.0"/>
      <point x="213.0" y="467.0"/>
      <point x="215.0" y="535.0" type="curve"/>
      <point x="216.0" y="535.0" type="line"/>
      <point x="231.0" y="455.0"/>
      <point x="261.0" y="356.0"/>
      <point x="275.0" y="319.0" type="curve" smooth="yes"/>
    </contour>
  </outline>
</glyph>
<glyph name="O" format="2">
  <advance width="762"/>
  <unicode hex="004F"/>
  <anchor x="368" y="0" name="bottom"/>
  <anchor x="386" y="350" name="center"/>
  <anchor x="672" y="5" name="ogonek"/>
  <anchor x="399" y="700" name="top"/>
  <anchor x="33" y="700" name="topleft"/>
  <anchor x="604" y="700" name="topright"/>
  <outline>
    <contour>
      <point x="406" y="716" type="curve" smooth="yes"/>
      <point x="169" y="716"/>
      <point x="48" y="518"/>
      <point x="40" y="350" type="curve" smooth="yes"/>
      <point x="30" y="176"/>
      <point x="111" y="-16"/>
      <point x="365" y="-16" type="curve" smooth="yes"/>
      <point x="601" y="-16"/>
      <point x="721" y="185"/>
      <point x="730" y="350" type="curve" smooth="yes"/>
      <point x="738" y="517"/>
      <point x="649" y="716"/>
    </contour>
    <contour>
      <point x="389" y="648" type="curve" smooth="yes"/>
      <point x="528" y="651"/>
      <point x="585" y="516"/>
      <point x="576" y="333" type="curve" smooth="yes"/>
      <point x="570" y="210"/>
      <point x="517" y="53"/>
      <point x="379" y="52" type="curve" smooth="yes"/>
      <point x="228" y="51"/>
      <point x="187" y="237"/>
      <point x="194" y="362" type="curve" smooth="yes"/>
      <point x="200" y="485"/>
      <point x="252" y="645"/>
    </contour>
  </outline>
</glyph>
<glyph name="P" format="2">
  <advance width="632.0"/>
  <unicode hex="0050"/>
  <outline>
    <contour>
      <point x="354.0" y="702.0" type="curve" smooth="yes"/>
      <point x="260.0" y="701.0"/>
      <point x="166.0" y="701.0"/>
      <point x="72.0" y="700.0" type="curve"/>
      <point x="68.0" y="623.0" type="line"/>
      <point x="82.0" y="624.0"/>
      <point x="122.0" y="625.0"/>
      <point x="143.0" y="626.0" type="curve"/>
      <point x="140.0" y="609.0"/>
      <point x="136.0" y="572.0"/>
      <point x="134.0" y="536.0" type="curve" smooth="yes"/>
      <point x="114.0" y="153.0" type="line" smooth="yes"/>
      <point x="110.0" y="72.0"/>
      <point x="83.0" y="68.0"/>
      <point x="39.0" y="66.0" type="curve"/>
      <point x="35.0" y="0.0" type="line"/>
      <point x="330.0" y="0.0" type="line"/>
      <point x="333.0" y="77.0" type="line"/>
      <point x="319.0" y="77.0"/>
      <point x="270.0" y="76.0"/>
      <point x="249.0" y="74.0" type="curve"/>
      <point x="252.0" y="91.0"/>
      <point x="255.0" y="128.0"/>
      <point x="257.0" y="165.0" type="curve" smooth="yes"/>
      <point x="262.0" y="253.0" type="line"/>
      <point x="285.0" y="252.0"/>
      <point x="304.0" y="252.0"/>
      <point x="334.0" y="253.0" type="curve" smooth="yes"/>
      <point x="524.0" y="259.0"/>
      <point x="618.0" y="368.0"/>
      <point x="627.0" y="475.0" type="curve" smooth="yes"/>
      <point x="640.0" y="634.0"/>
      <point x="529.0" y="703.0"/>
    </contour>
    <contour>
      <point x="349.0" y="632.0" type="curve" smooth="yes"/>
      <point x="399.0" y="632.0"/>
      <point x="482.0" y="618.0"/>
      <point x="476.0" y="484.0" type="curve" smooth="yes"/>
      <point x="470.0" y="382.0"/>
      <point x="421.0" y="325.0"/>
      <point x="311.0" y="325.0" type="curve" smooth="yes"/>
      <point x="295.0" y="325.0"/>
      <point x="280.0" y="326.0"/>
      <point x="266.0" y="328.0" type="curve"/>
      <point x="277.0" y="553.0" type="line" smooth="yes"/>
      <point x="281.0" y="623.0"/>
      <point x="307.0" y="632.0"/>
    </contour>
  </outline>
</glyph>
<glyph name="S" format="2">
  <advance width="600.0"/>
  <unicode hex="0053"/>
  <anchor x="332.0" y="0.0" name="bottom"/>
  <anchor x="331.0" y="700.0" name="top"/>
  <outline>
    <contour>
      <point x="291.0" y="-16.0" type="curve" smooth="yes"/>
      <point x="446.0" y="-16.0"/>
      <point x="552.0" y="67.0"/>
      <point x="559.0" y="186.0" type="curve" smooth="yes"/>
      <point x="565.0" y="316.0"/>
      <point x="440.0" y="376.0"/>
      <point x="342.0" y="417.0" type="curve" smooth="yes"/>
      <point x="234.0" y="461.0"/>
      <point x="185.0" y="496.0"/>
      <point x="188.0" y="558.0" type="curve" smooth="yes"/>
      <point x="190.0" y="608.0"/>
      <point x="243.0" y="644.0"/>
      <point x="300.0" y="644.0" type="curve" smooth="yes"/>
      <point x="393.0" y="645.0"/>
      <point x="452.0" y="587.0"/>
      <point x="464.0" y="476.0" type="curve"/>
      <point x="530.0" y="476.0" type="line"/>
      <point x="542.0" y="709.0" type="line"/>
      <point x="465.0" y="709.0" type="line"/>
      <point x="465.0" y="668.0" type="line"/>
      <point x="423.0" y="700.0"/>
      <point x="353.0" y="716.0"/>
      <point x="300.0" y="716.0" type="curve" smooth="yes"/>
      <point x="123.0" y="716.0"/>
      <point x="61.0" y="608.0"/>
      <point x="56.0" y="525.0" type="curve" smooth="yes"/>
      <point x="49.0" y="394.0"/>
      <point x="143.0" y="332.0"/>
      <point x="270.0" y="280.0" type="curve" smooth="yes"/>
      <point x="343.0" y="250.0"/>
      <point x="427.0" y="220.0"/>
      <point x="423.0" y="150.0" type="curve" smooth="yes"/>
      <point x="421.0" y="99.0"/>
      <point x="369.0" y="56.0"/>
      <point x="298.0" y="56.0" type="curve" smooth="yes"/>
      <point x="205.0" y="56.0"/>
      <point x="134.0" y="113.0"/>
      <point x="122.0" y="225.0" type="curve"/>
      <point x="56.0" y="225.0" type="line"/>
      <point x="44.0" y="-9.0" type="line"/>
      <point x="121.0" y="-9.0" type="line"/>
      <point x="121.0" y="33.0" type="line"/>
      <point x="172.0" y="1.0"/>
      <point x="239.0" y="-16.0"/>
    </contour>
  </outline>
</glyph>
<glyph name="U" format="2">
  <advance width="755.0"/>
  <unicode hex="0055"/>
  <anchor x="365.0" y="0.0" name="bottom"/>
  <anchor x="492.0" y="5.0" name="ogonek"/>
  <anchor x="422.0" y="700.0" name="top"/>
  <anchor x="761.0" y="700.0" name="topright"/>
  <outline>
    <contour>
      <point x="756.0" y="700.0" type="line"/>
      <point x="524.0" y="700.0" type="line"/>
      <point x="521.0" y="623.0" type="line"/>
      <point x="535.0" y="624.0"/>
      <point x="574.0" y="625.0"/>
      <point x="596.0" y="626.0" type="curve"/>
      <point x="592.0" y="609.0"/>
      <point x="589.0" y="572.0"/>
      <point x="587.0" y="536.0" type="curve" smooth="yes"/>
      <point x="573.0" y="274.0" type="line" smooth="yes"/>
      <point x="565.0" y="126.0"/>
      <point x="497.0" y="56.0"/>
      <point x="387.0" y="60.0" type="curve" smooth="yes"/>
      <point x="306.0" y="63.0"/>
      <point x="230.0" y="105.0"/>
      <point x="239.0" y="272.0" type="curve" smooth="yes"/>
      <point x="253.0" y="547.0" type="line"/>
      <point x="257.0" y="628.0"/>
      <point x="284.0" y="632.0"/>
      <point x="329.0" y="634.0" type="curve"/>
      <point x="333.0" y="700.0" type="line"/>
      <point x="47.0" y="700.0" type="line"/>
      <point x="43.0" y="623.0" type="line"/>
      <point x="58.0" y="624.0"/>
      <point x="97.0" y="625.0"/>
      <point x="119.0" y="626.0" type="curve"/>
      <point x="115.0" y="609.0"/>
      <point x="112.0" y="572.0"/>
      <point x="110.0" y="536.0" type="curve" smooth="yes"/>
      <point x="97.0" y="294.0" type="line" smooth="yes"/>
      <point x="88.0" y="123.0"/>
      <point x="142.0" y="-16.0"/>
      <point x="367.0" y="-16.0" type="curve" smooth="yes"/>
      <point x="527.0" y="-16.0"/>
      <point x="651.0" y="67.0"/>
      <point x="664.0" y="297.0" type="curve" smooth="yes"/>
      <point x="677.0" y="547.0" type="line" smooth="yes"/>
      <point x="681.0" y="628.0"/>
      <point x="708.0" y="632.0"/>
      <point x="752.0" y="634.0" type="curve"/>
    </contour>
  </outline>
</glyph>
<glyph name="X" format="2">
  <advance width="700.0"/>
  <unicode hex="0058"/>
  <outline>
    <contour>
      <point x="21.0" y="0.0" type="line"/>
      <point x="242.0" y="0.0" type="line"/>
      <point x="246.0" y="77.0" type="line"/>
      <point x="231.0" y="77.0"/>
      <point x="196.0" y="75.0"/>
      <point x="174.0" y="73.0" type="curve"/>
      <point x="191.0" y="90.0"/>
      <point x="203.0" y="104.0"/>
      <point x="233.0" y="142.0" type="curve"/>
      <point x="327.0" y="263.0" type="line"/>
      <point x="422.0" y="134.0" type="line" smooth="yes"/>
      <point x="451.0" y="96.0"/>
      <point x="459.0" y="66.0"/>
      <point x="386.0" y="66.0" type="curve"/>
      <point x="382.0" y="0.0" type="line"/>
      <point x="679.0" y="0.0" type="line"/>
      <point x="683.0" y="77.0" type="line"/>
      <point x="668.0" y="77.0"/>
      <point x="666.0" y="76.0"/>
      <point x="644.0" y="74.0" type="curve"/>
      <point x="634.0" y="97.0"/>
      <point x="615.0" y="122.0"/>
      <point x="594.0" y="150.0" type="curve" smooth="yes"/>
      <point x="418.0" y="390.0" type="line"/>
      <point x="521.0" y="521.0" type="line" smooth="yes"/>
      <point x="578.0" y="594.0"/>
      <point x="622.0" y="628.0"/>
      <point x="668.0" y="634.0" type="curve"/>
      <point x="672.0" y="700.0" type="line"/>
      <point x="444.0" y="700.0" type="line"/>
      <point x="440.0" y="623.0" type="line"/>
      <point x="455.0" y="624.0"/>
      <point x="494.0" y="625.0"/>
      <point x="515.0" y="627.0" type="curve"/>
      <point x="497.0" y="610.0"/>
      <point x="483.0" y="596.0"/>
      <point x="453.0" y="558.0" type="curve"/>
      <point x="371.0" y="453.0" type="line"/>
      <point x="289.0" y="566.0" type="line" smooth="yes"/>
      <point x="261.0" y="604.0"/>
      <point x="262.0" y="634.0"/>
      <point x="335.0" y="634.0" type="curve"/>
      <point x="339.0" y="700.0" type="line"/>
      <point x="37.0" y="700.0" type="line"/>
      <point x="33.0" y="623.0" type="line"/>
      <point x="47.0" y="624.0"/>
      <point x="52.0" y="625.0"/>
      <point x="73.0" y="626.0" type="curve"/>
      <point x="86.0" y="592.0"/>
      <point x="107.0" y="560.0"/>
      <point x="128.0" y="532.0" type="curve" smooth="yes"/>
      <point x="178.0" y="464.0"/>
      <point x="229.0" y="396.0"/>
      <point x="279.0" y="328.0" type="curve"/>
      <point x="154.0" y="173.0" type="line" smooth="yes"/>
      <point x="102.0" y="107.0"/>
      <point x="63.0" y="75.0"/>
      <point x="25.0" y="66.0" type="curve"/>
    </contour>
  </outline>
</glyph>
<glyph name="Y" format="2">
  <advance width="665.0"/>
  <unicode hex="0059"/>
  <anchor x="319.0" y="0.0" name="bottom"/>
  <anchor x="377.0" y="700.0" name="top"/>
  <anchor x="33.0" y="700.0" name="topleft"/>
  <outline>
    <contour>
      <point x="190.0" y="0.0" type="line"/>
      <point x="480.0" y="0.0" type="line"/>
      <point x="484.0" y="77.0" type="line"/>
      <point x="470.0" y="77.0"/>
      <point x="425.0" y="76.0"/>
      <point x="404.0" y="74.0" type="curve"/>
      <point x="407.0" y="91.0"/>
      <point x="411.0" y="128.0"/>
      <point x="413.0" y="164.0" type="curve" smooth="yes"/>
      <point x="418.0" y="277.0" type="line"/>
      <point x="562.0" y="527.0" type="line"/>
      <point x="604.0" y="600.0"/>
      <point x="634.0" y="627.0"/>
      <point x="681.0" y="634.0" type="curve"/>
      <point x="684.0" y="700.0" type="line"/>
      <point x="463.0" y="700.0" type="line"/>
      <point x="459.0" y="623.0" type="line"/>
      <point x="474.0" y="624.0"/>
      <point x="515.0" y="625.0"/>
      <point x="536.0" y="626.0" type="curve"/>
      <point x="518.0" y="605.0"/>
      <point x="490.0" y="556.0"/>
      <point x="479.0" y="535.0" type="curve" smooth="yes"/>
      <point x="460.0" y="501.0"/>
      <point x="440.0" y="467.0"/>
      <point x="421.0" y="433.0" type="curve" smooth="yes"/>
      <point x="395.0" y="382.0"/>
      <point x="377.0" y="351.0"/>
      <point x="370.0" y="335.0" type="curve"/>
      <point x="368.0" y="335.0" type="line"/>
      <point x="359.0" y="364.0"/>
      <point x="331.0" y="416.0"/>
      <point x="323.0" y="432.0" type="curve" smooth="yes"/>
      <point x="300.0" y="474.0"/>
      <point x="276.0" y="515.0"/>
      <point x="253.0" y="557.0" type="curve" smooth="yes"/>
      <point x="224.0" y="612.0"/>
      <point x="258.0" y="638.0"/>
      <point x="316.0" y="634.0" type="curve"/>
      <point x="319.0" y="700.0" type="line"/>
      <point x="27.0" y="700.0" type="line"/>
      <point x="23.0" y="623.0" type="line"/>
      <point x="38.0" y="624.0"/>
      <point x="50.0" y="625.0"/>
      <point x="72.0" y="626.0" type="curve"/>
      <point x="71.0" y="604.0"/>
      <point x="87.0" y="562.0"/>
      <point x="105.0" y="531.0" type="curve" smooth="yes"/>
      <point x="274.0" y="240.0" type="line"/>
      <point x="270.0" y="153.0" type="line" smooth="yes"/>
      <point x="266.0" y="72.0"/>
      <point x="239.0" y="68.0"/>
      <point x="194.0" y="66.0" type="curve"/>
    </contour>
  </outline>
</glyph>
<glyph name="Z" format="2">
  <advance width="603"/>
  <unicode hex="005A"/>
  <anchor x="330" y="700" name="top"/>
  <outline>
    <contour>
      <point x="25" y="0" type="line"/>
      <point x="538" y="0" type="line"/>
      <point x="555" y="214" type="line"/>
      <point x="489" y="214" type="line"/>
      <point x="483" y="105"/>
      <point x="429" y="65"/>
      <point x="355" y="66" type="curve" smooth="yes"/>
      <point x="173" y="71" type="line"/>
      <point x="204" y="106"/>
      <point x="235" y="147"/>
      <point x="265" y="189" type="curve" smooth="yes"/>
      <point x="576" y="625" type="line"/>
      <point x="580" y="700" type="line"/>
      <point x="73" y="700" type="line"/>
      <point x="56" y="487" type="line"/>
      <point x="122" y="487" type="line"/>
      <point x="128" y="595"/>
      <point x="182" y="637"/>
      <point x="256" y="635" type="curve" smooth="yes"/>
      <point x="428" y="630" type="line"/>
      <point x="403" y="602"/>
      <point x="383" y="575"/>
      <point x="353" y="531" type="curve" smooth="yes"/>
      <point x="29" y="75" type="line"/>
    </contour>
  </outline>
</glyph>
<glyph name="underscore" format="2">
  <advance width="835.0"/>
  <unicode hex="005F"/>
  <outline>
    <contour>
      <point x="82.0" y="-50.0" type="line"/>
      <point x="82.0" y="-151.0" type="line"/>
      <point x="696.0" y="-151.0" type="line"/>
      <point x="696.0" y="-54.0" type="line"/>
    </contour>
  </outline>
</glyph>
<glyph name="grave" format="2">
  <advance width="277"/>
  <unicode hex="0060"/>
  <anchor x="147" y="500" name="_top"/>
  <outline>
    <contour>
      <point x="184" y="565" type="line"/>
      <point x="232" y="606" type="line"/>
      <point x="154" y="746" type="line" smooth="yes"/>
      <point x="135" y="779"/>
      <point x="98" y="795"/>
      <point x="64" y="770" type="curve" smooth="yes"/>
      <point x="32" y="741"/>
      <point x="45" y="698"/>
      <point x="70" y="672" type="curve" smooth="yes"/>
    </contour>
  </outline>
</glyph>
<glyph name="a" format="2">
  <advance width="549.0"/>
  <unicode hex="0061"/>
  <anchor x="262.0" y="0.0" name="bottom"/>
  <anchor x="462.0" y="5.0" name="ogonek"/>
  <anchor x="324.0" y="500.0" name="top"/>
  <outline>
    <contour>
      <point x="327.0" y="511.0" type="curve" smooth="yes"/>
      <point x="135.0" y="511.0"/>
      <point x="25.0" y="354.0"/>
      <point x="25.0" y="171.0" type="curve" smooth="yes"/>
      <point x="25.0" y="47.0"/>
      <point x="85.0" y="-11.0"/>
      <point x="158.0" y="-11.0" type="curve" smooth="yes"/>
      <point x="219.0" y="-11.0"/>
      <point x="279.0" y="22.0"/>
      <point x="328.0" y="138.0" type="curve"/>
      <point x="329.0" y="138.0" type="line"/>
      <point x="326.0" y="121.0"/>
      <point x="325.0" y="97.0"/>
      <point x="325.0" y="80.0" type="curve" smooth="yes"/>
      <point x="325.0" y="9.0"/>
      <point x="362.0" y="-11.0"/>
      <point x="405.0" y="-11.0" type="curve" smooth="yes"/>
      <point x="493.0" y="-11.0"/>
      <point x="533.0" y="88.0"/>
      <point x="544.0" y="145.0" type="curve"/>
      <point x="490.0" y="161.0" type="line"/>
      <point x="473.0" y="101.0"/>
      <point x="455.0" y="82.0"/>
      <point x="439.0" y="82.0" type="curve" smooth="yes"/>
      <point x="432.0" y="82.0"/>
      <point x="425.0" y="87.0"/>
      <point x="425.0" y="111.0" type="curve" smooth="yes"/>
      <point x="425.0" y="179.0"/>
      <point x="457.0" y="390.0"/>
      <point x="471.0" y="490.0" type="curve"/>
      <point x="416.0" y="503.0"/>
      <point x="364.0" y="511.0"/>
    </contour>
    <contour>
      <point x="290.0" y="445.0" type="curve" smooth="yes"/>
      <point x="305.0" y="445.0"/>
      <point x="324.0" y="441.0"/>
      <point x="331.0" y="439.0" type="curve"/>
      <point x="323.0" y="289.0"/>
      <point x="273.0" y="78.0"/>
      <point x="200.0" y="78.0" type="curve" smooth="yes"/>
      <point x="176.0" y="78.0"/>
      <point x="162.0" y="111.0"/>
      <point x="162.0" y="166.0" type="curve" smooth="yes"/>
      <point x="162.0" y="349.0"/>
      <point x="214.0" y="445.0"/>
    </contour>
  </outline>
</glyph>
<glyph name="b" format="2">
  <advance width="513.0"/>
  <unicode hex="0062"/>
  <outline>
    <contour>
      <point x="225.0" y="755.0" type="curve"/>
      <point x="171.0" y="755.0" type="line"/>
      <point x="156.0" y="742.0"/>
      <point x="111.0" y="725.0"/>
      <point x="19.0" y="725.0" type="curve"/>
      <point x="15.0" y="649.0" type="line"/>
      <point x="29.0" y="650.0"/>
      <point x="63.0" y="651.0"/>
      <point x="84.0" y="652.0" type="curve"/>
      <point x="80.0" y="623.0"/>
      <point x="77.0" y="583.0"/>
      <point x="76.0" y="560.0" type="curve" smooth="yes"/>
      <point x="63.0" y="350.0"/>
      <point x="55.0" y="228.0"/>
      <point x="47.0" y="16.0" type="curve"/>
      <point x="99.0" y="-4.0"/>
      <point x="175.0" y="-11.0"/>
      <point x="207.0" y="-11.0" type="curve" smooth="yes"/>
      <point x="403.0" y="-11.0"/>
      <point x="478.0" y="140.0"/>
      <point x="478.0" y="320.0" type="curve" smooth="yes"/>
      <point x="478.0" y="420.0"/>
      <point x="436.0" y="511.0"/>
      <point x="335.0" y="511.0" type="curve" smooth="yes"/>
      <point x="293.0" y="511.0"/>
      <point x="232.0" y="480.0"/>
      <point x="187.0" y="393.0" type="curve"/>
      <point x="186.0" y="393.0" type="line"/>
      <point x="195.0" y="447.0"/>
      <point x="201.0" y="529.0"/>
      <point x="204.0" y="551.0" type="curve" smooth="yes"/>
      <point x="208.0" y="591.0"/>
      <point x="217.0" y="697.0"/>
    </contour>
    <contour>
      <point x="295.0" y="419.0" type="curve" smooth="yes"/>
      <point x="318.0" y="419.0"/>
      <point x="341.0" y="397.0"/>
      <point x="341.0" y="325.0" type="curve" smooth="yes"/>
      <point x="341.0" y="231.0"/>
      <point x="330.0" y="55.0"/>
      <point x="221.0" y="55.0" type="curve" smooth="yes"/>
      <point x="208.0" y="55.0"/>
      <point x="183.0" y="59.0"/>
      <point x="172.0" y="64.0" type="curve"/>
      <point x="176.0" y="254.0"/>
      <point x="230.0" y="419.0"/>
    </contour>
  </outline>
</glyph>
<glyph name="d" format="2">
  <advance width="564.0"/>
  <unicode hex="0064"/>
  <anchor x="282.0" y="250.0" name="center"/>
  <anchor x="554.0" y="500.0" name="topright"/>
  <outline>
    <contour>
      <point x="176.0" y="-11.0" type="curve" smooth="yes"/>
      <point x="229.0" y="-11.0"/>
      <point x="297.0" y="22.0"/>
      <point x="345.0" y="140.0" type="curve"/>
      <point x="346.0" y="140.0" type="line"/>
      <point x="343.0" y="117.0"/>
      <point x="342.0" y="106.0"/>
      <point x="342.0" y="80.0" type="curve" smooth="yes"/>
      <point x="342.0" y="9.0"/>
      <point x="379.0" y="-11.0"/>
      <point x="422.0" y="-11.0" type="curve" smooth="yes"/>
      <point x="509.0" y="-11.0"/>
      <point x="546.0" y="88.0"/>
      <point x="558.0" y="145.0" type="curve"/>
      <point x="503.0" y="161.0" type="line"/>
      <point x="486.0" y="101.0"/>
      <point x="470.0" y="82.0"/>
      <point x="455.0" y="82.0" type="curve" smooth="yes"/>
      <point x="448.0" y="82.0"/>
      <point x="440.0" y="87.0"/>
      <point x="440.0" y="111.0" type="curve" smooth="yes"/>
      <point x="440.0" y="171.0"/>
      <point x="458.0" y="298.0"/>
      <point x="473.0" y="435.0" type="curve" smooth="yes"/>
      <point x="485.0" y="542.0"/>
      <point x="498.0" y="648.0"/>
      <point x="510.0" y="755.0" type="curve"/>
      <point x="456.0" y="755.0" type="line"/>
      <point x="441.0" y="742.0"/>
      <point x="396.0" y="725.0"/>
      <point x="303.0" y="725.0" type="curve"/>
      <point x="299.0" y="649.0" type="line"/>
      <point x="313.0" y="650.0"/>
      <point x="347.0" y="651.0"/>
      <point x="369.0" y="652.0" type="curve"/>
      <point x="365.0" y="629.0"/>
      <point x="362.0" y="600.0"/>
      <point x="353.0" y="509.0" type="curve"/>
      <point x="343.0" y="510.0"/>
      <point x="314.0" y="511.0"/>
      <point x="305.0" y="511.0" type="curve" smooth="yes"/>
      <point x="114.0" y="511.0"/>
      <point x="28.0" y="370.0"/>
      <point x="28.0" y="180.0" type="curve" smooth="yes"/>
      <point x="28.0" y="72.0"/>
      <point x="75.0" y="-11.0"/>
    </contour>
    <contour>
      <point x="213.0" y="80.0" type="curve" smooth="yes"/>
      <point x="184.0" y="80.0"/>
      <point x="164.0" y="113.0"/>
      <point x="164.0" y="181.0" type="curve" smooth="yes"/>
      <point x="164.0" y="260.0"/>
      <point x="179.0" y="445.0"/>
      <point x="292.0" y="445.0" type="curve" smooth="yes"/>
      <point x="305.0" y="445.0"/>
      <point x="336.0" y="441.0"/>
      <point x="345.0" y="437.0" type="curve"/>
      <point x="340.0" y="379.0"/>
      <point x="333.0" y="325.0"/>
      <point x="324.0" y="277.0" type="curve" smooth="yes"/>
      <point x="300.0" y="160.0"/>
      <point x="263.0" y="80.0"/>
    </contour>
  </outline>
</glyph>
<glyph name="e" format="2">
  <advance width="470.0"/>
  <unicode hex="0065"/>
  <anchor x="260.0" y="0.0" name="bottom"/>
  <anchor x="313.0" y="5.0" name="ogonek"/>
  <anchor x="263.0" y="500.0" name="top"/>
  <outline>
    <contour>
      <point x="280.0" y="511.0" type="curve" smooth="yes"/>
      <point x="104.0" y="511.0"/>
      <point x="27.0" y="336.0"/>
      <point x="27.0" y="207.0" type="curve" smooth="yes"/>
      <point x="27.0" y="59.0"/>
      <point x="104.0" y="-12.0"/>
      <point x="227.0" y="-11.0" type="curve" smooth="yes"/>
      <point x="305.0" y="-11.0"/>
      <point x="383.0" y="19.0"/>
      <point x="440.0" y="150.0" type="curve"/>
      <point x="384.0" y="177.0" type="line"/>
      <point x="348.0" y="94.0"/>
      <point x="287.0" y="81.0"/>
      <point x="254.0" y="81.0" type="curve" smooth="yes"/>
      <point x="211.0" y="81.0"/>
      <point x="164.0" y="108.0"/>
      <point x="164.0" y="222.0" type="curve"/>
      <point x="282.0" y="239.0"/>
      <point x="430.0" y="276.0"/>
      <point x="430.0" y="385.0" type="curve" smooth="yes"/>
      <point x="430.0" y="473.0"/>
      <point x="368.0" y="511.0"/>
    </contour>
    <contour>
      <point x="269.0" y="445.0" type="curve" smooth="yes"/>
      <point x="289.0" y="445.0"/>
      <point x="312.0" y="432.0"/>
      <point x="313.0" y="399.0" type="curve" smooth="yes"/>
      <point x="314.0" y="350.0"/>
      <point x="275.0" y="306.0"/>
      <point x="167.0" y="287.0" type="curve"/>
      <point x="175.0" y="361.0"/>
      <point x="201.0" y="445.0"/>
    </contour>
  </outline>
</glyph>
<glyph name="h" format="2">
  <advance width="574"/>
  <unicode hex="0068"/>
  <anchor x="258" y="0" name="bottom"/>
  <anchor x="287" y="250" name="center"/>
  <anchor x="175" y="705" name="top"/>
  <outline>
    <contour>
      <point x="417" y="-11" type="curve" smooth="yes"/>
      <point x="507" y="-11"/>
      <point x="557" y="88"/>
      <point x="568" y="145" type="curve"/>
      <point x="514" y="161" type="line"/>
      <point x="497" y="101"/>
      <point x="481" y="82"/>
      <point x="466" y="82" type="curve" smooth="yes"/>
      <point x="458" y="82"/>
      <point x="451" y="86"/>
      <point x="451" y="108" type="curve" smooth="yes"/>
      <point x="451" y="181"/>
      <point x="476" y="284"/>
      <point x="476" y="357" type="curve" smooth="yes"/>
      <point x="476" y="451"/>
      <point x="439" y="511"/>
      <point x="354" y="511" type="curve" smooth="yes"/>
      <point x="297" y="511"/>
      <point x="229" y="480"/>
      <point x="183" y="360" type="curve"/>
      <point x="182" y="360" type="line"/>
      <point x="197" y="431"/>
      <point x="208" y="529"/>
      <point x="210" y="551" type="curve" smooth="yes"/>
      <point x="216" y="591"/>
      <point x="228" y="697"/>
      <point x="235" y="755" type="curve"/>
      <point x="181" y="755" type="line"/>
      <point x="167" y="742"/>
      <point x="122" y="725"/>
      <point x="29" y="725" type="curve"/>
      <point x="25" y="649" type="line"/>
      <point x="95" y="652" type="line"/>
      <point x="89" y="625"/>
      <point x="84" y="582"/>
      <point x="82" y="559" type="curve" smooth="yes"/>
      <point x="68" y="440"/>
      <point x="51" y="212"/>
      <point x="51" y="48" type="curve" smooth="yes"/>
      <point x="51" y="35"/>
      <point x="51" y="28"/>
      <point x="54" y="0" type="curve"/>
      <point x="182" y="0" type="line"/>
      <point x="181" y="16"/>
      <point x="179" y="54"/>
      <point x="179" y="72" type="curve" smooth="yes"/>
      <point x="179" y="212"/>
      <point x="258" y="419"/>
      <point x="319" y="419" type="curve" smooth="yes"/>
      <point x="339" y="419"/>
      <point x="347" y="407"/>
      <point x="347" y="377" type="curve" smooth="yes"/>
      <point x="347" y="315"/>
      <point x="322" y="181"/>
      <point x="322" y="102" type="curve" smooth="yes"/>
      <point x="322" y="31"/>
      <point x="343" y="-11"/>
    </contour>
  </outline>
</glyph>
<glyph name="i" format="2">
  <advance width="344.0"/>
  <unicode hex="0069"/>
  <anchor x="159.0" y="0.0" name="bottom"/>
  <outline>
    <contour>
      <point x="156.0" y="511.0" type="curve" smooth="yes"/>
      <point x="66.0" y="511.0"/>
      <point x="13.0" y="412.0"/>
      <point x="2.0" y="355.0" type="curve"/>
      <point x="56.0" y="339.0" type="line"/>
      <point x="73.0" y="399.0"/>
      <point x="89.0" y="418.0"/>
      <point x="104.0" y="418.0" type="curve" smooth="yes"/>
      <point x="112.0" y="418.0"/>
      <point x="120.0" y="414.0"/>
      <point x="120.0" y="392.0" type="curve" smooth="yes"/>
      <point x="120.0" y="329.0"/>
      <point x="87.0" y="180.0"/>
      <point x="87.0" y="102.0" type="curve" smooth="yes"/>
      <point x="87.0" y="31.0"/>
      <point x="109.0" y="-11.0"/>
      <point x="183.0" y="-11.0" type="curve" smooth="yes"/>
      <point x="273.0" y="-11.0"/>
      <point x="324.0" y="88.0"/>
      <point x="335.0" y="145.0" type="curve"/>
      <point x="281.0" y="161.0" type="line"/>
      <point x="264.0" y="101.0"/>
      <point x="248.0" y="82.0"/>
      <point x="232.0" y="82.0" type="curve" smooth="yes"/>
      <point x="225.0" y="82.0"/>
      <point x="217.0" y="86.0"/>
      <point x="217.0" y="108.0" type="curve" smooth="yes"/>
      <point x="217.0" y="152.0"/>
      <point x="249.0" y="330.0"/>
      <point x="249.0" y="395.0" type="curve" smooth="yes"/>
      <point x="249.0" y="466.0"/>
      <point x="225.0" y="511.0"/>
    </contour>
    <contour>
      <point x="191.0" y="763.0" type="curve" smooth="yes"/>
      <point x="151.0" y="763.0"/>
      <point x="113.0" y="726.0"/>
      <point x="111.0" y="680.0" type="curve" smooth="yes"/>
      <point x="109.0" y="635.0"/>
      <point x="139.0" y="599.0"/>
      <point x="185.0" y="599.0" type="curve" smooth="yes"/>
      <point x="229.0" y="599.0"/>
      <point x="261.0" y="635.0"/>
      <point x="263.0" y="680.0" type="curve" smooth="yes"/>
      <point x="265.0" y="726.0"/>
      <point x="235.0" y="763.0"/>
    </contour>
  </outline>
</glyph>
<glyph name="j" format="2">
  <advance width="313.0"/>
  <unicode hex="006A"/>
  <outline>
    <contour>
      <point x="157.0" y="511.0" type="curve" smooth="yes"/>
      <point x="66.0" y="511.0"/>
      <point x="19.0" y="412.0"/>
      <point x="7.0" y="355.0" type="curve"/>
      <point x="62.0" y="339.0" type="line"/>
      <point x="79.0" y="399.0"/>
      <point x="95.0" y="418.0"/>
      <point x="110.0" y="418.0" type="curve" smooth="yes"/>
      <point x="117.0" y="418.0"/>
      <point x="125.0" y="414.0"/>
      <point x="125.0" y="392.0" type="curve" smooth="yes"/>
      <point x="125.0" y="330.0"/>
      <point x="121.0" y="233.0"/>
      <point x="115.0" y="145.0" type="curve" smooth="yes"/>
      <point x="109.0" y="71.0"/>
      <point x="87.0" y="-204.0"/>
      <point x="19.0" y="-205.0" type="curve" smooth="yes"/>
      <point x="13.0" y="-205.0"/>
      <point x="6.0" y="-204.0"/>
      <point x="4.0" y="-203.0" type="curve"/>
      <point x="12.0" y="-162.0"/>
      <point x="-16.0" y="-135.0"/>
      <point x="-45.0" y="-134.0" type="curve" smooth="yes"/>
      <point x="-92.0" y="-132.0"/>
      <point x="-108.0" y="-174.0"/>
      <point x="-108.0" y="-197.0" type="curve" smooth="yes"/>
      <point x="-108.0" y="-241.0"/>
      <point x="-71.0" y="-271.0"/>
      <point x="-10.0" y="-271.0" type="curve" smooth="yes"/>
      <point x="183.0" y="-271.0"/>
      <point x="227.0" y="-42.0"/>
      <point x="243.0" y="134.0" type="curve" smooth="yes"/>
      <point x="251.0" y="226.0"/>
      <point x="255.0" y="327.0"/>
      <point x="254.0" y="395.0" type="curve" smooth="yes"/>
      <point x="253.0" y="466.0"/>
      <point x="226.0" y="511.0"/>
    </contour>
    <contour>
      <point x="196.0" y="763.0" type="curve" smooth="yes"/>
      <point x="156.0" y="763.0"/>
      <point x="118.0" y="726.0"/>
      <point x="116.0" y="680.0" type="curve" smooth="yes"/>
      <point x="114.0" y="635.0"/>
      <point x="144.0" y="599.0"/>
      <point x="189.0" y="599.0" type="curve" smooth="yes"/>
      <point x="234.0" y="599.0"/>
      <point x="266.0" y="635.0"/>
      <point x="268.0" y="680.0" type="curve" smooth="yes"/>
      <point x="270.0" y="726.0"/>
      <point x="240.0" y="763.0"/>
    </contour>
  </outline>
</glyph>
<glyph name="k" format="2">
  <advance width="518"/>
  <unicode hex="006B"/>
  <anchor x="264" y="0" name="bottom"/>
  <anchor x="215" y="705" name="top"/>
  <outline>
    <contour>
      <point x="370" y="-11" type="curve" smooth="yes"/>
      <point x="441" y="-11"/>
      <point x="486" y="68"/>
      <point x="501" y="140" type="curve"/>
      <point x="447" y="157" type="line"/>
      <point x="432" y="105"/>
      <point x="418" y="88"/>
      <point x="404" y="88" type="curve" smooth="yes"/>
      <point x="387" y="88"/>
      <point x="375" y="115"/>
      <point x="356" y="158" type="curve" smooth="yes"/>
      <point x="345" y="186"/>
      <point x="325" y="219"/>
      <point x="269" y="221" type="curve"/>
      <point x="269" y="222" type="line"/>
      <point x="412" y="252"/>
      <point x="459" y="344"/>
      <point x="459" y="405" type="curve" smooth="yes"/>
      <point x="459" y="470"/>
      <point x="425" y="511"/>
      <point x="351" y="511" type="curve" smooth="yes"/>
      <point x="299" y="511"/>
      <point x="235" y="479"/>
      <point x="191" y="391" type="curve"/>
      <point x="190" y="391" type="line"/>
      <point x="197" y="427"/>
      <point x="205" y="466"/>
      <point x="210" y="521" type="curve" smooth="yes"/>
      <point x="219" y="604"/>
      <point x="231" y="682"/>
      <point x="241" y="755" type="curve"/>
      <point x="187" y="755" type="line"/>
      <point x="172" y="742"/>
      <point x="127" y="725"/>
      <point x="34" y="725" type="curve"/>
      <point x="30" y="649" type="line"/>
      <point x="44" y="650"/>
      <point x="80" y="651"/>
      <point x="102" y="652" type="curve"/>
      <point x="96" y="623"/>
      <point x="90" y="585"/>
      <point x="87" y="559" type="curve" smooth="yes"/>
      <point x="58" y="334"/>
      <point x="46" y="87"/>
      <point x="46" y="49" type="curve" smooth="yes"/>
      <point x="46" y="36"/>
      <point x="46" y="28"/>
      <point x="49" y="0" type="curve"/>
      <point x="179" y="0" type="line"/>
      <point x="177" y="18"/>
      <point x="176" y="49"/>
      <point x="176" y="67" type="curve" smooth="yes"/>
      <point x="176" y="102"/>
      <point x="180" y="160"/>
      <point x="188" y="198" type="curve"/>
      <point x="195" y="200"/>
      <point x="201" y="198"/>
      <point x="206" y="194" type="curve" smooth="yes"/>
      <point x="221" y="184"/>
      <point x="230" y="154"/>
      <point x="243" y="118" type="curve" smooth="yes"/>
      <point x="279" y="20"/>
      <point x="311" y="-11"/>
    </contour>
    <contour>
      <point x="195" y="262" type="curve"/>
      <point x="218" y="380"/>
      <point x="280" y="445"/>
      <point x="313" y="445" type="curve" smooth="yes"/>
      <point x="331" y="445"/>
      <point x="339" y="427"/>
      <point x="339" y="401" type="curve" smooth="yes"/>
      <point x="339" y="315"/>
      <point x="294" y="262"/>
    </contour>
  </outline>
</glyph>
<glyph name="m" format="2">
  <advance width="878.0"/>
  <unicode hex="006D"/>
  <outline>
    <contour>
      <point x="721.0" y="-11.0" type="curve" smooth="yes"/>
      <point x="812.0" y="-11.0"/>
      <point x="861.0" y="88.0"/>
      <point x="873.0" y="145.0" type="curve"/>
      <point x="818.0" y="161.0" type="line"/>
      <point x="801.0" y="101.0"/>
      <point x="785.0" y="82.0"/>
      <point x="770.0" y="82.0" type="curve" smooth="yes"/>
      <point x="763.0" y="82.0"/>
      <point x="755.0" y="86.0"/>
      <point x="755.0" y="108.0" type="curve" smooth="yes"/>
      <point x="755.0" y="181.0"/>
      <point x="780.0" y="284.0"/>
      <point x="780.0" y="357.0" type="curve" smooth="yes"/>
      <point x="780.0" y="451.0"/>
      <point x="744.0" y="511.0"/>
      <point x="659.0" y="511.0" type="curve" smooth="yes"/>
      <point x="602.0" y="511.0"/>
      <point x="539.0" y="480.0"/>
      <point x="492.0" y="360.0" type="curve"/>
      <point x="491.0" y="360.0" type="line"/>
      <point x="493.0" y="373.0"/>
      <point x="493.0" y="385.0"/>
      <point x="493.0" y="396.0" type="curve" smooth="yes"/>
      <point x="493.0" y="468.0"/>
      <point x="460.0" y="511.0"/>
      <point x="395.0" y="511.0" type="curve" smooth="yes"/>
      <point x="338.0" y="511.0"/>
      <point x="268.0" y="480.0"/>
      <point x="221.0" y="360.0" type="curve"/>
      <point x="220.0" y="360.0" type="line"/>
      <point x="223.0" y="383.0"/>
      <point x="226.0" y="394.0"/>
      <point x="226.0" y="420.0" type="curve" smooth="yes"/>
      <point x="226.0" y="491.0"/>
      <point x="185.0" y="511.0"/>
      <point x="142.0" y="511.0" type="curve" smooth="yes"/>
      <point x="55.0" y="511.0"/>
      <point x="20.0" y="412.0"/>
      <point x="8.0" y="355.0" type="curve"/>
      <point x="63.0" y="339.0" type="line"/>
      <point x="80.0" y="399.0"/>
      <point x="96.0" y="418.0"/>
      <point x="111.0" y="418.0" type="curve" smooth="yes"/>
      <point x="118.0" y="418.0"/>
      <point x="125.0" y="414.0"/>
      <point x="125.0" y="392.0" type="curve" smooth="yes"/>
      <point x="125.0" y="365.0"/>
      <point x="114.0" y="291.0"/>
      <point x="105.0" y="215.0" type="curve" smooth="yes"/>
      <point x="96.0" y="152.0"/>
      <point x="89.0" y="87.0"/>
      <point x="89.0" y="48.0" type="curve" smooth="yes"/>
      <point x="89.0" y="35.0"/>
      <point x="89.0" y="28.0"/>
      <point x="92.0" y="0.0" type="curve"/>
      <point x="220.0" y="0.0" type="line"/>
      <point x="219.0" y="16.0"/>
      <point x="217.0" y="54.0"/>
      <point x="217.0" y="72.0" type="curve" smooth="yes"/>
      <point x="217.0" y="212.0"/>
      <point x="295.0" y="419.0"/>
      <point x="356.0" y="419.0" type="curve" smooth="yes"/>
      <point x="376.0" y="419.0"/>
      <point x="384.0" y="407.0"/>
      <point x="384.0" y="377.0" type="curve" smooth="yes"/>
      <point x="384.0" y="315.0"/>
      <point x="361.0" y="181.0"/>
      <point x="361.0" y="67.0" type="curve" smooth="yes"/>
      <point x="361.0" y="55.0"/>
      <point x="361.0" y="28.0"/>
      <point x="364.0" y="0.0" type="curve"/>
      <point x="493.0" y="0.0" type="line"/>
      <point x="491.0" y="25.0"/>
      <point x="490.0" y="59.0"/>
      <point x="490.0" y="77.0" type="curve" smooth="yes"/>
      <point x="490.0" y="217.0"/>
      <point x="563.0" y="419.0"/>
      <point x="624.0" y="419.0" type="curve" smooth="yes"/>
      <point x="645.0" y="419.0"/>
      <point x="652.0" y="407.0"/>
      <point x="652.0" y="377.0" type="curve" smooth="yes"/>
      <point x="652.0" y="315.0"/>
      <point x="627.0" y="181.0"/>
      <point x="627.0" y="102.0" type="curve" smooth="yes"/>
      <point x="627.0" y="31.0"/>
      <point x="647.0" y="-11.0"/>
    </contour>
  </outline>
</glyph>
<glyph name="n" format="2">
  <advance width="610.0"/>
  <unicode hex="006E"/>
  <anchor x="327.0" y="0.0" name="bottom"/>
  <anchor x="341.0" y="500.0" name="top"/>
  <outline>
    <contour>
      <point x="453.0" y="-11.0" type="curve" smooth="yes"/>
      <point x="543.0" y="-11.0"/>
      <point x="593.0" y="88.0"/>
      <point x="604.0" y="145.0" type="curve"/>
      <point x="550.0" y="161.0" type="line"/>
      <point x="533.0" y="101.0"/>
      <point x="517.0" y="82.0"/>
      <point x="502.0" y="82.0" type="curve" smooth="yes"/>
      <point x="495.0" y="82.0"/>
      <point x="487.0" y="86.0"/>
      <point x="487.0" y="108.0" type="curve" smooth="yes"/>
      <point x="487.0" y="181.0"/>
      <point x="512.0" y="284.0"/>
      <point x="512.0" y="357.0" type="curve" smooth="yes"/>
      <point x="512.0" y="451.0"/>
      <point x="477.0" y="511.0"/>
      <point x="392.0" y="511.0" type="curve" smooth="yes"/>
      <point x="334.0" y="511.0"/>
      <point x="268.0" y="480.0"/>
      <point x="221.0" y="360.0" type="curve"/>
      <point x="220.0" y="360.0" type="line"/>
      <point x="223.0" y="383.0"/>
      <point x="226.0" y="394.0"/>
      <point x="226.0" y="420.0" type="curve" smooth="yes"/>
      <point x="226.0" y="491.0"/>
      <point x="185.0" y="511.0"/>
      <point x="142.0" y="511.0" type="curve" smooth="yes"/>
      <point x="55.0" y="511.0"/>
      <point x="20.0" y="412.0"/>
      <point x="8.0" y="355.0" type="curve"/>
      <point x="63.0" y="339.0" type="line"/>
      <point x="80.0" y="399.0"/>
      <point x="96.0" y="418.0"/>
      <point x="111.0" y="418.0" type="curve" smooth="yes"/>
      <point x="118.0" y="418.0"/>
      <point x="125.0" y="414.0"/>
      <point x="125.0" y="392.0" type="curve" smooth="yes"/>
      <point x="125.0" y="367.0"/>
      <point x="115.0" y="298.0"/>
      <point x="106.0" y="226.0" type="curve" smooth="yes"/>
      <point x="97.0" y="159.0"/>
      <point x="89.0" y="89.0"/>
      <point x="89.0" y="48.0" type="curve" smooth="yes"/>
      <point x="89.0" y="35.0"/>
      <point x="89.0" y="28.0"/>
      <point x="92.0" y="0.0" type="curve"/>
      <point x="221.0" y="0.0" type="line"/>
      <point x="220.0" y="16.0"/>
      <point x="218.0" y="54.0"/>
      <point x="218.0" y="72.0" type="curve" smooth="yes"/>
      <point x="218.0" y="212.0"/>
      <point x="295.0" y="419.0"/>
      <point x="356.0" y="419.0" type="curve" smooth="yes"/>
      <point x="376.0" y="419.0"/>
      <point x="384.0" y="407.0"/>
      <point x="384.0" y="377.0" type="curve" smooth="yes"/>
      <point x="384.0" y="315.0"/>
      <point x="359.0" y="181.0"/>
      <point x="359.0" y="102.0" type="curve" smooth="yes"/>
      <point x="359.0" y="31.0"/>
      <point x="379.0" y="-11.0"/>
    </contour>
  </outline>
</glyph>
<glyph name="o" format="2">
  <advance width="515.0"/>
  <unicode hex="006F"/>
  <anchor x="245.0" y="0.0" name="bottom"/>
  <anchor x="258.0" y="250.0" name="center"/>
  <anchor x="450.0" y="5.0" name="ogonek"/>
  <anchor x="273.0" y="500.0" name="top"/>
  <anchor x="435.0" y="500.0" name="topright"/>
  <outline>
    <contour>
      <point x="279.0" y="511.0" type="curve" smooth="yes"/>
      <point x="125.0" y="511.0"/>
      <point x="28.0" y="376.0"/>
      <point x="28.0" y="216.0" type="curve" smooth="yes"/>
      <point x="28.0" y="91.0"/>
      <point x="94.0" y="-11.0"/>
      <point x="229.0" y="-11.0" type="curve" smooth="yes"/>
      <point x="385.0" y="-11.0"/>
      <point x="480.0" y="129.0"/>
      <point x="480.0" y="288.0" type="curve" smooth="yes"/>
      <point x="480.0" y="430.0"/>
      <point x="391.0" y="511.0"/>
    </contour>
    <contour>
      <point x="264.0" y="445.0" type="curve" smooth="yes"/>
      <point x="331.0" y="444.0"/>
      <point x="344.0" y="332.0"/>
      <point x="342.0" y="259.0" type="curve" smooth="yes"/>
      <point x="340.0" y="177.0"/>
      <point x="314.0" y="55.0"/>
      <point x="245.0" y="55.0" type="curve" smooth="yes"/>
      <point x="181.0" y="55.0"/>
      <point x="164.0" y="164.0"/>
      <point x="164.0" y="244.0" type="curve" smooth="yes"/>
      <point x="164.0" y="354.0"/>
      <point x="203.0" y="446.0"/>
    </contour>
  </outline>
</glyph>
<glyph name="p" format="2">
  <advance width="575.0"/>
  <unicode hex="0070"/>
  <outline>
    <contour>
      <point x="28.0" y="-255.0" type="line"/>
      <point x="281.0" y="-255.0" type="line"/>
      <point x="281.0" y="-179.0" type="line"/>
      <point x="267.0" y="-179.0"/>
      <point x="236.0" y="-180.0"/>
      <point x="215.0" y="-182.0" type="curve"/>
      <point x="219.0" y="-151.0"/>
      <point x="222.0" y="-107.0"/>
      <point x="227.0" y="-10.0" type="curve"/>
      <point x="238.0" y="-11.0"/>
      <point x="252.0" y="-11.0"/>
      <point x="259.0" y="-11.0" type="curve" smooth="yes"/>
      <point x="450.0" y="-11.0"/>
      <point x="541.0" y="130.0"/>
      <point x="541.0" y="320.0" type="curve" smooth="yes"/>
      <point x="541.0" y="433.0"/>
      <point x="489.0" y="511.0"/>
      <point x="393.0" y="511.0" type="curve" smooth="yes"/>
      <point x="340.0" y="511.0"/>
      <point x="269.0" y="480.0"/>
      <point x="222.0" y="360.0" type="curve"/>
      <point x="221.0" y="360.0" type="line"/>
      <point x="224.0" y="383.0"/>
      <point x="225.0" y="394.0"/>
      <point x="225.0" y="420.0" type="curve" smooth="yes"/>
      <point x="225.0" y="491.0"/>
      <point x="186.0" y="511.0"/>
      <point x="143.0" y="511.0" type="curve" smooth="yes"/>
      <point x="55.0" y="511.0"/>
      <point x="20.0" y="412.0"/>
      <point x="9.0" y="355.0" type="curve"/>
      <point x="63.0" y="339.0" type="line"/>
      <point x="80.0" y="399.0"/>
      <point x="96.0" y="418.0"/>
      <point x="111.0" y="418.0" type="curve" smooth="yes"/>
      <point x="119.0" y="418.0"/>
      <point x="126.0" y="413.0"/>
      <point x="126.0" y="389.0" type="curve" smooth="yes"/>
      <point x="126.0" y="347.0"/>
      <point x="120.0" y="213.0"/>
      <point x="91.0" y="-100.0" type="curve" smooth="yes"/>
      <point x="86.0" y="-152.0"/>
      <point x="78.0" y="-190.0"/>
      <point x="28.0" y="-190.0" type="curve"/>
    </contour>
    <contour>
      <point x="271.0" y="55.0" type="curve" smooth="yes"/>
      <point x="263.0" y="55.0"/>
      <point x="245.0" y="57.0"/>
      <point x="231.0" y="61.0" type="curve"/>
      <point x="234.0" y="100.0"/>
      <point x="238.0" y="135.0"/>
      <point x="242.0" y="168.0" type="curve" smooth="yes"/>
      <point x="263.0" y="333.0"/>
      <point x="302.0" y="420.0"/>
      <point x="356.0" y="420.0" type="curve" smooth="yes"/>
      <point x="385.0" y="420.0"/>
      <point x="405.0" y="392.0"/>
      <point x="405.0" y="319.0" type="curve" smooth="yes"/>
      <point x="405.0" y="240.0"/>
      <point x="385.0" y="55.0"/>
    </contour>
  </outline>
</glyph>
<glyph name="q" format="2">
  <advance width="522"/>
  <unicode hex="0071"/>
  <outline>
    <contour>
      <point x="314" y="511" type="curve" smooth="yes"/>
      <point x="113" y="511"/>
      <point x="27" y="359"/>
      <point x="27" y="179" type="curve" smooth="yes"/>
      <point x="27" y="81"/>
      <point x="74" y="-11"/>
      <point x="169" y="-11" type="curve" smooth="yes"/>
      <point x="216" y="-11"/>
      <point x="270" y="6"/>
      <point x="322" y="106" type="curve"/>
      <point x="323" y="106" type="line"/>
      <point x="317" y="71"/>
      <point x="313" y="25"/>
      <point x="310" y="-10" type="curve" smooth="yes"/>
      <point x="299" y="-144"/>
      <point x="304" y="-190"/>
      <point x="239" y="-190" type="curve"/>
      <point x="239" y="-255" type="line"/>
      <point x="492" y="-255" type="line"/>
      <point x="492" y="-179" type="line"/>
      <point x="478" y="-179"/>
      <point x="446" y="-180"/>
      <point x="424" y="-182" type="curve"/>
      <point x="428" y="-152"/>
      <point x="431" y="-112"/>
      <point x="432" y="-93" type="curve" smooth="yes"/>
      <point x="446" y="103"/>
      <point x="461" y="298"/>
      <point x="475" y="494" type="curve"/>
      <point x="425" y="503"/>
      <point x="356" y="511"/>
    </contour>
    <contour>
      <point x="300" y="445" type="curve" smooth="yes"/>
      <point x="309" y="445"/>
      <point x="334" y="443"/>
      <point x="342" y="439" type="curve"/>
      <point x="337" y="272"/>
      <point x="277" y="80"/>
      <point x="215" y="80" type="curve" smooth="yes"/>
      <point x="194" y="80"/>
      <point x="164" y="103"/>
      <point x="164" y="185" type="curve" smooth="yes"/>
      <point x="164" y="309"/>
      <point x="191" y="445"/>
    </contour>
  </outline>
</glyph>
<glyph name="v" format="2">
  <advance width="523.0"/>
  <unicode hex="0076"/>
  <outline>
    <contour>
      <point x="361.0" y="511.0" type="curve" smooth="yes"/>
      <point x="304.0" y="511.0"/>
      <point x="285.0" y="469.0"/>
      <point x="285.0" y="441.0" type="curve" smooth="yes"/>
      <point x="285.0" y="397.0"/>
      <point x="320.0" y="379.0"/>
      <point x="347.0" y="379.0" type="curve" smooth="yes"/>
      <point x="366.0" y="379.0"/>
      <point x="381.0" y="388.0"/>
      <point x="393.0" y="397.0" type="curve"/>
      <point x="407.0" y="383.0"/>
      <point x="418.0" y="350.0"/>
      <point x="418.0" y="320.0" type="curve" smooth="yes"/>
      <point x="418.0" y="180.0"/>
      <point x="333.0" y="66.0"/>
      <point x="261.0" y="64.0" type="curve" smooth="yes"/>
      <point x="229.0" y="64.0"/>
      <point x="225.0" y="100.0"/>
      <point x="225.0" y="121.0" type="curve" smooth="yes"/>
      <point x="225.0" y="181.0"/>
      <point x="243.0" y="309.0"/>
      <point x="243.0" y="395.0" type="curve" smooth="yes"/>
      <point x="243.0" y="458.0"/>
      <point x="224.0" y="511.0"/>
      <point x="147.0" y="511.0" type="curve" smooth="yes"/>
      <point x="57.0" y="511.0"/>
      <point x="7.0" y="412.0"/>
      <point x="-4.0" y="355.0" type="curve"/>
      <point x="50.0" y="339.0" type="line"/>
      <point x="67.0" y="399.0"/>
      <point x="83.0" y="418.0"/>
      <point x="98.0" y="418.0" type="curve" smooth="yes"/>
      <point x="105.0" y="418.0"/>
      <point x="114.0" y="414.0"/>
      <point x="114.0" y="392.0" type="curve" smooth="yes"/>
      <point x="114.0" y="344.0"/>
      <point x="98.0" y="214.0"/>
      <point x="98.0" y="145.0" type="curve" smooth="yes"/>
      <point x="98.0" y="48.0"/>
      <point x="134.0" y="-11.0"/>
      <point x="225.0" y="-11.0" type="curve" smooth="yes"/>
      <point x="392.0" y="-11.0"/>
      <point x="492.0" y="191.0"/>
      <point x="492.0" y="329.0" type="curve" smooth="yes"/>
      <point x="492.0" y="428.0"/>
      <point x="447.0" y="511.0"/>
    </contour>
  </outline>
</glyph>
<glyph name="w" format="2">
  <advance width="795.0"/>
  <unicode hex="0077"/>
  <anchor x="414.0" y="500.0" name="top"/>
  <outline>
    <contour>
      <point x="634.0" y="511.0" type="curve" smooth="yes"/>
      <point x="577.0" y="511.0"/>
      <point x="558.0" y="469.0"/>
      <point x="558.0" y="441.0" type="curve" smooth="yes"/>
      <point x="558.0" y="397.0"/>
      <point x="593.0" y="379.0"/>
      <point x="620.0" y="379.0" type="curve" smooth="yes"/>
      <point x="639.0" y="379.0"/>
      <point x="654.0" y="388.0"/>
      <point x="666.0" y="397.0" type="curve"/>
      <point x="680.0" y="383.0"/>
      <point x="691.0" y="350.0"/>
      <point x="691.0" y="320.0" type="curve" smooth="yes"/>
      <point x="691.0" y="183.0"/>
      <point x="588.0" y="64.0"/>
      <point x="519.0" y="64.0" type="curve" smooth="yes"/>
      <point x="488.0" y="64.0"/>
      <point x="479.0" y="100.0"/>
      <point x="479.0" y="121.0" type="curve" smooth="yes"/>
      <point x="479.0" y="181.0"/>
      <point x="502.0" y="366.0"/>
      <point x="502.0" y="452.0" type="curve" smooth="yes"/>
      <point x="502.0" y="465.0"/>
      <point x="502.0" y="472.0"/>
      <point x="500.0" y="500.0" type="curve"/>
      <point x="371.0" y="500.0" type="line"/>
      <point x="372.0" y="484.0"/>
      <point x="374.0" y="446.0"/>
      <point x="374.0" y="428.0" type="curve" smooth="yes"/>
      <point x="374.0" y="308.0"/>
      <point x="347.0" y="64.0"/>
      <point x="250.0" y="64.0" type="curve" smooth="yes"/>
      <point x="223.0" y="64.0"/>
      <point x="222.0" y="100.0"/>
      <point x="222.0" y="121.0" type="curve" smooth="yes"/>
      <point x="222.0" y="181.0"/>
      <point x="246.0" y="309.0"/>
      <point x="246.0" y="395.0" type="curve" smooth="yes"/>
      <point x="246.0" y="458.0"/>
      <point x="226.0" y="511.0"/>
      <point x="149.0" y="511.0" type="curve" smooth="yes"/>
      <point x="59.0" y="511.0"/>
      <point x="9.0" y="412.0"/>
      <point x="-2.0" y="355.0" type="curve"/>
      <point x="52.0" y="339.0" type="line"/>
      <point x="69.0" y="399.0"/>
      <point x="85.0" y="418.0"/>
      <point x="101.0" y="418.0" type="curve" smooth="yes"/>
      <point x="108.0" y="418.0"/>
      <point x="117.0" y="414.0"/>
      <point x="117.0" y="392.0" type="curve" smooth="yes"/>
      <point x="117.0" y="344.0"/>
      <point x="94.0" y="214.0"/>
      <point x="94.0" y="145.0" type="curve" smooth="yes"/>
      <point x="94.0" y="48.0"/>
      <point x="130.0" y="-11.0"/>
      <point x="216.0" y="-11.0" type="curve" smooth="yes"/>
      <point x="284.0" y="-11.0"/>
      <point x="354.0" y="27.0"/>
      <point x="383.0" y="135.0" type="curve"/>
      <point x="373.0" y="56.0"/>
      <point x="397.0" y="-11.0"/>
      <point x="484.0" y="-11.0" type="curve" smooth="yes"/>
      <point x="646.0" y="-11.0"/>
      <point x="765.0" y="187.0"/>
      <point x="765.0" y="329.0" type="curve" smooth="yes"/>
      <point x="765.0" y="428.0"/>
      <point x="720.0" y="511.0"/>
    </contour>
  </outline>
</glyph>
<glyph name="braceleft" format="2">
  <advance width="345"/>
  <unicode hex="007B"/>
  <outline>
    <contour>
      <point x="356" y="760" type="line"/>
      <point x="339" y="760"/>
      <point x="323" y="760"/>
      <point x="306" y="760" type="curve" smooth="yes"/>
      <point x="165" y="760"/>
      <point x="110" y="671"/>
      <point x="111" y="527" type="curve" smooth="yes"/>
      <point x="111" y="494"/>
      <point x="114" y="368"/>
      <point x="113" y="357" type="curve"/>
      <point x="110" y="312"/>
      <point x="95" y="288"/>
      <point x="46" y="288" type="curve" smooth="yes"/>
      <point x="2" y="288" type="line"/>
      <point x="-3" y="221" type="line"/>
      <point x="43" y="221" type="line" smooth="yes"/>
      <point x="89" y="221"/>
      <point x="102" y="191"/>
      <point x="101" y="150" type="curve" smooth="yes"/>
      <point x="100" y="109"/>
      <point x="83" y="-25"/>
      <point x="83" y="-54" type="curve" smooth="yes"/>
      <point x="83" y="-178"/>
      <point x="126" y="-271"/>
      <point x="258" y="-271" type="curve" smooth="yes"/>
      <point x="274" y="-271"/>
      <point x="291" y="-271"/>
      <point x="307" y="-271" type="curve"/>
      <point x="311" y="-205" type="line"/>
      <point x="225" y="-207"/>
      <point x="197" y="-134"/>
      <point x="197" y="-62" type="curve" smooth="yes"/>
      <point x="197" y="-14"/>
      <point x="217" y="97"/>
      <point x="217" y="126" type="curve" smooth="yes"/>
      <point x="219" y="192"/>
      <point x="182" y="229"/>
      <point x="124" y="255" type="curve"/>
      <point x="124" y="256" type="line"/>
      <point x="185" y="278"/>
      <point x="228" y="311"/>
      <point x="230" y="380" type="curve" smooth="yes"/>
      <point x="232" y="414"/>
      <point x="225" y="519"/>
      <point x="226" y="537" type="curve" smooth="yes"/>
      <point x="232" y="624"/>
      <point x="259" y="697"/>
      <point x="353" y="694" type="curve"/>
    </contour>
  </outline>
</glyph>
<glyph name="bar" format="2">
  <advance width="234.0"/>
  <unicode hex="007C"/>
  <outline>
    <contour>
      <point x="197.0" y="760.0" type="line"/>
      <point x="85.0" y="760.0" type="line"/>
      <point x="34.0" y="-271.0" type="line"/>
      <point x="139.0" y="-271.0" type="line"/>
    </contour>
  </outline>
</glyph>
<glyph name="asciitilde" format="2">
  <advance width="530.0"/>
  <unicode hex="007E"/>
  <outline>
    <contour>
      <point x="366.0" y="201.0" type="curve" smooth="yes"/>
      <point x="418.0" y="201.0"/>
      <point x="458.0" y="223.0"/>
      <point x="488.0" y="253.0" type="curve"/>
      <point x="494.0" y="371.0" type="line"/>
      <point x="457.0" y="340.0"/>
      <point x="412.0" y="320.0"/>
      <point x="364.0" y="324.0" type="curve" smooth="yes"/>
      <point x="293.0" y="330.0"/>
      <point x="280.0" y="399.0"/>
      <point x="177.0" y="399.0" type="curve" smooth="yes"/>
      <point x="125.0" y="399.0"/>
      <point x="91.0" y="380.0"/>
      <point x="47.0" y="346.0" type="curve"/>
      <point x="41.0" y="228.0" type="line"/>
      <point x="79.0" y="254.0"/>
      <point x="113.0" y="276.0"/>
      <point x="167.0" y="276.0" type="curve" smooth="yes"/>
      <point x="247.0" y="276.0"/>
      <point x="265.0" y="201.0"/>
    </contour>
  </outline>
</glyph>
<glyph name="cent" format="2">
  <advance width="488.0"/>
  <unicode hex="00A2"/>
  <outline>
    <contour>
      <point x="339.0" y="625.0" type="line"/>
      <point x="237.0" y="625.0" type="line"/>
      <point x="225.0" y="504.0" type="line"/>
      <point x="96.0" y="470.0"/>
      <point x="34.0" y="321.0"/>
      <point x="34.0" y="207.0" type="curve" smooth="yes"/>
      <point x="34.0" y="86.0"/>
      <point x="87.0" y="18.0"/>
      <point x="170.0" y="-3.0" type="curve"/>
      <point x="157.0" y="-134.0" type="line"/>
      <point x="253.0" y="-134.0" type="line"/>
      <point x="267.0" y="-8.0" type="line"/>
      <point x="336.0" y="2.0"/>
      <point x="399.0" y="45.0"/>
      <point x="449.0" y="157.0" type="curve"/>
      <point x="392.0" y="185.0" type="line"/>
      <point x="350.0" y="91.0"/>
      <point x="291.0" y="78.0"/>
      <point x="254.0" y="81.0" type="curve" smooth="yes"/>
      <point x="212.0" y="85.0"/>
      <point x="167.0" y="124.0"/>
      <point x="171.0" y="233.0" type="curve" smooth="yes"/>
      <point x="173.0" y="313.0"/>
      <point x="193.0" y="445.0"/>
      <point x="279.0" y="445.0" type="curve" smooth="yes"/>
      <point x="302.0" y="445.0"/>
      <point x="321.0" y="435.0"/>
      <point x="326.0" y="423.0" type="curve"/>
      <point x="319.0" y="410.0"/>
      <point x="316.0" y="393.0"/>
      <point x="316.0" y="381.0" type="curve" smooth="yes"/>
      <point x="316.0" y="358.0"/>
      <point x="333.0" y="321.0"/>
      <point x="378.0" y="322.0" type="curve" smooth="yes"/>
      <point x="417.0" y="323.0"/>
      <point x="442.0" y="351.0"/>
      <point x="442.0" y="391.0" type="curve" smooth="yes"/>
      <point x="442.0" y="451.0"/>
      <point x="395.0" y="494.0"/>
      <point x="327.0" y="507.0" type="curve"/>
    </contour>
  </outline>
</glyph>
<glyph name="currency" format="2">
  <advance width="553.0"/>
  <unicode hex="00A4"/>
  <outline>
    <contour>
      <point x="113.0" y="27.0" type="line"/>
      <point x="163.0" y="87.0" type="line"/>
      <point x="189.0" y="71.0"/>
      <point x="223.0" y="62.0"/>
      <point x="262.0" y="62.0" type="curve" smooth="yes"/>
      <point x="301.0" y="62.0"/>
      <point x="335.0" y="71.0"/>
      <point x="364.0" y="87.0" type="curve"/>
      <point x="409.0" y="27.0" type="line"/>
      <point x="483.0" y="84.0" type="line"/>
      <point x="429.0" y="149.0" type="line"/>
      <point x="448.0" y="180.0"/>
      <point x="459.0" y="217.0"/>
      <point x="461.0" y="254.0" type="curve" smooth="yes"/>
      <point x="463.0" y="291.0"/>
      <point x="455.0" y="327.0"/>
      <point x="437.0" y="359.0" type="curve"/>
      <point x="501.0" y="428.0" type="line"/>
      <point x="433.0" y="487.0" type="line"/>
      <point x="380.0" y="425.0" type="line"/>
      <point x="354.0" y="442.0"/>
      <point x="321.0" y="453.0"/>
      <point x="283.0" y="453.0" type="curve" smooth="yes"/>
      <point x="244.0" y="453.0"/>
      <point x="211.0" y="442.0"/>
      <point x="183.0" y="425.0" type="curve"/>
      <point x="136.0" y="488.0" type="line"/>
      <point x="63.0" y="431.0" type="line"/>
      <point x="119.0" y="362.0" type="line"/>
      <point x="98.0" y="330.0"/>
      <point x="86.0" y="291.0"/>
      <point x="84.0" y="254.0" type="curve" smooth="yes"/>
      <point x="82.0" y="217.0"/>
      <point x="89.0" y="180.0"/>
      <point x="105.0" y="149.0" type="curve"/>
      <point x="44.0" y="84.0" type="line"/>
    </contour>
    <contour>
      <point x="266.0" y="135.0" type="curve" smooth="yes"/>
      <point x="212.0" y="135.0"/>
      <point x="203.0" y="219.0"/>
      <point x="206.0" y="269.0" type="curve" smooth="yes"/>
      <point x="208.0" y="307.0"/>
      <point x="228.0" y="382.0"/>
      <point x="279.0" y="382.0" type="curve" smooth="yes"/>
      <point x="331.0" y="382.0"/>
      <point x="344.0" y="307.0"/>
      <point x="342.0" y="269.0" type="curve" smooth="yes"/>
      <point x="339.0" y="219.0"/>
      <point x="320.0" y="135.0"/>
    </contour>
  </outline>
</glyph>
<glyph name="brokenbar" format="2">
  <advance width="249"/>
  <unicode hex="00A6"/>
  <outline>
    <contour>
      <point x="203" y="760" type="line"/>
      <point x="93" y="760" type="line"/>
      <point x="75" y="375" type="line"/>
      <point x="179" y="375" type="line"/>
    </contour>
    <contour>
      <point x="169" y="113" type="line"/>
      <point x="59" y="113" type="line"/>
      <point x="42" y="-271" type="line"/>
      <point x="145" y="-271" type="line"/>
    </contour>
  </outline>
</glyph>
<glyph name="logicalnot" format="2">
  <advance width="530"/>
  <unicode hex="00AC"/>
  <outline>
    <contour>
      <point x="397" y="149" type="line"/>
      <point x="485" y="149" type="line"/>
      <point x="496" y="359" type="line"/>
      <point x="47" y="362" type="line"/>
      <point x="41" y="264" type="line"/>
      <point x="401" y="266" type="line"/>
    </contour>
  </outline>
</glyph>
<glyph name="softhyphen" format="2">
  <advance width="473.0"/>
  <unicode hex="00AD"/>
  <outline>
    <contour>
      <point x="424.0" y="370.0" type="line"/>
      <point x="57.0" y="370.0" type="line"/>
      <point x="52.0" y="269.0" type="line"/>
      <point x="418.0" y="272.0" type="line"/>
    </contour>
  </outline>
</glyph>
<glyph name="macron" format="2">
  <advance width="378"/>
  <unicode hex="00AF"/>
  <anchor x="189" y="500" name="_top"/>
  <outline>
    <contour>
      <point x="45" y="629" type="line"/>
      <point x="329" y="632" type="line"/>
      <point x="333" y="722" type="line"/>
      <point x="49" y="722" type="line"/>
    </contour>
  </outline>
</glyph>
<glyph name="threesuperior" format="2">
  <advance width="365.0"/>
  <unicode hex="00B3"/>
  <outline>
    <contour>
      <point x="171.0" y="292.0" type="curve" smooth="yes"/>
      <point x="282.0" y="292.0"/>
      <point x="340.0" y="350.0"/>
      <point x="341.0" y="423.0" type="curve" smooth="yes"/>
      <point x="341.0" y="473.0"/>
      <point x="314.0" y="510.0"/>
      <point x="251.0" y="522.0" type="curve"/>
      <point x="291.0" y="533.0"/>
      <point x="329.0" y="571.0"/>
      <point x="331.0" y="611.0" type="curve" smooth="yes"/>
      <point x="335.0" y="682.0"/>
      <point x="278.0" y="716.0"/>
      <point x="202.0" y="716.0" type="curve" smooth="yes"/>
      <point x="108.0" y="716.0"/>
      <point x="63.0" y="661.0"/>
      <point x="62.0" y="623.0" type="curve" smooth="yes"/>
      <point x="60.0" y="593.0"/>
      <point x="78.0" y="573.0"/>
      <point x="108.0" y="572.0" type="curve" smooth="yes"/>
      <point x="145.0" y="571.0"/>
      <point x="158.0" y="602.0"/>
      <point x="159.0" y="619.0" type="curve" smooth="yes"/>
      <point x="160.0" y="626.0"/>
      <point x="157.0" y="643.0"/>
      <point x="147.0" y="652.0" type="curve"/>
      <point x="152.0" y="656.0"/>
      <point x="165.0" y="664.0"/>
      <point x="183.0" y="664.0" type="curve" smooth="yes"/>
      <point x="216.0" y="664.0"/>
      <point x="237.0" y="641.0"/>
      <point x="235.0" y="605.0" type="curve" smooth="yes"/>
      <point x="234.0" y="575.0"/>
      <point x="213.0" y="536.0"/>
      <point x="163.0" y="536.0" type="curve" smooth="yes"/>
      <point x="152.0" y="536.0"/>
      <point x="140.0" y="537.0"/>
      <point x="128.0" y="538.0" type="curve"/>
      <point x="125.0" y="484.0" type="line"/>
      <point x="133.0" y="484.0"/>
      <point x="149.0" y="485.0"/>
      <point x="159.0" y="485.0" type="curve" smooth="yes"/>
      <point x="212.0" y="485.0"/>
      <point x="242.0" y="455.0"/>
      <point x="240.0" y="413.0" type="curve" smooth="yes"/>
      <point x="237.0" y="374.0"/>
      <point x="210.0" y="344.0"/>
      <point x="169.0" y="344.0" type="curve" smooth="yes"/>
      <point x="158.0" y="344.0"/>
      <point x="135.0" y="348.0"/>
      <point x="126.0" y="361.0" type="curve"/>
      <point x="137.0" y="370.0"/>
      <point x="142.0" y="389.0"/>
      <point x="142.0" y="396.0" type="curve" smooth="yes"/>
      <point x="143.0" y="420.0"/>
      <point x="133.0" y="447.0"/>
      <point x="96.0" y="446.0" type="curve" smooth="yes"/>
      <point x="66.0" y="445.0"/>
      <point x="45.0" y="418.0"/>
      <point x="43.0" y="389.0" type="curve" smooth="yes"/>
      <point x="41.0" y="340.0"/>
      <point x="88.0" y="292.0"/>
    </contour>
  </outline>
</glyph>
<glyph name="paragraph" format="2">
  <advance width="557"/>
  <unicode hex="00B6"/>
  <outline>
    <contour>
      <point x="129" y="-255" type="line"/>
      <point x="240" y="-255" type="line"/>
      <point x="288" y="630" type="line"/>
      <point x="382" y="631" type="line"/>
      <point x="334" y="-255" type="line"/>
      <point x="444" y="-255" type="line"/>
      <point x="496" y="700" type="line"/>
      <point x="207" y="700" type="line" smooth="yes"/>
      <point x="130" y="700"/>
      <point x="52" y="652"/>
      <point x="46" y="549" type="curve" smooth="yes"/>
      <point x="41" y="450"/>
      <point x="102" y="413"/>
      <point x="166" y="401" type="curve"/>
    </contour>
  </outline>
</glyph>
<glyph name="cedilla" format="2">
  <advance width="330"/>
  <unicode hex="00B8"/>
  <anchor x="165" y="0" name="_bottom"/>
  <outline>
    <contour>
      <point x="50" y="-259" type="line"/>
      <point x="127" y="-248"/>
      <point x="279" y="-216"/>
      <point x="284" y="-123" type="curve" smooth="yes"/>
      <point x="287" y="-75"/>
      <point x="256" y="-54"/>
      <point x="215" y="-53" type="curve" smooth="yes"/>
      <point x="197" y="-53"/>
      <point x="163" y="-60"/>
      <point x="145" y="-69" type="curve"/>
      <point x="178" y="10" type="line"/>
      <point x="102" y="10" type="line"/>
      <point x="64" y="-117" type="line"/>
      <point x="101" y="-133" type="line"/>
      <point x="121" y="-117"/>
      <point x="172" y="-109"/>
      <point x="170" y="-144" type="curve" smooth="yes"/>
      <point x="168" y="-185"/>
      <point x="77" y="-201"/>
      <point x="45" y="-207" type="curve"/>
    </contour>
  </outline>
</glyph>
<glyph name="onesuperior" format="2">
  <advance width="276.0"/>
  <unicode hex="00B9"/>
  <outline>
    <contour>
      <point x="68.0" y="301.0" type="line"/>
      <point x="243.0" y="301.0" type="line"/>
      <point x="246.0" y="345.0" type="line"/>
      <point x="237.0" y="345.0"/>
      <point x="215.0" y="345.0"/>
      <point x="203.0" y="344.0" type="curve"/>
      <point x="204.0" y="354.0"/>
      <point x="206.0" y="375.0"/>
      <point x="207.0" y="395.0" type="curve" smooth="yes"/>
      <point x="224.0" y="716.0" type="line"/>
      <point x="189.0" y="716.0" type="line"/>
      <point x="41.0" y="621.0" type="line"/>
      <point x="59.0" y="582.0" type="line"/>
      <point x="125.0" y="619.0" type="line"/>
      <point x="113.0" y="389.0" type="line" smooth="yes"/>
      <point x="110.0" y="343.0"/>
      <point x="95.0" y="340.0"/>
      <point x="70.0" y="339.0" type="curve"/>
    </contour>
  </outline>
</glyph>
<glyph name="ordmasculine" format="2">
  <advance width="368.0"/>
  <unicode hex="00BA"/>
  <outline>
    <contour>
      <point x="217.0" y="716.0" type="curve" smooth="yes"/>
      <point x="114.0" y="716.0"/>
      <point x="47.0" y="625.0"/>
      <point x="47.0" y="520.0" type="curve" smooth="yes"/>
      <point x="47.0" y="436.0"/>
      <point x="93.0" y="364.0"/>
      <point x="185.0" y="364.0" type="curve" smooth="yes"/>
      <point x="289.0" y="364.0"/>
      <point x="354.0" y="461.0"/>
      <point x="354.0" y="564.0" type="curve" smooth="yes"/>
      <point x="354.0" y="660.0"/>
      <point x="292.0" y="716.0"/>
    </contour>
    <contour>
      <point x="209.0" y="666.0" type="curve" smooth="yes"/>
      <point x="238.0" y="666.0"/>
      <point x="249.0" y="623.0"/>
      <point x="249.0" y="550.0" type="curve" smooth="yes"/>
      <point x="249.0" y="478.0"/>
      <point x="230.0" y="417.0"/>
      <point x="193.0" y="417.0" type="curve" smooth="yes"/>
      <point x="164.0" y="417.0"/>
      <point x="152.0" y="462.0"/>
      <point x="152.0" y="530.0" type="curve" smooth="yes"/>
      <point x="152.0" y="610.0"/>
      <point x="175.0" y="666.0"/>
    </contour>
  </outline>
</glyph>
<glyph name="guillemetright" format="2">
  <advance width="490.0"/>
  <unicode hex="00BB"/>
  <outline>
    <contour>
      <point x="218.0" y="554.0" type="line"/>
      <point x="174.0" y="513.0" type="line"/>
      <point x="347.0" y="275.0" type="line"/>
      <point x="347.0" y="274.0" type="line"/>
      <point x="146.0" y="27.0" type="line"/>
      <point x="186.0" y="-17.0" type="line"/>
      <point x="467.0" y="261.0" type="line"/>
      <point x="468.0" y="285.0" type="line"/>
    </contour>
    <contour>
      <point x="89.0" y="476.0" type="line"/>
      <point x="46.0" y="442.0" type="line"/>
      <point x="138.0" y="268.0" type="line"/>
      <point x="138.0" y="267.0" type="line"/>
      <point x="26.0" y="93.0" type="line"/>
      <point x="66.0" y="60.0" type="line"/>
      <point x="248.0" y="259.0" type="line"/>
      <point x="249.0" y="282.0" type="line"/>
    </contour>
  </outline>
</glyph>
<glyph name="AE" format="2">
  <advance width="931.0"/>
  <unicode hex="00C6"/>
  <outline>
    <contour>
      <point x="-24.0" y="0.0" type="line"/>
      <point x="200.0" y="0.0" type="line"/>
      <point x="204.0" y="77.0" type="line"/>
      <point x="124.0" y="74.0" type="line"/>
      <point x="124.0" y="75.0" type="line"/>
      <point x="146.0" y="91.0"/>
      <point x="168.0" y="120.0"/>
      <point x="191.0" y="151.0" type="curve" smooth="yes"/>
      <point x="229.0" y="202.0" type="line"/>
      <point x="292.0" y="203.0"/>
      <point x="363.0" y="206.0"/>
      <point x="424.0" y="207.0" type="curve"/>
      <point x="422.0" y="153.0" type="line" smooth="yes"/>
      <point x="418.0" y="72.0"/>
      <point x="391.0" y="68.0"/>
      <point x="346.0" y="66.0" type="curve"/>
      <point x="343.0" y="0.0" type="line"/>
      <point x="868.0" y="0.0" type="line"/>
      <point x="886.0" y="220.0" type="line"/>
      <point x="820.0" y="220.0" type="line"/>
      <point x="814.0" y="112.0"/>
      <point x="750.0" y="76.0"/>
      <point x="690.0" y="76.0" type="curve" smooth="yes"/>
      <point x="556.0" y="76.0" type="line"/>
      <point x="560.0" y="93.0"/>
      <point x="563.0" y="128.0"/>
      <point x="565.0" y="164.0" type="curve" smooth="yes"/>
      <point x="573.0" y="328.0" type="line"/>
      <point x="582.0" y="328.0"/>
      <point x="591.0" y="329.0"/>
      <point x="600.0" y="329.0" type="curve" smooth="yes"/>
      <point x="654.0" y="330.0"/>
      <point x="698.0" y="325.0"/>
      <point x="693.0" y="241.0" type="curve"/>
      <point x="759.0" y="241.0" type="line"/>
      <point x="772.0" y="484.0" type="line"/>
      <point x="695.0" y="484.0" type="line"/>
      <point x="695.0" y="459.0"/>
      <point x="694.0" y="425.0"/>
      <point x="695.0" y="397.0" type="curve"/>
      <point x="577.0" y="397.0" type="line"/>
      <point x="585.0" y="547.0" type="line" smooth="yes"/>
      <point x="589.0" y="625.0"/>
      <point x="614.0" y="633.0"/>
      <point x="656.0" y="634.0" type="curve" smooth="yes"/>
      <point x="692.0" y="635.0" type="line" smooth="yes"/>
      <point x="747.0" y="637.0"/>
      <point x="813.0" y="615.0"/>
      <point x="807.0" y="506.0" type="curve"/>
      <point x="873.0" y="506.0" type="line"/>
      <point x="877.0" y="700.0" type="line"/>
      <point x="379.0" y="700.0" type="line"/>
      <point x="375.0" y="623.0" type="line"/>
      <point x="390.0" y="624.0"/>
      <point x="429.0" y="625.0"/>
      <point x="451.0" y="625.0" type="curve"/>
      <point x="104.0" y="171.0" type="line" smooth="yes"/>
      <point x="68.0" y="124.0"/>
      <point x="26.0" y="66.0"/>
      <point x="-21.0" y="66.0" type="curve"/>
    </contour>
    <contour>
      <point x="281.0" y="276.0" type="line"/>
      <point x="368.0" y="392.0" type="line" smooth="yes"/>
      <point x="411.0" y="449.0"/>
      <point x="419.0" y="460.0"/>
      <point x="444.0" y="501.0" type="curve"/>
      <point x="445.0" y="501.0" type="line"/>
      <point x="428.0" y="276.0" type="line"/>
    </contour>
  </outline>
</glyph>
<glyph name="Eth" format="2">
  <advance width="756"/>
  <unicode hex="00D0"/>
  <outline>
    <contour>
      <point x="36" y="0" type="line"/>
      <point x="320" y="0" type="line" smooth="yes"/>
      <point x="600" y="0"/>
      <point x="715" y="194"/>
      <point x="724" y="357" type="curve" smooth="yes"/>
      <point x="732" y="523"/>
      <point x="625" y="702"/>
      <point x="362" y="701" type="curve" smooth="yes"/>
      <point x="73" y="700" type="line"/>
      <point x="69" y="623" type="line"/>
      <point x="83" y="624"/>
      <point x="123" y="625"/>
      <point x="144" y="626" type="curve"/>
      <point x="141" y="609"/>
      <point x="137" y="572"/>
      <point x="135" y="536" type="curve" smooth="yes"/>
      <point x="128" y="400" type="line"/>
      <point x="29" y="400" type="line"/>
      <point x="24" y="302" type="line"/>
      <point x="123" y="304" type="line"/>
      <point x="115" y="153" type="line" smooth="yes"/>
      <point x="111" y="72"/>
      <point x="84" y="68"/>
      <point x="40" y="66" type="curve"/>
    </contour>
    <contour>
      <point x="345" y="73" type="curve" smooth="yes"/>
      <point x="321" y="73"/>
      <point x="269" y="76"/>
      <point x="250" y="74" type="curve"/>
      <point x="253" y="91"/>
      <point x="256" y="128"/>
      <point x="258" y="164" type="curve"/>
      <point x="265" y="307" type="line"/>
      <point x="367" y="309" type="line"/>
      <point x="372" y="400" type="line"/>
      <point x="270" y="400" type="line"/>
      <point x="278" y="549" type="line" smooth="yes"/>
      <point x="282" y="626"/>
      <point x="307" y="636"/>
      <point x="356" y="634" type="curve" smooth="yes"/>
      <point x="495" y="630"/>
      <point x="578" y="540"/>
      <point x="567" y="336" type="curve" smooth="yes"/>
      <point x="561" y="203"/>
      <point x="491" y="73"/>
    </contour>
  </outline>
</glyph>
<glyph name="Thorn" format="2">
  <advance width="630.0"/>
  <unicode hex="00DE"/>
  <outline>
    <contour>
      <point x="35.0" y="0.0" type="line"/>
      <point x="320.0" y="0.0" type="line"/>
      <point x="324.0" y="77.0" type="line"/>
      <point x="310.0" y="77.0"/>
      <point x="270.0" y="76.0"/>
      <point x="249.0" y="74.0" type="curve"/>
      <point x="251.0" y="89.0"/>
      <point x="254.0" y="120.0"/>
      <point x="256.0" y="152.0" type="curve"/>
      <point x="276.0" y="151.0"/>
      <point x="293.0" y="151.0"/>
      <point x="321.0" y="152.0" type="curve" smooth="yes"/>
      <point x="510.0" y="157.0"/>
      <point x="609.0" y="252.0"/>
      <point x="618.0" y="359.0" type="curve" smooth="yes"/>
      <point x="630.0" y="518.0"/>
      <point x="514.0" y="573.0"/>
      <point x="339.0" y="571.0" type="curve" smooth="yes"/>
      <point x="319.0" y="571.0"/>
      <point x="299.0" y="570.0"/>
      <point x="279.0" y="570.0" type="curve"/>
      <point x="287.0" y="628.0"/>
      <point x="313.0" y="632.0"/>
      <point x="353.0" y="634.0" type="curve"/>
      <point x="356.0" y="700.0" type="line"/>
      <point x="72.0" y="700.0" type="line"/>
      <point x="68.0" y="623.0" type="line"/>
      <point x="82.0" y="624.0"/>
      <point x="122.0" y="625.0"/>
      <point x="143.0" y="626.0" type="curve"/>
      <point x="140.0" y="609.0"/>
      <point x="136.0" y="572.0"/>
      <point x="134.0" y="536.0" type="curve" smooth="yes"/>
      <point x="114.0" y="153.0" type="line" smooth="yes"/>
      <point x="110.0" y="72.0"/>
      <point x="83.0" y="68.0"/>
      <point x="39.0" y="66.0" type="curve"/>
    </contour>
    <contour>
      <point x="260.0" y="225.0" type="curve"/>
      <point x="275.0" y="500.0" type="line"/>
      <point x="291.0" y="500.0"/>
      <point x="310.0" y="500.0"/>
      <point x="333.0" y="500.0" type="curve" smooth="yes"/>
      <point x="375.0" y="500.0"/>
      <point x="471.0" y="497.0"/>
      <point x="464.0" y="368.0" type="curve" smooth="yes"/>
      <point x="459.0" y="271.0"/>
      <point x="407.0" y="223.0"/>
      <point x="297.0" y="223.0" type="curve" smooth="yes"/>
      <point x="284.0" y="223.0"/>
      <point x="272.0" y="224.0"/>
    </contour>
  </outline>
</glyph>
<glyph name="germandbls" format="2">
  <advance width="671.0"/>
  <unicode hex="00DF"/>
  <outline>
    <contour>
      <point x="-20.0" y="-271.0" type="curve" smooth="yes"/>
      <point x="116.0" y="-271.0"/>
      <point x="179.0" y="-166.0"/>
      <point x="197.0" y="-11.0" type="curve"/>
      <point x="210.0" y="144.0"/>
      <point x="222.0" y="300.0"/>
      <point x="235.0" y="455.0" type="curve" smooth="yes"/>
      <point x="244.0" y="558.0"/>
      <point x="269.0" y="688.0"/>
      <point x="395.0" y="688.0" type="curve" smooth="yes"/>
      <point x="437.0" y="688.0"/>
      <point x="486.0" y="674.0"/>
      <point x="491.0" y="612.0" type="curve" smooth="yes"/>
      <point x="494.0" y="576.0"/>
      <point x="476.0" y="549.0"/>
      <point x="451.0" y="525.0" type="curve" smooth="yes"/>
      <point x="396.0" y="473.0"/>
      <point x="304.0" y="434.0"/>
      <point x="304.0" y="347.0" type="curve" smooth="yes"/>
      <point x="304.0" y="298.0"/>
      <point x="338.0" y="260.0"/>
      <point x="430.0" y="208.0" type="curve" smooth="yes"/>
      <point x="482.0" y="178.0"/>
      <point x="526.0" y="154.0"/>
      <point x="526.0" y="117.0" type="curve" smooth="yes"/>
      <point x="526.0" y="85.0"/>
      <point x="510.0" y="55.0"/>
      <point x="452.0" y="55.0" type="curve" smooth="yes"/>
      <point x="432.0" y="55.0"/>
      <point x="401.0" y="69.0"/>
      <point x="394.0" y="83.0" type="curve"/>
      <point x="398.0" y="93.0"/>
      <point x="400.0" y="103.0"/>
      <point x="400.0" y="113.0" type="curve" smooth="yes"/>
      <point x="400.0" y="147.0"/>
      <point x="375.0" y="175.0"/>
      <point x="339.0" y="175.0" type="curve" smooth="yes"/>
      <point x="303.0" y="175.0"/>
      <point x="275.0" y="146.0"/>
      <point x="275.0" y="105.0" type="curve" smooth="yes"/>
      <point x="275.0" y="34.0"/>
      <point x="353.0" y="-11.0"/>
      <point x="449.0" y="-11.0" type="curve" smooth="yes"/>
      <point x="564.0" y="-11.0"/>
      <point x="648.0" y="53.0"/>
      <point x="648.0" y="143.0" type="curve" smooth="yes"/>
      <point x="648.0" y="226.0"/>
      <point x="570.0" y="269.0"/>
      <point x="504.0" y="307.0" type="curve" smooth="yes"/>
      <point x="423.0" y="354.0"/>
      <point x="424.0" y="369.0"/>
      <point x="424.0" y="393.0" type="curve" smooth="yes"/>
      <point x="424.0" y="426.0"/>
      <point x="468.0" y="451.0"/>
      <point x="512.0" y="483.0" type="curve" smooth="yes"/>
      <point x="557.0" y="516.0"/>
      <point x="602.0" y="555.0"/>
      <point x="602.0" y="618.0" type="curve" smooth="yes"/>
      <point x="602.0" y="738.0"/>
      <point x="468.0" y="760.0"/>
      <point x="381.0" y="760.0" type="curve" smooth="yes"/>
      <point x="265.0" y="760.0"/>
      <point x="136.0" y="705.0"/>
      <point x="113.0" y="500.0" type="curve"/>
      <point x="33.0" y="500.0" type="line"/>
      <point x="24.0" y="427.0" type="line"/>
      <point x="104.0" y="428.0" type="line"/>
      <point x="95.0" y="317.0"/>
      <point x="81.0" y="103.0"/>
      <point x="71.0" y="-11.0" type="curve" smooth="yes"/>
      <point x="64.0" y="-89.0"/>
      <point x="54.0" y="-200.0"/>
      <point x="9.0" y="-200.0" type="curve" smooth="yes"/>
      <point x="3.0" y="-200.0"/>
      <point x="-1.0" y="-199.0"/>
      <point x="-4.0" y="-198.0" type="curve"/>
      <point x="1.0" y="-163.0"/>
      <point x="-23.0" y="-137.0"/>
      <point x="-53.0" y="-136.0" type="curve" smooth="yes"/>
      <point x="-98.0" y="-135.0"/>
      <point x="-115.0" y="-176.0"/>
      <point x="-115.0" y="-199.0" type="curve" smooth="yes"/>
      <point x="-115.0" y="-243.0"/>
      <point x="-81.0" y="-271.0"/>
    </contour>
  </outline>
</glyph>
<glyph name="oslash" format="2">
  <advance width="515.0"/>
  <unicode hex="00F8"/>
  <anchor x="271.0" y="500.0" name="top"/>
  <outline>
    <contour>
      <point x="435.0" y="570.0" type="line"/>
      <point x="376.0" y="487.0" type="line"/>
      <point x="348.0" y="503.0"/>
      <point x="314.0" y="511.0"/>
      <point x="279.0" y="511.0" type="curve" smooth="yes"/>
      <point x="125.0" y="511.0"/>
      <point x="28.0" y="376.0"/>
      <point x="28.0" y="216.0" type="curve" smooth="yes"/>
      <point x="28.0" y="154.0"/>
      <point x="44.0" y="98.0"/>
      <point x="77.0" y="57.0" type="curve"/>
      <point x="13.0" y="-33.0" type="line"/>
      <point x="66.0" y="-77.0" type="line"/>
      <point x="131.0" y="12.0" type="line"/>
      <point x="158.0" y="-3.0"/>
      <point x="191.0" y="-11.0"/>
      <point x="229.0" y="-11.0" type="curve" smooth="yes"/>
      <point x="385.0" y="-11.0"/>
      <point x="480.0" y="129.0"/>
      <point x="480.0" y="288.0" type="curve" smooth="yes"/>
      <point x="480.0" y="349.0"/>
      <point x="464.0" y="398.0"/>
      <point x="436.0" y="436.0" type="curve"/>
      <point x="499.0" y="521.0" type="line"/>
    </contour>
    <contour>
      <point x="351.0" y="326.0" type="line"/>
      <point x="354.0" y="303.0"/>
      <point x="355.0" y="279.0"/>
      <point x="355.0" y="259.0" type="curve" smooth="yes"/>
      <point x="353.0" y="177.0"/>
      <point x="323.0" y="55.0"/>
      <point x="247.0" y="55.0" type="curve" smooth="yes"/>
      <point x="220.0" y="55.0"/>
      <point x="200.0" y="71.0"/>
      <point x="185.0" y="95.0" type="curve"/>
    </contour>
    <contour>
      <point x="264.0" y="445.0" type="curve" smooth="yes"/>
      <point x="292.0" y="445.0"/>
      <point x="312.0" y="429.0"/>
      <point x="326.0" y="405.0" type="curve"/>
      <point x="159.0" y="165.0" type="line"/>
      <point x="154.0" y="191.0"/>
      <point x="151.0" y="219.0"/>
      <point x="151.0" y="244.0" type="curve" smooth="yes"/>
      <point x="151.0" y="354.0"/>
      <point x="197.0" y="445.0"/>
    </contour>
  </outline>
</glyph>
<glyph name="dcroat" format="2">
  <advance width="564"/>
  <unicode hex="0111"/>
  <anchor x="282" y="250" name="center"/>
  <anchor x="554" y="500" name="topright"/>
  <outline>
    <contour>
      <point x="564" y="618" type="line"/>
      <point x="197" y="618" type="line"/>
      <point x="192" y="546" type="line"/>
      <point x="560" y="550" type="line"/>
    </contour>
    <component base="d"/>
  </outline>
</glyph>
<glyph name="Hbar" format="2">
  <advance width="807"/>
  <unicode hex="0126"/>
  <anchor x="387" y="0" name="bottom"/>
  <anchor x="401" y="350" name="center"/>
  <anchor x="429" y="700" name="top"/>
  <outline>
    <contour>
      <point x="757" y="538" type="line"/>
      <point x="52" y="538" type="line"/>
      <point x="50" y="485" type="line"/>
      <point x="755" y="489" type="line"/>
    </contour>
    <component base="H"/>
  </outline>
</glyph>
<glyph name="hbar" format="2">
  <advance width="574"/>
  <unicode hex="0127"/>
  <anchor x="258" y="0" name="bottom"/>
  <anchor x="287" y="250" name="center"/>
  <anchor x="175" y="705" name="top"/>
  <outline>
    <contour>
      <point x="358" y="608" type="line"/>
      <point x="23" y="608" type="line"/>
      <point x="21" y="555" type="line"/>
      <point x="356" y="559" type="line"/>
    </contour>
    <component base="h"/>
  </outline>
</glyph>
<glyph name="jcircumflex" format="2">
  <advance width="325.0"/>
  <unicode hex="0135"/>
  <outline>
    <contour>
      <point x="157.0" y="511.0" type="curve" smooth="yes"/>
      <point x="66.0" y="511.0"/>
      <point x="19.0" y="412.0"/>
      <point x="7.0" y="355.0" type="curve"/>
      <point x="62.0" y="339.0" type="line"/>
      <point x="79.0" y="399.0"/>
      <point x="95.0" y="418.0"/>
      <point x="110.0" y="418.0" type="curve" smooth="yes"/>
      <point x="117.0" y="418.0"/>
      <point x="125.0" y="414.0"/>
      <point x="125.0" y="392.0" type="curve" smooth="yes"/>
      <point x="125.0" y="330.0"/>
      <point x="121.0" y="233.0"/>
      <point x="115.0" y="145.0" type="curve" smooth="yes"/>
      <point x="109.0" y="71.0"/>
      <point x="87.0" y="-204.0"/>
      <point x="19.0" y="-205.0" type="curve" smooth="yes"/>
      <point x="13.0" y="-205.0"/>
      <point x="6.0" y="-204.0"/>
      <point x="4.0" y="-203.0" type="curve"/>
      <point x="12.0" y="-162.0"/>
      <point x="-16.0" y="-135.0"/>
      <point x="-45.0" y="-134.0" type="curve" smooth="yes"/>
      <point x="-92.0" y="-132.0"/>
      <point x="-108.0" y="-174.0"/>
      <point x="-108.0" y="-197.0" type="curve" smooth="yes"/>
      <point x="-108.0" y="-241.0"/>
      <point x="-71.0" y="-271.0"/>
      <point x="-10.0" y="-271.0" type="curve" smooth="yes"/>
      <point x="183.0" y="-271.0"/>
      <point x="227.0" y="-42.0"/>
      <point x="243.0" y="134.0" type="curve" smooth="yes"/>
      <point x="251.0" y="226.0"/>
      <point x="255.0" y="327.0"/>
      <point x="254.0" y="395.0" type="curve" smooth="yes"/>
      <point x="253.0" y="466.0"/>
      <point x="226.0" y="511.0"/>
    </contour>
    <contour>
      <point x="200.0" y="783.0" type="line"/>
      <point x="190.0" y="783.0" type="line"/>
      <point x="21.0" y="618.0" type="line"/>
      <point x="56.0" y="571.0" type="line"/>
      <point x="179.0" y="671.0" type="line"/>
      <point x="180.0" y="671.0" type="line"/>
      <point x="293.0" y="567.0" type="line"/>
      <point x="337.0" y="613.0" type="line"/>
    </contour>
  </outline>
</glyph>
<glyph name="lslash" format="2">
  <advance width="325.0"/>
  <unicode hex="0142"/>
  <outline>
    <contour>
      <point x="264.0" y="755.0" type="curve"/>
      <point x="210.0" y="755.0" type="line"/>
      <point x="195.0" y="742.0"/>
      <point x="151.0" y="725.0"/>
      <point x="59.0" y="725.0" type="curve"/>
      <point x="55.0" y="649.0" type="line"/>
      <point x="69.0" y="650.0"/>
      <point x="104.0" y="651.0"/>
      <point x="125.0" y="652.0" type="curve"/>
      <point x="120.0" y="623.0"/>
      <point x="115.0" y="585.0"/>
      <point x="112.0" y="559.0" type="curve" smooth="yes"/>
      <point x="104.0" y="489.0"/>
      <point x="95.0" y="417.0"/>
      <point x="87.0" y="348.0" type="curve"/>
      <point x="9.0" y="294.0" type="line"/>
      <point x="3.0" y="185.0" type="line"/>
      <point x="77.0" y="235.0" type="line"/>
      <point x="72.0" y="180.0"/>
      <point x="70.0" y="128.0"/>
      <point x="70.0" y="85.0" type="curve" smooth="yes"/>
      <point x="70.0" y="15.0"/>
      <point x="112.0" y="-11.0"/>
      <point x="160.0" y="-11.0" type="curve" smooth="yes"/>
      <point x="256.0" y="-11.0"/>
      <point x="297.0" y="78.0"/>
      <point x="314.0" y="145.0" type="curve"/>
      <point x="260.0" y="161.0" type="line"/>
      <point x="243.0" y="101.0"/>
      <point x="227.0" y="82.0"/>
      <point x="211.0" y="82.0" type="curve" smooth="yes"/>
      <point x="204.0" y="82.0"/>
      <point x="197.0" y="87.0"/>
      <point x="197.0" y="111.0" type="curve" smooth="yes"/>
      <point x="197.0" y="146.0"/>
      <point x="202.0" y="203.0"/>
      <point x="216.0" y="331.0" type="curve"/>
      <point x="292.0" y="384.0" type="line"/>
      <point x="298.0" y="491.0" type="line"/>
      <point x="229.0" y="443.0" type="line"/>
      <point x="241.0" y="547.0"/>
      <point x="252.0" y="651.0"/>
    </contour>
  </outline>
</glyph>
<glyph name="eng" format="2">
  <advance width="616.0"/>
  <unicode hex="014B"/>
  <outline>
    <contour>
      <point x="263.0" y="-257.0" type="curve" smooth="yes"/>
      <point x="423.0" y="-257.0"/>
      <point x="502.0" y="-122.0"/>
      <point x="535.0" y="106.0" type="curve" smooth="yes"/>
      <point x="544.0" y="178.0"/>
      <point x="556.0" y="252.0"/>
      <point x="556.0" y="307.0" type="curve" smooth="yes"/>
      <point x="556.0" y="424.0"/>
      <point x="518.0" y="511.0"/>
      <point x="402.0" y="511.0" type="curve" smooth="yes"/>
      <point x="344.0" y="511.0"/>
      <point x="268.0" y="480.0"/>
      <point x="221.0" y="360.0" type="curve"/>
      <point x="220.0" y="360.0" type="line"/>
      <point x="223.0" y="383.0"/>
      <point x="226.0" y="394.0"/>
      <point x="226.0" y="420.0" type="curve" smooth="yes"/>
      <point x="226.0" y="491.0"/>
      <point x="185.0" y="511.0"/>
      <point x="142.0" y="511.0" type="curve" smooth="yes"/>
      <point x="55.0" y="511.0"/>
      <point x="20.0" y="412.0"/>
      <point x="8.0" y="355.0" type="curve"/>
      <point x="63.0" y="339.0" type="line"/>
      <point x="80.0" y="399.0"/>
      <point x="96.0" y="418.0"/>
      <point x="111.0" y="418.0" type="curve" smooth="yes"/>
      <point x="118.0" y="418.0"/>
      <point x="125.0" y="414.0"/>
      <point x="125.0" y="392.0" type="curve" smooth="yes"/>
      <point x="125.0" y="367.0"/>
      <point x="116.0" y="300.0"/>
      <point x="106.0" y="230.0" type="curve" smooth="yes"/>
      <point x="98.0" y="162.0"/>
      <point x="89.0" y="90.0"/>
      <point x="89.0" y="48.0" type="curve" smooth="yes"/>
      <point x="89.0" y="35.0"/>
      <point x="89.0" y="28.0"/>
      <point x="92.0" y="0.0" type="curve"/>
      <point x="221.0" y="0.0" type="line"/>
      <point x="220.0" y="16.0"/>
      <point x="218.0" y="54.0"/>
      <point x="218.0" y="72.0" type="curve" smooth="yes"/>
      <point x="218.0" y="212.0"/>
      <point x="295.0" y="419.0"/>
      <point x="376.0" y="419.0" type="curve" smooth="yes"/>
      <point x="423.0" y="419.0"/>
      <point x="428.0" y="380.0"/>
      <point x="428.0" y="327.0" type="curve" smooth="yes"/>
      <point x="428.0" y="281.0"/>
      <point x="418.0" y="200.0"/>
      <point x="408.0" y="106.0" type="curve" smooth="yes"/>
      <point x="386.0" y="-82.0"/>
      <point x="328.0" y="-194.0"/>
      <point x="261.0" y="-194.0" type="curve" smooth="yes"/>
      <point x="244.0" y="-194.0"/>
      <point x="229.0" y="-186.0"/>
      <point x="221.0" y="-177.0" type="curve"/>
      <point x="227.0" y="-168.0"/>
      <point x="230.0" y="-153.0"/>
      <point x="230.0" y="-144.0" type="curve" smooth="yes"/>
      <point x="230.0" y="-106.0"/>
      <point x="203.0" y="-81.0"/>
      <point x="167.0" y="-81.0" type="curve" smooth="yes"/>
      <point x="120.0" y="-81.0"/>
      <point x="100.0" y="-125.0"/>
      <point x="100.0" y="-154.0" type="curve" smooth="yes"/>
      <point x="100.0" y="-221.0"/>
      <point x="164.0" y="-257.0"/>
    </contour>
  </outline>
</glyph>
<glyph name="OE" format="2">
  <advance width="1015.0"/>
  <unicode hex="0152"/>
  <outline>
    <contour>
      <point x="362.0" y="-16.0" type="curve" smooth="yes"/>
      <point x="406.0" y="-17.0"/>
      <point x="458.0" y="-14.0"/>
      <point x="507.0" y="0.0" type="curve"/>
      <point x="952.0" y="0.0" type="line"/>
      <point x="970.0" y="220.0" type="line"/>
      <point x="904.0" y="220.0" type="line"/>
      <point x="898.0" y="112.0"/>
      <point x="833.0" y="76.0"/>
      <point x="774.0" y="76.0" type="curve" smooth="yes"/>
      <point x="640.0" y="76.0" type="line"/>
      <point x="644.0" y="93.0"/>
      <point x="647.0" y="128.0"/>
      <point x="649.0" y="164.0" type="curve" smooth="yes"/>
      <point x="657.0" y="328.0" type="line"/>
      <point x="666.0" y="328.0"/>
      <point x="675.0" y="329.0"/>
      <point x="684.0" y="329.0" type="curve" smooth="yes"/>
      <point x="738.0" y="330.0"/>
      <point x="782.0" y="325.0"/>
      <point x="777.0" y="241.0" type="curve"/>
      <point x="843.0" y="241.0" type="line"/>
      <point x="856.0" y="484.0" type="line"/>
      <point x="779.0" y="484.0" type="line"/>
      <point x="779.0" y="459.0"/>
      <point x="778.0" y="425.0"/>
      <point x="779.0" y="397.0" type="curve"/>
      <point x="661.0" y="397.0" type="line"/>
      <point x="669.0" y="547.0" type="line" smooth="yes"/>
      <point x="673.0" y="625.0"/>
      <point x="698.0" y="633.0"/>
      <point x="740.0" y="634.0" type="curve" smooth="yes"/>
      <point x="776.0" y="635.0" type="line" smooth="yes"/>
      <point x="831.0" y="637.0"/>
      <point x="897.0" y="615.0"/>
      <point x="891.0" y="506.0" type="curve"/>
      <point x="957.0" y="506.0" type="line"/>
      <point x="961.0" y="700.0" type="line"/>
      <point x="543.0" y="700.0" type="line"/>
      <point x="502.0" y="711.0"/>
      <point x="448.0" y="716.0"/>
      <point x="416.0" y="716.0" type="curve" smooth="yes"/>
      <point x="161.0" y="716.0"/>
      <point x="48.0" y="520.0"/>
      <point x="39.0" y="337.0" type="curve" smooth="yes"/>
      <point x="28.0" y="139.0"/>
      <point x="157.0" y="-13.0"/>
    </contour>
    <contour>
      <point x="391.0" y="64.0" type="curve" smooth="yes"/>
      <point x="257.0" y="75.0"/>
      <point x="185.0" y="192.0"/>
      <point x="194.0" y="365.0" type="curve" smooth="yes"/>
      <point x="201.0" y="509.0"/>
      <point x="266.0" y="638.0"/>
      <point x="411.0" y="644.0" type="curve" smooth="yes"/>
      <point x="457.0" y="646.0"/>
      <point x="500.0" y="636.0"/>
      <point x="533.0" y="615.0" type="curve"/>
      <point x="530.0" y="596.0"/>
      <point x="527.0" y="566.0"/>
      <point x="526.0" y="536.0" type="curve" smooth="yes"/>
      <point x="502.0" y="78.0" type="line"/>
      <point x="468.0" y="66.0"/>
      <point x="433.0" y="61.0"/>
    </contour>
  </outline>
</glyph>
<glyph name="oe" format="2">
  <advance width="784"/>
  <unicode hex="0153"/>
  <outline>
    <contour>
      <point x="593" y="511" type="curve" smooth="yes"/>
      <point x="526" y="511"/>
      <point x="468" y="484"/>
      <point x="421" y="414" type="curve"/>
      <point x="420" y="414" type="line"/>
      <point x="385" y="489"/>
      <point x="323" y="511"/>
      <point x="272" y="511" type="curve" smooth="yes"/>
      <point x="119" y="511"/>
      <point x="28" y="376"/>
      <point x="28" y="216" type="curve" smooth="yes"/>
      <point x="28" y="91"/>
      <point x="92" y="-11"/>
      <point x="228" y="-11" type="curve" smooth="yes"/>
      <point x="276" y="-11"/>
      <point x="343" y="5"/>
      <point x="389" y="84" type="curve"/>
      <point x="390" y="84" type="line"/>
      <point x="428" y="7"/>
      <point x="499" y="-11"/>
      <point x="541" y="-11" type="curve" smooth="yes"/>
      <point x="619" y="-11"/>
      <point x="696" y="19"/>
      <point x="754" y="150" type="curve"/>
      <point x="695" y="178" type="line"/>
      <point x="659" y="94"/>
      <point x="601" y="81"/>
      <point x="567" y="81" type="curve" smooth="yes"/>
      <point x="524" y="81"/>
      <point x="478" y="108"/>
      <point x="478" y="222" type="curve"/>
      <point x="595" y="239"/>
      <point x="743" y="276"/>
      <point x="743" y="385" type="curve" smooth="yes"/>
      <point x="743" y="473"/>
      <point x="682" y="511"/>
    </contour>
    <contour>
      <point x="262" y="445" type="curve" smooth="yes"/>
      <point x="329" y="444"/>
      <point x="339" y="332"/>
      <point x="337" y="259" type="curve" smooth="yes"/>
      <point x="335" y="177"/>
      <point x="312" y="55"/>
      <point x="243" y="55" type="curve" smooth="yes"/>
      <point x="179" y="55"/>
      <point x="165" y="164"/>
      <point x="165" y="244" type="curve" smooth="yes"/>
      <point x="165" y="354"/>
      <point x="201" y="446"/>
    </contour>
    <contour>
      <point x="582" y="445" type="curve" smooth="yes"/>
      <point x="602" y="445"/>
      <point x="625" y="432"/>
      <point x="626" y="399" type="curve" smooth="yes"/>
      <point x="628" y="350"/>
      <point x="589" y="306"/>
      <point x="481" y="287" type="curve"/>
      <point x="489" y="361"/>
      <point x="514" y="445"/>
    </contour>
  </outline>
</glyph>
<glyph name="Gstroke" format="2">
  <advance width="756.0"/>
  <unicode hex="01E4"/>
  <anchor x="368.0" y="0.0" name="bottom"/>
  <anchor x="427.0" y="700.0" name="top"/>
  <outline>
    <contour>
      <point x="753.0" y="228.0" type="line"/>
      <point x="448.0" y="228.0" type="line"/>
      <point x="446.0" y="185.0" type="line"/>
      <point x="751.0" y="189.0" type="line"/>
    </contour>
    <component base="G"/>
  </outline>
</glyph>
<glyph name="gstroke" format="2">
  <advance width="520"/>
  <unicode hex="01E5"/>
  <anchor x="301" y="500" name="top"/>
  <outline>
    <contour>
      <point x="482" y="-62" type="line"/>
      <point x="177" y="-62" type="line"/>
      <point x="175" y="-115" type="line"/>
      <point x="480" y="-111" type="line"/>
    </contour>
    <component base="g"/>
  </outline>
</glyph>
<glyph name="schwa" format="2">
  <advance width="481.0"/>
  <unicode hex="0259"/>
  <outline>
    <contour>
      <point x="194.0" y="-11.0" type="curve" smooth="yes"/>
      <point x="380.0" y="-11.0"/>
      <point x="447.0" y="164.0"/>
      <point x="447.0" y="293.0" type="curve" smooth="yes"/>
      <point x="447.0" y="431.0"/>
      <point x="370.0" y="511.0"/>
      <point x="241.0" y="511.0" type="curve" smooth="yes"/>
      <point x="174.0" y="511.0"/>
      <point x="101.0" y="490.0"/>
      <point x="48.0" y="400.0" type="curve"/>
      <point x="104.0" y="373.0" type="line"/>
      <point x="131.0" y="407.0"/>
      <point x="181.0" y="419.0"/>
      <point x="212.0" y="419.0" type="curve" smooth="yes"/>
      <point x="268.0" y="419.0"/>
      <point x="317.0" y="377.0"/>
      <point x="309.0" y="247.0" type="curve"/>
      <point x="301.0" y="121.0"/>
      <point x="267.0" y="55.0"/>
      <point x="205.0" y="55.0" type="curve" smooth="yes"/>
      <point x="176.0" y="55.0"/>
      <point x="142.0" y="74.0"/>
      <point x="141.0" y="121.0" type="curve" smooth="yes"/>
      <point x="140.0" y="185.0"/>
      <point x="191.0" y="218.0"/>
      <point x="337.0" y="236.0" type="curve"/>
      <point x="328.0" y="300.0" type="line"/>
      <point x="198.0" y="284.0"/>
      <point x="24.0" y="251.0"/>
      <point x="24.0" y="123.0" type="curve" smooth="yes"/>
      <point x="24.0" y="35.0"/>
      <point x="103.0" y="-11.0"/>
    </contour>
  </outline>
</glyph>
<glyph name="caron" format="2">
  <advance width="426"/>
  <unicode hex="02C7"/>
  <anchor x="213" y="500" name="_top"/>
  <outline>
    <contour>
      <point x="199" y="570" type="line"/>
      <point x="209" y="570" type="line"/>
      <point x="381" y="743" type="line"/>
      <point x="345" y="788" type="line"/>
      <point x="215" y="681" type="line"/>
      <point x="214" y="681" type="line"/>
      <point x="87" y="786" type="line"/>
      <point x="45" y="739" type="line"/>
    </contour>
  </outline>
</glyph>
<glyph name="breve" format="2">
  <advance width="395.0"/>
  <unicode hex="02D8"/>
  <anchor x="198.0" y="500.0" name="_top"/>
  <outline>
    <contour>
      <point x="196.0" y="601.0" type="curve" smooth="yes"/>
      <point x="264.0" y="601.0"/>
      <point x="315.0" y="643.0"/>
      <point x="350.0" y="740.0" type="curve"/>
      <point x="295.0" y="764.0" type="line"/>
      <point x="276.0" y="727.0"/>
      <point x="247.0" y="690.0"/>
      <point x="200.0" y="690.0" type="curve" smooth="yes"/>
      <point x="153.0" y="690.0"/>
      <point x="124.0" y="726.0"/>
      <point x="103.0" y="763.0" type="curve"/>
      <point x="45.0" y="735.0" type="line"/>
      <point x="76.0" y="639.0"/>
      <point x="140.0" y="601.0"/>
    </contour>
  </outline>
</glyph>
<glyph name="ring" format="2">
  <advance width="329.0"/>
  <unicode hex="02DA"/>
  <anchor x="165.0" y="500.0" name="_top"/>
  <outline>
    <contour>
      <point x="159.0" y="563.0" type="curve" smooth="yes"/>
      <point x="217.0" y="563.0"/>
      <point x="281.0" y="610.0"/>
      <point x="283.0" y="685.0" type="curve" smooth="yes"/>
      <point x="284.0" y="760.0"/>
      <point x="226.0" y="795.0"/>
      <point x="170.0" y="795.0" type="curve" smooth="yes"/>
      <point x="107.0" y="795.0"/>
      <point x="47.0" y="743.0"/>
      <point x="46.0" y="674.0" type="curve" smooth="yes"/>
      <point x="45.0" y="603.0"/>
      <point x="104.0" y="563.0"/>
    </contour>
    <contour>
      <point x="167.0" y="623.0" type="curve" smooth="yes"/>
      <point x="143.0" y="623.0"/>
      <point x="126.0" y="645.0"/>
      <point x="128.0" y="687.0" type="curve" smooth="yes"/>
      <point x="130.0" y="720.0"/>
      <point x="149.0" y="735.0"/>
      <point x="167.0" y="736.0" type="curve" smooth="yes"/>
      <point x="188.0" y="736.0"/>
      <point x="206.0" y="717.0"/>
      <point x="204.0" y="672.0" type="curve" smooth="yes"/>
      <point x="202.0" y="641.0"/>
      <point x="184.0" y="624.0"/>
    </contour>
  </outline>
</glyph>
<glyph name="ogonek" format="2">
  <advance width="327"/>
  <unicode hex="02DB"/>
  <anchor x="276" y="0" name="_ogonek"/>
  <outline>
    <contour>
      <point x="146" y="-265" type="curve" smooth="yes"/>
      <point x="193" y="-265"/>
      <point x="244" y="-234"/>
      <point x="282" y="-188" type="curve"/>
      <point x="249" y="-145" type="line"/>
      <point x="227" y="-164"/>
      <point x="205" y="-174"/>
      <point x="185" y="-174" type="curve" smooth="yes"/>
      <point x="158" y="-174"/>
      <point x="143" y="-158"/>
      <point x="144" y="-134" type="curve" smooth="yes"/>
      <point x="145" y="-78"/>
      <point x="212" y="-26"/>
      <point x="277" y="0" type="curve"/>
      <point x="281" y="62" type="line"/>
      <point x="164" y="24"/>
      <point x="51" y="-62"/>
      <point x="46" y="-162" type="curve" smooth="yes"/>
      <point x="42" y="-230"/>
      <point x="85" y="-265"/>
    </contour>
  </outline>
</glyph>
<glyph name="circumflexcomb" format="2">
  <unicode hex="0302"/>
  <anchor x="232.0" y="500.0" name="_top"/>
  <anchor x="243.0" y="722.0" name="top"/>
  <outline>
    <contour>
      <point x="354.0" y="560.0" type="line"/>
      <point x="389.0" y="612.0" type="line"/>
      <point x="245.0" y="713.0" type="line"/>
      <point x="232.0" y="713.0" type="line"/>
      <point x="73.0" y="607.0" type="line"/>
      <point x="101.0" y="561.0" type="line"/>
      <point x="232.0" y="620.0" type="line"/>
    </contour>
  </outline>
</glyph>
<glyph name="brevecomb" format="2">
  <unicode hex="0306"/>
  <anchor x="167.0" y="500.0" name="_top"/>
  <anchor x="177.0" y="694.0" name="top"/>
  <outline>
    <contour>
      <point x="172.238" y="559.377" type="curve" smooth="yes"/>
      <point x="239.177" y="559.377"/>
      <point x="290.414" y="593.259"/>
      <point x="325.122" y="673.42" type="curve"/>
      <point x="278.844" y="693.254" type="line"/>
      <point x="258.184" y="663.503"/>
      <point x="225.954" y="632.1"/>
      <point x="176.37" y="632.1" type="curve" smooth="yes"/>
      <point x="125.96" y="632.1"/>
      <point x="93.73" y="662.677"/>
      <point x="71.418" y="693.254" type="curve"/>
      <point x="21.834" y="669.288" type="line"/>
      <point x="53.237" y="589.954"/>
      <point x="116.87" y="559.377"/>
    </contour>
  </outline>
</glyph>
<glyph name="hookabovecomb" format="2">
  <unicode hex="0309"/>
  <anchor x="188.0" y="500.0" name="_top"/>
  <anchor x="207.0" y="756.0" name="top"/>
  <outline>
    <contour>
      <point x="184.0" y="559.0" type="curve"/>
      <point x="246.0" y="559.0" type="line"/>
      <point x="246.0" y="571.0"/>
      <point x="258.0" y="585.0"/>
      <point x="275.0" y="598.0" type="curve" smooth="yes"/>
      <point x="295.0" y="614.0"/>
      <point x="318.0" y="628.0"/>
      <point x="320.0" y="664.0" type="curve" smooth="yes"/>
      <point x="323.0" y="721.0"/>
      <point x="279.0" y="757.0"/>
      <point x="200.0" y="757.0" type="curve" smooth="yes"/>
      <point x="129.0" y="757.0"/>
      <point x="86.0" y="708.0"/>
      <point x="83.0" y="663.0" type="curve" smooth="yes"/>
      <point x="81.0" y="635.0"/>
      <point x="102.0" y="612.0"/>
      <point x="133.0" y="612.0" type="curve" smooth="yes"/>
      <point x="156.0" y="612.0"/>
      <point x="168.0" y="628.0"/>
      <point x="169.0" y="643.0" type="curve" smooth="yes"/>
      <point x="170.0" y="657.0"/>
      <point x="161.0" y="670.0"/>
      <point x="141.0" y="670.0" type="curve"/>
      <point x="143.0" y="679.0"/>
      <point x="159.0" y="697.0"/>
      <point x="197.0" y="697.0" type="curve" smooth="yes"/>
      <point x="225.0" y="697.0"/>
      <point x="247.0" y="683.0"/>
      <point x="245.0" y="655.0" type="curve" smooth="yes"/>
      <point x="244.0" y="638.0"/>
      <point x="235.0" y="626.0"/>
      <point x="226.0" y="616.0" type="curve" smooth="yes"/>
      <point x="209.0" y="598.0"/>
      <point x="185.0" y="587.0"/>
    </contour>
  </outline>
</glyph>
<glyph name="horncomb" format="2">
  <unicode hex="031B"/>
  <anchor x="197.0" y="500.0" name="_topright"/>
  <anchor x="197.0" y="500.0" name="topright"/>
  <outline>
    <contour>
      <point x="93.0" y="435.0" type="line"/>
      <point x="203.0" y="435.0"/>
      <point x="267.0" y="485.0"/>
      <point x="284.0" y="572.0" type="curve"/>
      <point x="180.0" y="572.0" type="line"/>
      <point x="173.0" y="537.0"/>
      <point x="153.0" y="496.0"/>
      <point x="105.0" y="496.0" type="curve"/>
    </contour>
  </outline>
</glyph>
<glyph name="commaaccentcomb" format="2">
  <unicode hex="0326"/>
  <anchor x="167" y="0" name="_bottom"/>
  <outline>
    <contour>
      <point x="87" y="-294" type="line"/>
      <point x="149" y="-240"/>
      <point x="206" y="-167"/>
      <point x="209" y="-108" type="curve"/>
      <point x="211" y="-84"/>
      <point x="206" y="-59"/>
      <point x="194" y="-36" type="curve"/>
      <point x="86" y="-60" type="line"/>
      <point x="94" y="-129"/>
      <point x="93" y="-165"/>
      <point x="35" y="-253" type="curve"/>
    </contour>
  </outline>
</glyph>
<glyph name="Dje-cy" format="2">
  <advance width="803.0"/>
  <unicode hex="0402"/>
  <outline>
    <contour>
      <point x="569.0" y="423.0" type="curve" smooth="yes"/>
      <point x="526.0" y="423.0"/>
      <point x="455.0" y="415.0"/>
      <point x="405.0" y="398.0" type="curve"/>
      <point x="417.0" y="633.0" type="line"/>
      <point x="465.0" y="633.0" type="line" smooth="yes"/>
      <point x="541.0" y="634.0"/>
      <point x="587.0" y="590.0"/>
      <point x="582.0" y="500.0" type="curve"/>
      <point x="648.0" y="500.0" type="line"/>
      <point x="652.0" y="700.0" type="line"/>
      <point x="46.0" y="700.0" type="line"/>
      <point x="29.0" y="474.0" type="line"/>
      <point x="95.0" y="474.0" type="line"/>
      <point x="101.0" y="582.0"/>
      <point x="151.0" y="631.0"/>
      <point x="227.0" y="632.0" type="curve" smooth="yes"/>
      <point x="273.0" y="632.0" type="line"/>
      <point x="248.0" y="153.0" type="line" smooth="yes"/>
      <point x="244.0" y="72.0"/>
      <point x="217.0" y="68.0"/>
      <point x="172.0" y="66.0" type="curve"/>
      <point x="168.0" y="0.0" type="line"/>
      <point x="420.0" y="0.0" type="line"/>
      <point x="425.0" y="77.0" type="line"/>
      <point x="411.0" y="76.0"/>
      <point x="398.0" y="75.0"/>
      <point x="384.0" y="74.0" type="curve"/>
      <point x="388.0" y="91.0"/>
      <point x="391.0" y="128.0"/>
      <point x="393.0" y="164.0" type="curve" smooth="yes"/>
      <point x="401.0" y="324.0" type="line"/>
      <point x="429.0" y="335.0"/>
      <point x="470.0" y="345.0"/>
      <point x="516.0" y="345.0" type="curve" smooth="yes"/>
      <point x="580.0" y="345.0"/>
      <point x="619.0" y="316.0"/>
      <point x="613.0" y="215.0" type="curve" smooth="yes"/>
      <point x="608.0" y="122.0"/>
      <point x="580.0" y="58.0"/>
      <point x="528.0" y="58.0" type="curve" smooth="yes"/>
      <point x="507.0" y="58.0"/>
      <point x="482.0" y="63.0"/>
      <point x="461.0" y="71.0" type="curve"/>
      <point x="440.0" y="6.0" type="line"/>
      <point x="484.0" y="-11.0"/>
      <point x="544.0" y="-15.0"/>
      <point x="571.0" y="-15.0" type="curve" smooth="yes"/>
      <point x="708.0" y="-15.0"/>
      <point x="766.0" y="95.0"/>
      <point x="771.0" y="220.0" type="curve" smooth="yes"/>
      <point x="776.0" y="335.0"/>
      <point x="718.0" y="423.0"/>
    </contour>
  </outline>
</glyph>
<glyph name="Tshe-cy" format="2">
  <advance width="887.0"/>
  <unicode hex="040B"/>
  <anchor x="342.0" y="0.0" name="bottom"/>
  <anchor x="324.0" y="350.0" name="center"/>
  <anchor x="350.0" y="700.0" name="top"/>
  <outline>
    <contour>
      <point x="560.0" y="0.0" type="line"/>
      <point x="844.0" y="0.0" type="line"/>
      <point x="849.0" y="77.0" type="line"/>
      <point x="773.0" y="74.0" type="line"/>
      <point x="777.0" y="94.0"/>
      <point x="782.0" y="156.0"/>
      <point x="785.0" y="214.0" type="curve" smooth="yes"/>
      <point x="792.0" y="363.0"/>
      <point x="726.0" y="428.0"/>
      <point x="601.0" y="428.0" type="curve" smooth="yes"/>
      <point x="522.0" y="428.0"/>
      <point x="451.0" y="402.0"/>
      <point x="400.0" y="372.0" type="curve"/>
      <point x="396.0" y="299.0" type="line"/>
      <point x="424.0" y="319.0"/>
      <point x="479.0" y="335.0"/>
      <point x="532.0" y="335.0" type="curve" smooth="yes"/>
      <point x="611.0" y="335.0"/>
      <point x="646.0" y="297.0"/>
      <point x="644.0" y="216.0" type="curve"/>
      <point x="639.0" y="153.0" type="line" smooth="yes"/>
      <point x="633.0" y="72.0"/>
      <point x="608.0" y="68.0"/>
      <point x="563.0" y="66.0" type="curve"/>
    </contour>
    <component base="T"/>
  </outline>
</glyph>
<glyph name="Dzhe-cy" format="2">
  <advance width="789"/>
  <unicode hex="040F"/>
  <anchor x="40" y="700" name="bottomright"/>
  <outline>
    <contour>
      <point x="348" y="-158" type="curve"/>
      <point x="420" y="-158" type="line"/>
      <point x="433" y="78" type="line"/>
      <point x="294" y="72" type="line"/>
      <point x="290" y="0" type="line"/>
      <point x="342" y="0"/>
      <point x="355" y="-54"/>
    </contour>
    <component base="Pe-cy" xScale="-1" yScale="-1" xOffset="797" yOffset="700"/>
  </outline>
</glyph>
<glyph name="Be-cy" format="2">
  <advance width="659.0"/>
  <unicode hex="0411"/>
  <outline>
    <contour>
      <point x="35.0" y="0.0" type="line"/>
      <point x="373.0" y="0.0" type="line" smooth="yes"/>
      <point x="513.0" y="0.0"/>
      <point x="622.0" y="68.0"/>
      <point x="627.0" y="199.0" type="curve" smooth="yes"/>
      <point x="632.0" y="321.0"/>
      <point x="578.0" y="415.0"/>
      <point x="330.0" y="409.0" type="curve" smooth="yes"/>
      <point x="270.0" y="407.0" type="line"/>
      <point x="277.0" y="547.0" type="line" smooth="yes"/>
      <point x="282.0" y="625.0"/>
      <point x="307.0" y="634.0"/>
      <point x="349.0" y="634.0" type="curve" smooth="yes"/>
      <point x="415.0" y="635.0" type="line" smooth="yes"/>
      <point x="469.0" y="636.0"/>
      <point x="535.0" y="615.0"/>
      <point x="529.0" y="506.0" type="curve"/>
      <point x="595.0" y="506.0" type="line"/>
      <point x="600.0" y="700.0" type="line"/>
      <point x="72.0" y="700.0" type="line"/>
      <point x="67.0" y="623.0" type="line"/>
      <point x="82.0" y="624.0"/>
      <point x="121.0" y="625.0"/>
      <point x="143.0" y="626.0" type="curve"/>
      <point x="140.0" y="609.0"/>
      <point x="136.0" y="572.0"/>
      <point x="134.0" y="536.0" type="curve" smooth="yes"/>
      <point x="114.0" y="153.0" type="line" smooth="yes"/>
      <point x="110.0" y="72.0"/>
      <point x="83.0" y="68.0"/>
      <point x="38.0" y="66.0" type="curve"/>
    </contour>
    <contour>
      <point x="346.0" y="72.0" type="curve" smooth="yes"/>
      <point x="315.0" y="71.0"/>
      <point x="284.0" y="71.0"/>
      <point x="249.0" y="71.0" type="curve"/>
      <point x="252.0" y="88.0"/>
      <point x="255.0" y="123.0"/>
      <point x="257.0" y="159.0" type="curve" smooth="yes"/>
      <point x="266.0" y="336.0" type="line"/>
      <point x="292.0" y="338.0"/>
      <point x="313.0" y="338.0"/>
      <point x="347.0" y="337.0" type="curve" smooth="yes"/>
      <point x="417.0" y="336.0"/>
      <point x="474.0" y="311.0"/>
      <point x="469.0" y="202.0" type="curve" smooth="yes"/>
      <point x="465.0" y="117.0"/>
      <point x="428.0" y="76.0"/>
    </contour>
  </outline>
</glyph>
<glyph name="De-cy" format="2">
  <advance width="691"/>
  <unicode hex="0414"/>
  <outline>
    <contour>
      <point x="589" y="547" type="line" smooth="yes"/>
      <point x="593" y="628"/>
      <point x="620" y="632"/>
      <point x="665" y="634" type="curve"/>
      <point x="668" y="700" type="line"/>
      <point x="112" y="700" type="line"/>
      <point x="108" y="623" type="line"/>
      <point x="215" y="626" type="line"/>
      <point x="198" y="366"/>
      <point x="172" y="223"/>
      <point x="115" y="135" type="curve" smooth="yes"/>
      <point x="89" y="95"/>
      <point x="58" y="74"/>
      <point x="22" y="74" type="curve" smooth="yes"/>
      <point x="-9" y="74" type="line"/>
      <point x="-21" y="-177" type="line"/>
      <point x="52" y="-177" type="line"/>
      <point x="55" y="-73"/>
      <point x="83" y="0"/>
      <point x="156" y="0" type="curve" smooth="yes"/>
      <point x="498" y="0" type="line" smooth="yes"/>
      <point x="570" y="0"/>
      <point x="582" y="-73"/>
      <point x="575" y="-177" type="curve"/>
      <point x="648" y="-177" type="line"/>
      <point x="660" y="77" type="line"/>
      <point x="560" y="74" type="line"/>
      <point x="563" y="92"/>
      <point x="567" y="128"/>
      <point x="569" y="164" type="curve" smooth="yes"/>
    </contour>
    <contour>
      <point x="145" y="74" type="line"/>
      <point x="209" y="149"/>
      <point x="265" y="293"/>
      <point x="285" y="563" type="curve" smooth="yes"/>
      <point x="289" y="610"/>
      <point x="311" y="620"/>
      <point x="360" y="622" type="curve" smooth="yes"/>
      <point x="454" y="625" type="line"/>
      <point x="447" y="604"/>
      <point x="446" y="582"/>
      <point x="445" y="561" type="curve"/>
      <point x="424" y="161" type="line" smooth="yes"/>
      <point x="420" y="81"/>
      <point x="393" y="77"/>
      <point x="348" y="74" type="curve"/>
    </contour>
  </outline>
</glyph>
<glyph name="Ii-cy" format="2">
  <advance width="772"/>
  <unicode hex="0418"/>
  <anchor x="677" y="0" name="bottomright"/>
  <anchor x="440" y="700" name="top"/>
  <outline>
    <contour>
      <point x="163" y="29" type="line"/>
      <point x="692" y="622" type="line"/>
      <point x="647" y="670" type="line"/>
      <point x="114" y="80" type="line"/>
    </contour>
    <contour>
      <point x="35" y="0" type="line"/>
      <point x="318" y="0" type="line"/>
      <point x="323" y="77" type="line"/>
      <point x="247" y="74" type="line"/>
      <point x="250" y="91"/>
      <point x="254" y="128"/>
      <point x="256" y="164" type="curve" smooth="yes"/>
      <point x="276" y="547" type="line" smooth="yes"/>
      <point x="280" y="628"/>
      <point x="307" y="632"/>
      <point x="352" y="634" type="curve"/>
      <point x="355" y="700" type="line"/>
      <point x="72" y="700" type="line"/>
      <point x="68" y="623" type="line"/>
      <point x="144" y="626" type="line"/>
      <point x="140" y="609"/>
      <point x="137" y="572"/>
      <point x="135" y="536" type="curve" smooth="yes"/>
      <point x="115" y="153" type="line" smooth="yes"/>
      <point x="110" y="72"/>
      <point x="84" y="68"/>
      <point x="39" y="66" type="curve"/>
    </contour>
    <contour>
      <point x="463" y="0" type="line"/>
      <point x="749" y="0" type="line"/>
      <point x="753" y="77" type="line"/>
      <point x="677" y="74" type="line"/>
      <point x="681" y="91"/>
      <point x="684" y="128"/>
      <point x="686" y="164" type="curve" smooth="yes"/>
      <point x="706" y="547" type="line" smooth="yes"/>
      <point x="710" y="628"/>
      <point x="737" y="632"/>
      <point x="782" y="634" type="curve"/>
      <point x="786" y="700" type="line"/>
      <point x="500" y="700" type="line"/>
      <point x="496" y="623" type="line"/>
      <point x="572" y="626" type="line"/>
      <point x="568" y="609"/>
      <point x="565" y="572"/>
      <point x="563" y="536" type="curve" smooth="yes"/>
      <point x="543" y="153" type="line" smooth="yes"/>
      <point x="539" y="72"/>
      <point x="512" y="68"/>
      <point x="467" y="66" type="curve"/>
    </contour>
  </outline>
</glyph>
<glyph name="Pe-cy" format="2">
  <advance width="789.0"/>
  <unicode hex="041F"/>
  <anchor x="757.0" y="0.0" name="bottomright"/>
  <outline>
    <contour>
      <point x="35.0" y="0.0" type="line"/>
      <point x="320.0" y="0.0" type="line"/>
      <point x="324.0" y="77.0" type="line"/>
      <point x="310.0" y="77.0"/>
      <point x="270.0" y="76.0"/>
      <point x="249.0" y="74.0" type="curve"/>
      <point x="252.0" y="91.0"/>
      <point x="255.0" y="128.0"/>
      <point x="257.0" y="164.0" type="curve" smooth="yes"/>
      <point x="277.0" y="546.0" type="line"/>
      <point x="283.0" y="609.0"/>
      <point x="305.0" y="622.0"/>
      <point x="340.0" y="622.0" type="curve" smooth="yes"/>
      <point x="546.0" y="625.0" type="line"/>
      <point x="540.0" y="591.0"/>
      <point x="539.0" y="556.0"/>
      <point x="537.0" y="522.0" type="curve"/>
      <point x="520.0" y="153.0" type="line" smooth="yes"/>
      <point x="516.0" y="72.0"/>
      <point x="489.0" y="68.0"/>
      <point x="444.0" y="66.0" type="curve"/>
      <point x="440.0" y="0.0" type="line"/>
      <point x="725.0" y="0.0" type="line"/>
      <point x="729.0" y="77.0" type="line"/>
      <point x="715.0" y="77.0"/>
      <point x="675.0" y="76.0"/>
      <point x="654.0" y="74.0" type="curve"/>
      <point x="657.0" y="91.0"/>
      <point x="661.0" y="128.0"/>
      <point x="663.0" y="164.0" type="curve" smooth="yes"/>
      <point x="683.0" y="547.0" type="line" smooth="yes"/>
      <point x="687.0" y="628.0"/>
      <point x="713.0" y="632.0"/>
      <point x="758.0" y="634.0" type="curve"/>
      <point x="762.0" y="700.0" type="line"/>
      <point x="72.0" y="700.0" type="line"/>
      <point x="68.0" y="623.0" type="line"/>
      <point x="82.0" y="624.0"/>
      <point x="122.0" y="625.0"/>
      <point x="143.0" y="626.0" type="curve"/>
      <point x="140.0" y="609.0"/>
      <point x="136.0" y="572.0"/>
      <point x="134.0" y="536.0" type="curve" smooth="yes"/>
      <point x="114.0" y="153.0" type="line" smooth="yes"/>
      <point x="110.0" y="72.0"/>
      <point x="83.0" y="68.0"/>
      <point x="39.0" y="66.0" type="curve"/>
    </contour>
  </outline>
</glyph>
<glyph name="U-cy" format="2">
  <advance width="639.0"/>
  <unicode hex="0423"/>
  <anchor x="374.0" y="700.0" name="top"/>
  <outline>
    <contour>
      <point x="163.0" y="-16.0" type="curve" smooth="yes"/>
      <point x="229.0" y="-16.0"/>
      <point x="309.0" y="25.0"/>
      <point x="380.0" y="170.0" type="curve" smooth="yes"/>
      <point x="554.0" y="527.0" type="line" smooth="yes"/>
      <point x="590.0" y="603.0"/>
      <point x="627.0" y="627.0"/>
      <point x="674.0" y="634.0" type="curve"/>
      <point x="677.0" y="700.0" type="line"/>
      <point x="456.0" y="700.0" type="line"/>
      <point x="452.0" y="623.0" type="line"/>
      <point x="529.0" y="627.0" type="line"/>
      <point x="511.0" y="605.0"/>
      <point x="487.0" y="572.0"/>
      <point x="472.0" y="535.0" type="curve"/>
      <point x="371.0" y="307.0" type="line"/>
      <point x="367.0" y="307.0" type="line"/>
      <point x="361.0" y="335.0"/>
      <point x="350.0" y="364.0"/>
      <point x="325.0" y="415.0" type="curve" smooth="yes"/>
      <point x="254.0" y="557.0" type="line" smooth="yes"/>
      <point x="226.0" y="613.0"/>
      <point x="259.0" y="638.0"/>
      <point x="317.0" y="634.0" type="curve"/>
      <point x="320.0" y="700.0" type="line"/>
      <point x="31.0" y="700.0" type="line"/>
      <point x="27.0" y="623.0" type="line"/>
      <point x="75.0" y="626.0" type="line"/>
      <point x="74.0" y="604.0"/>
      <point x="92.0" y="561.0"/>
      <point x="108.0" y="531.0" type="curve" smooth="yes"/>
      <point x="305.0" y="176.0" type="line"/>
      <point x="257.0" y="88.0"/>
      <point x="228.0" y="53.0"/>
      <point x="200.0" y="53.0" type="curve" smooth="yes"/>
      <point x="192.0" y="53.0"/>
      <point x="188.0" y="56.0"/>
      <point x="186.0" y="60.0" type="curve"/>
      <point x="197.0" y="74.0"/>
      <point x="203.0" y="89.0"/>
      <point x="204.0" y="104.0" type="curve" smooth="yes"/>
      <point x="206.0" y="137.0"/>
      <point x="183.0" y="166.0"/>
      <point x="138.0" y="166.0" type="curve" smooth="yes"/>
      <point x="84.0" y="166.0"/>
      <point x="60.0" y="124.0"/>
      <point x="58.0" y="83.0" type="curve" smooth="yes"/>
      <point x="55.0" y="24.0"/>
      <point x="99.0" y="-16.0"/>
    </contour>
  </outline>
</glyph>
<glyph name="Ef-cy" format="2">
  <advance width="860.0"/>
  <unicode hex="0424"/>
  <outline>
    <contour>
      <point x="269.0" y="-54.0" type="line"/>
      <point x="546.0" y="-54.0" type="line"/>
      <point x="550.0" y="23.0" type="line"/>
      <point x="536.0" y="23.0"/>
      <point x="497.0" y="22.0"/>
      <point x="475.0" y="21.0" type="curve"/>
      <point x="478.0" y="32.0"/>
      <point x="480.0" y="51.0"/>
      <point x="482.0" y="74.0" type="curve"/>
      <point x="706.0" y="95.0"/>
      <point x="820.0" y="214.0"/>
      <point x="828.0" y="350.0" type="curve" smooth="yes"/>
      <point x="834.0" y="484.0"/>
      <point x="743.0" y="618.0"/>
      <point x="514.0" y="641.0" type="curve"/>
      <point x="522.0" y="698.0"/>
      <point x="547.0" y="701.0"/>
      <point x="587.0" y="703.0" type="curve"/>
      <point x="590.0" y="769.0" type="line"/>
      <point x="313.0" y="769.0" type="line"/>
      <point x="309.0" y="692.0" type="line"/>
      <point x="323.0" y="692.0"/>
      <point x="363.0" y="693.0"/>
      <point x="384.0" y="695.0" type="curve"/>
      <point x="382.0" y="684.0"/>
      <point x="380.0" y="664.0"/>
      <point x="378.0" y="642.0" type="curve"/>
      <point x="160.0" y="622.0"/>
      <point x="48.0" y="495.0"/>
      <point x="40.0" y="343.0" type="curve" smooth="yes"/>
      <point x="33.0" y="208.0"/>
      <point x="114.0" y="90.0"/>
      <point x="345.0" y="72.0" type="curve"/>
      <point x="337.0" y="18.0"/>
      <point x="311.0" y="15.0"/>
      <point x="272.0" y="12.0" type="curve"/>
    </contour>
    <contour>
      <point x="350.0" y="140.0" type="line"/>
      <point x="235.0" y="160.0"/>
      <point x="181.0" y="235.0"/>
      <point x="188.0" y="355.0" type="curve" smooth="yes"/>
      <point x="194.0" y="474.0"/>
      <point x="253.0" y="556.0"/>
      <point x="374.0" y="576.0" type="curve"/>
    </contour>
    <contour>
      <point x="485.0" y="137.0" type="curve"/>
      <point x="509.0" y="575.0" type="line"/>
      <point x="634.0" y="551.0"/>
      <point x="686.0" y="463.0"/>
      <point x="679.0" y="333.0" type="curve" smooth="yes"/>
      <point x="672.0" y="212.0"/>
      <point x="612.0" y="152.0"/>
    </contour>
  </outline>
</glyph>
<glyph name="Tse-cy" format="2">
  <advance width="794.0"/>
  <unicode hex="0426"/>
  <outline>
    <contour>
      <point x="678.0" y="-177.0" type="curve"/>
      <point x="751.0" y="-177.0" type="line"/>
      <point x="765.0" y="79.0" type="line"/>
      <point x="654.0" y="74.0" type="line"/>
      <point x="657.0" y="91.0"/>
      <point x="661.0" y="128.0"/>
      <point x="663.0" y="164.0" type="curve" smooth="yes"/>
      <point x="683.0" y="547.0" type="line" smooth="yes"/>
      <point x="687.0" y="628.0"/>
      <point x="714.0" y="632.0"/>
      <point x="758.0" y="634.0" type="curve"/>
      <point x="762.0" y="700.0" type="line"/>
      <point x="477.0" y="700.0" type="line"/>
      <point x="473.0" y="623.0" type="line"/>
      <point x="487.0" y="623.0"/>
      <point x="527.0" y="624.0"/>
      <point x="548.0" y="626.0" type="curve"/>
      <point x="545.0" y="609.0"/>
      <point x="542.0" y="572.0"/>
      <point x="540.0" y="536.0" type="curve" smooth="yes"/>
      <point x="520.0" y="154.0" type="line"/>
      <point x="514.0" y="91.0"/>
      <point x="492.0" y="78.0"/>
      <point x="457.0" y="78.0" type="curve" smooth="yes"/>
      <point x="251.0" y="75.0" type="line"/>
      <point x="257.0" y="109.0"/>
      <point x="258.0" y="144.0"/>
      <point x="260.0" y="178.0" type="curve" smooth="yes"/>
      <point x="277.0" y="547.0" type="line" smooth="yes"/>
      <point x="281.0" y="628.0"/>
      <point x="308.0" y="632.0"/>
      <point x="353.0" y="634.0" type="curve"/>
      <point x="357.0" y="700.0" type="line"/>
      <point x="72.0" y="700.0" type="line"/>
      <point x="68.0" y="623.0" type="line"/>
      <point x="82.0" y="623.0"/>
      <point x="122.0" y="624.0"/>
      <point x="143.0" y="626.0" type="curve"/>
      <point x="140.0" y="609.0"/>
      <point x="136.0" y="572.0"/>
      <point x="134.0" y="536.0" type="curve" smooth="yes"/>
      <point x="114.0" y="153.0" type="line" smooth="yes"/>
      <point x="110.0" y="72.0"/>
      <point x="84.0" y="68.0"/>
      <point x="39.0" y="66.0" type="curve"/>
      <point x="35.0" y="0.0" type="line"/>
      <point x="617.0" y="0.0" type="line" smooth="yes"/>
      <point x="675.0" y="0.0"/>
      <point x="686.0" y="-73.0"/>
    </contour>
  </outline>
</glyph>
<glyph name="Sha-cy" format="2">
  <advance width="1100.0"/>
  <unicode hex="0428"/>
  <outline>
    <contour>
      <point x="35.0" y="0.0" type="line"/>
      <point x="1035.0" y="0.0" type="line"/>
      <point x="1040.0" y="77.0" type="line"/>
      <point x="1025.0" y="77.0"/>
      <point x="986.0" y="76.0"/>
      <point x="964.0" y="74.0" type="curve"/>
      <point x="967.0" y="91.0"/>
      <point x="971.0" y="128.0"/>
      <point x="973.0" y="164.0" type="curve" smooth="yes"/>
      <point x="993.0" y="547.0" type="line" smooth="yes"/>
      <point x="997.0" y="628.0"/>
      <point x="1023.0" y="632.0"/>
      <point x="1069.0" y="634.0" type="curve"/>
      <point x="1072.0" y="700.0" type="line"/>
      <point x="785.0" y="700.0" type="line"/>
      <point x="781.0" y="623.0" type="line"/>
      <point x="795.0" y="624.0"/>
      <point x="834.0" y="625.0"/>
      <point x="856.0" y="626.0" type="curve"/>
      <point x="853.0" y="609.0"/>
      <point x="850.0" y="572.0"/>
      <point x="848.0" y="536.0" type="curve" smooth="yes"/>
      <point x="828.0" y="165.0" type="line" smooth="yes"/>
      <point x="824.0" y="84.0"/>
      <point x="797.0" y="79.0"/>
      <point x="754.0" y="78.0" type="curve" smooth="yes"/>
      <point x="608.0" y="76.0" type="line"/>
      <point x="611.0" y="93.0"/>
      <point x="614.0" y="129.0"/>
      <point x="616.0" y="164.0" type="curve" smooth="yes"/>
      <point x="636.0" y="547.0" type="line" smooth="yes"/>
      <point x="641.0" y="628.0"/>
      <point x="667.0" y="632.0"/>
      <point x="712.0" y="634.0" type="curve"/>
      <point x="716.0" y="700.0" type="line"/>
      <point x="429.0" y="700.0" type="line"/>
      <point x="424.0" y="623.0" type="line"/>
      <point x="438.0" y="624.0"/>
      <point x="478.0" y="625.0"/>
      <point x="500.0" y="626.0" type="curve"/>
      <point x="497.0" y="609.0"/>
      <point x="493.0" y="572.0"/>
      <point x="491.0" y="536.0" type="curve" smooth="yes"/>
      <point x="472.0" y="165.0" type="line" smooth="yes"/>
      <point x="467.0" y="84.0"/>
      <point x="441.0" y="81.0"/>
      <point x="397.0" y="78.0" type="curve"/>
      <point x="251.0" y="76.0" type="line"/>
      <point x="256.0" y="103.0"/>
      <point x="258.0" y="130.0"/>
      <point x="259.0" y="157.0" type="curve"/>
      <point x="280.0" y="547.0" type="line" smooth="yes"/>
      <point x="284.0" y="628.0"/>
      <point x="311.0" y="632.0"/>
      <point x="356.0" y="634.0" type="curve"/>
      <point x="359.0" y="700.0" type="line"/>
      <point x="72.0" y="700.0" type="line"/>
      <point x="68.0" y="623.0" type="line"/>
      <point x="82.0" y="624.0"/>
      <point x="122.0" y="625.0"/>
      <point x="144.0" y="626.0" type="curve"/>
      <point x="140.0" y="609.0"/>
      <point x="137.0" y="572.0"/>
      <point x="135.0" y="536.0" type="curve" smooth="yes"/>
      <point x="115.0" y="153.0" type="line" smooth="yes"/>
      <point x="110.0" y="72.0"/>
      <point x="84.0" y="68.0"/>
      <point x="39.0" y="66.0" type="curve"/>
    </contour>
  </outline>
</glyph>
<glyph name="Ereversed-cy" format="2">
  <advance width="702.0"/>
  <unicode hex="042D"/>
  <anchor x="345.0" y="700.0" name="top"/>
  <outline>
    <contour>
      <point x="309.0" y="-16.0" type="curve" smooth="yes"/>
      <point x="515.0" y="-16.0"/>
      <point x="660.0" y="141.0"/>
      <point x="670.0" y="340.0" type="curve" smooth="yes"/>
      <point x="679.0" y="522.0"/>
      <point x="573.0" y="716.0"/>
      <point x="353.0" y="716.0" type="curve" smooth="yes"/>
      <point x="288.0" y="716.0"/>
      <point x="220.0" y="699.0"/>
      <point x="165.0" y="667.0" type="curve"/>
      <point x="170.0" y="709.0" type="line"/>
      <point x="93.0" y="709.0" type="line"/>
      <point x="81.0" y="490.0" type="line"/>
      <point x="146.0" y="490.0" type="line"/>
      <point x="171.0" y="595.0"/>
      <point x="233.0" y="647.0"/>
      <point x="323.0" y="648.0" type="curve" smooth="yes"/>
      <point x="453.0" y="648.0"/>
      <point x="513.0" y="530.0"/>
      <point x="517.0" y="397.0" type="curve"/>
      <point x="265.0" y="397.0" type="line"/>
      <point x="274.0" y="459.0" type="line"/>
      <point x="201.0" y="459.0" type="line"/>
      <point x="188.0" y="241.0" type="line"/>
      <point x="250.0" y="241.0" type="line"/>
      <point x="254.0" y="325.0"/>
      <point x="299.0" y="329.0"/>
      <point x="353.0" y="329.0" type="curve" smooth="yes"/>
      <point x="515.0" y="328.0" type="line"/>
      <point x="499.0" y="166.0"/>
      <point x="418.0" y="53.0"/>
      <point x="293.0" y="53.0" type="curve" smooth="yes"/>
      <point x="210.0" y="53.0"/>
      <point x="120.0" y="104.0"/>
      <point x="66.0" y="188.0" type="curve"/>
      <point x="16.0" y="144.0" type="line"/>
      <point x="106.0" y="9.0"/>
      <point x="226.0" y="-16.0"/>
    </contour>
  </outline>
</glyph>
<glyph name="Iu-cy" format="2">
  <advance width="1110.0"/>
  <unicode hex="042E"/>
  <outline>
    <contour>
      <point x="712.0" y="-16.0" type="curve" smooth="yes"/>
      <point x="949.0" y="-16.0"/>
      <point x="1069.0" y="185.0"/>
      <point x="1078.0" y="350.0" type="curve" smooth="yes"/>
      <point x="1086.0" y="516.0"/>
      <point x="1001.0" y="716.0"/>
      <point x="754.0" y="716.0" type="curve" smooth="yes"/>
      <point x="547.0" y="716.0"/>
      <point x="434.0" y="549.0"/>
      <point x="411.0" y="391.0" type="curve"/>
      <point x="269.0" y="391.0" type="line"/>
      <point x="277.0" y="547.0" type="line" smooth="yes"/>
      <point x="281.0" y="628.0"/>
      <point x="308.0" y="632.0"/>
      <point x="353.0" y="634.0" type="curve"/>
      <point x="356.0" y="700.0" type="line"/>
      <point x="72.0" y="700.0" type="line"/>
      <point x="68.0" y="623.0" type="line"/>
      <point x="82.0" y="624.0"/>
      <point x="122.0" y="625.0"/>
      <point x="143.0" y="626.0" type="curve"/>
      <point x="140.0" y="609.0"/>
      <point x="136.0" y="572.0"/>
      <point x="134.0" y="536.0" type="curve" smooth="yes"/>
      <point x="114.0" y="153.0" type="line" smooth="yes"/>
      <point x="110.0" y="72.0"/>
      <point x="83.0" y="68.0"/>
      <point x="39.0" y="66.0" type="curve"/>
      <point x="35.0" y="0.0" type="line"/>
      <point x="320.0" y="0.0" type="line"/>
      <point x="324.0" y="77.0" type="line"/>
      <point x="310.0" y="77.0"/>
      <point x="270.0" y="76.0"/>
      <point x="249.0" y="74.0" type="curve"/>
      <point x="252.0" y="91.0"/>
      <point x="255.0" y="128.0"/>
      <point x="257.0" y="164.0" type="curve" smooth="yes"/>
      <point x="265.0" y="312.0" type="line"/>
      <point x="406.0" y="314.0" type="line"/>
      <point x="409.0" y="150.0"/>
      <point x="491.0" y="-16.0"/>
    </contour>
    <contour>
      <point x="727.0" y="52.0" type="curve" smooth="yes"/>
      <point x="591.0" y="51.0"/>
      <point x="554.0" y="237.0"/>
      <point x="561.0" y="362.0" type="curve" smooth="yes"/>
      <point x="567.0" y="485.0"/>
      <point x="613.0" y="645.0"/>
      <point x="737.0" y="648.0" type="curve" smooth="yes"/>
      <point x="875.0" y="651.0"/>
      <point x="933.0" y="514.0"/>
      <point x="924.0" y="333.0" type="curve" smooth="yes"/>
      <point x="917.0" y="210.0"/>
      <point x="865.0" y="53.0"/>
    </contour>
  </outline>
</glyph>
<glyph name="Ia-cy" format="2">
  <advance width="736"/>
  <unicode hex="042F"/>
  <outline>
    <contour>
      <point x="387" y="0" type="line"/>
      <point x="671" y="0" type="line"/>
      <point x="675" y="77" type="line"/>
      <point x="661" y="77"/>
      <point x="622" y="76"/>
      <point x="600" y="74" type="curve"/>
      <point x="604" y="91"/>
      <point x="607" y="128"/>
      <point x="609" y="164" type="curve"/>
      <point x="629" y="547" type="line"/>
      <point x="633" y="628"/>
      <point x="660" y="632"/>
      <point x="705" y="634" type="curve"/>
      <point x="708" y="700" type="line"/>
      <point x="372" y="700" type="line" smooth="yes"/>
      <point x="231" y="700"/>
      <point x="130" y="625"/>
      <point x="127" y="494" type="curve" smooth="yes"/>
      <point x="125" y="377"/>
      <point x="212" y="283"/>
      <point x="400" y="283" type="curve"/>
      <point x="400" y="272" type="line"/>
      <point x="472" y="272" type="line"/>
      <point x="466" y="153" type="line"/>
      <point x="462" y="72"/>
      <point x="435" y="68"/>
      <point x="390" y="66" type="curve"/>
    </contour>
    <contour>
      <point x="431" y="344" type="curve" smooth="yes"/>
      <point x="324" y="344"/>
      <point x="277" y="400"/>
      <point x="282" y="497" type="curve" smooth="yes"/>
      <point x="288" y="598"/>
      <point x="344" y="630"/>
      <point x="423" y="630" type="curve"/>
      <point x="447" y="630"/>
      <point x="472" y="630"/>
      <point x="496" y="630" type="curve"/>
      <point x="491" y="605"/>
      <point x="488" y="582"/>
      <point x="487" y="556" type="curve" smooth="yes"/>
      <point x="476" y="347" type="line"/>
      <point x="461" y="346"/>
      <point x="447" y="344"/>
    </contour>
    <contour>
      <point x="19" y="0" type="line"/>
      <point x="166" y="0" type="line"/>
      <point x="182" y="1"/>
      <point x="241" y="62"/>
      <point x="269" y="102" type="curve" smooth="yes"/>
      <point x="338" y="202" type="line" smooth="yes"/>
      <point x="382" y="267"/>
      <point x="413" y="271"/>
      <point x="472" y="272" type="curve"/>
      <point x="449" y="320" type="line"/>
      <point x="359" y="320" type="line"/>
      <point x="286" y="307"/>
      <point x="245" y="301"/>
      <point x="200" y="232" type="curve" smooth="yes"/>
      <point x="159" y="174" type="line" smooth="yes"/>
      <point x="118" y="115"/>
      <point x="67" y="68"/>
      <point x="22" y="66" type="curve"/>
    </contour>
  </outline>
</glyph>
<glyph name="de-cy" format="2">
  <advance width="524.0"/>
  <unicode hex="0434"/>
  <outline>
    <contour>
      <point x="232.0" y="-11.0" type="curve" smooth="yes"/>
      <point x="357.0" y="-11.0"/>
      <point x="482.0" y="70.0"/>
      <point x="493.0" y="299.0" type="curve" smooth="yes"/>
      <point x="507.0" y="560.0"/>
      <point x="417.0" y="759.0"/>
      <point x="241.0" y="759.0" type="curve" smooth="yes"/>
      <point x="185.0" y="759.0"/>
      <point x="144.0" y="735.0"/>
      <point x="98.0" y="699.0" type="curve"/>
      <point x="128.0" y="661.0" type="line"/>
      <point x="162.0" y="684.0"/>
      <point x="194.0" y="695.0"/>
      <point x="225.0" y="695.0" type="curve" smooth="yes"/>
      <point x="305.0" y="695.0"/>
      <point x="366.0" y="615.0"/>
      <point x="374.0" y="449.0" type="curve"/>
      <point x="348.0" y="486.0"/>
      <point x="317.0" y="499.0"/>
      <point x="278.0" y="500.0" type="curve" smooth="yes"/>
      <point x="147.0" y="503.0"/>
      <point x="30.0" y="384.0"/>
      <point x="27.0" y="209.0" type="curve" smooth="yes"/>
      <point x="25.0" y="69.0"/>
      <point x="115.0" y="-11.0"/>
    </contour>
    <contour>
      <point x="243.0" y="55.0" type="curve" smooth="yes"/>
      <point x="199.0" y="55.0"/>
      <point x="160.0" y="99.0"/>
      <point x="162.0" y="209.0" type="curve" smooth="yes"/>
      <point x="165.0" y="350.0"/>
      <point x="224.0" y="431.0"/>
      <point x="292.0" y="431.0" type="curve" smooth="yes"/>
      <point x="359.0" y="431.0"/>
      <point x="374.0" y="350.0"/>
      <point x="366.0" y="270.0" type="curve" smooth="yes"/>
      <point x="353.0" y="125.0"/>
      <point x="305.0" y="55.0"/>
    </contour>
  </outline>
</glyph>
<glyph name="ka-cy" format="2">
  <advance width="642"/>
  <unicode hex="043A"/>
  <anchor x="609" y="0" name="bottomright"/>
  <anchor x="321" y="250" name="center"/>
  <anchor x="334" y="500" name="top"/>
  <outline>
    <contour>
      <point x="463" y="-11" type="curve"/>
      <point x="553" y="-11"/>
      <point x="596" y="79"/>
      <point x="604" y="145" type="curve"/>
      <point x="550" y="161" type="line"/>
      <point x="530" y="94"/>
      <point x="515" y="79"/>
      <point x="502" y="79" type="curve" smooth="yes"/>
      <point x="489" y="78"/>
      <point x="478" y="90"/>
      <point x="474" y="147" type="curve" smooth="yes"/>
      <point x="467" y="225"/>
      <point x="427" y="265"/>
      <point x="349" y="269" type="curve"/>
      <point x="349" y="289" type="line"/>
      <point x="172" y="289" type="line"/>
      <point x="171" y="226" type="line"/>
      <point x="300" y="227" type="line" smooth="yes"/>
      <point x="341" y="227"/>
      <point x="355" y="191"/>
      <point x="359" y="109" type="curve" smooth="yes"/>
      <point x="363" y="28"/>
      <point x="398" y="-11"/>
    </contour>
    <contour>
      <point x="92" y="0" type="curve"/>
      <point x="225" y="0" type="line"/>
      <point x="224" y="17"/>
      <point x="222" y="48"/>
      <point x="222" y="77" type="curve" smooth="yes"/>
      <point x="223" y="194"/>
      <point x="254" y="342"/>
      <point x="254" y="395" type="curve" smooth="yes"/>
      <point x="254" y="483"/>
      <point x="217" y="511"/>
      <point x="167" y="511" type="curve" smooth="yes"/>
      <point x="72" y="511"/>
      <point x="20" y="412"/>
      <point x="8" y="355" type="curve"/>
      <point x="63" y="339" type="line"/>
      <point x="80" y="399"/>
      <point x="96" y="418"/>
      <point x="111" y="418" type="curve" smooth="yes"/>
      <point x="122" y="418"/>
      <point x="125" y="411"/>
      <point x="125" y="392" type="curve" smooth="yes"/>
      <point x="125" y="343"/>
      <point x="89" y="134"/>
      <point x="89" y="48" type="curve" smooth="yes"/>
      <point x="89" y="35"/>
      <point x="89" y="20"/>
    </contour>
    <contour>
      <point x="251" y="251" type="line"/>
      <point x="308" y="262" type="line"/>
      <point x="366" y="262"/>
      <point x="396" y="291"/>
      <point x="425" y="352" type="curve" smooth="yes"/>
      <point x="440" y="384"/>
      <point x="447" y="396"/>
      <point x="466" y="409" type="curve"/>
      <point x="470" y="382"/>
      <point x="494" y="368"/>
      <point x="521" y="368" type="curve" smooth="yes"/>
      <point x="562" y="368"/>
      <point x="585" y="402"/>
      <point x="585" y="439" type="curve" smooth="yes"/>
      <point x="585" y="483"/>
      <point x="550" y="511"/>
      <point x="504" y="511" type="curve" smooth="yes"/>
      <point x="445" y="511"/>
      <point x="396" y="463"/>
      <point x="370" y="375" type="curve" smooth="yes"/>
      <point x="349" y="305"/>
      <point x="314" y="289"/>
      <point x="266" y="289" type="curve"/>
    </contour>
  </outline>
</glyph>
<glyph name="el-cy" format="2">
  <advance width="631.0"/>
  <unicode hex="043B"/>
  <outline>
    <contour>
      <point x="83.0" y="-11.0" type="curve" smooth="yes"/>
      <point x="241.0" y="-11.0"/>
      <point x="312.0" y="185.0"/>
      <point x="357.0" y="411.0" type="curve"/>
      <point x="359.0" y="424.0"/>
      <point x="372.0" y="430.0"/>
      <point x="383.0" y="431.0" type="curve"/>
      <point x="411.0" y="432.0" type="line"/>
      <point x="410.0" y="296.0"/>
      <point x="381.0" y="160.0"/>
      <point x="381.0" y="90.0" type="curve" smooth="yes"/>
      <point x="381.0" y="9.0"/>
      <point x="430.0" y="-11.0"/>
      <point x="473.0" y="-11.0" type="curve" smooth="yes"/>
      <point x="561.0" y="-11.0"/>
      <point x="614.0" y="88.0"/>
      <point x="625.0" y="145.0" type="curve"/>
      <point x="571.0" y="161.0" type="line"/>
      <point x="554.0" y="101.0"/>
      <point x="538.0" y="82.0"/>
      <point x="523.0" y="82.0" type="curve" smooth="yes"/>
      <point x="516.0" y="82.0"/>
      <point x="509.0" y="86.0"/>
      <point x="509.0" y="108.0" type="curve" smooth="yes"/>
      <point x="509.0" y="157.0"/>
      <point x="546.0" y="366.0"/>
      <point x="546.0" y="452.0" type="curve" smooth="yes"/>
      <point x="546.0" y="465.0"/>
      <point x="546.0" y="472.0"/>
      <point x="543.0" y="500.0" type="curve"/>
      <point x="189.0" y="500.0" type="line"/>
      <point x="183.0" y="430.0" type="line"/>
      <point x="275.0" y="431.0" type="line"/>
      <point x="249.0" y="269.0"/>
      <point x="200.0" y="93.0"/>
      <point x="120.0" y="72.0" type="curve"/>
      <point x="121.0" y="76.0"/>
      <point x="121.0" y="80.0"/>
      <point x="121.0" y="84.0" type="curve" smooth="yes"/>
      <point x="121.0" y="114.0"/>
      <point x="97.0" y="134.0"/>
      <point x="64.0" y="134.0" type="curve" smooth="yes"/>
      <point x="32.0" y="134.0"/>
      <point x="0.0" y="104.0"/>
      <point x="0.0" y="64.0" type="curve" smooth="yes"/>
      <point x="0.0" y="22.0"/>
      <point x="34.0" y="-11.0"/>
    </contour>
  </outline>
</glyph>
<glyph name="ef-cy" format="2">
  <advance width="776.0"/>
  <unicode hex="0444"/>
  <outline>
    <contour>
      <point x="225.0" y="-255.0" type="line"/>
      <point x="478.0" y="-255.0" type="line"/>
      <point x="478.0" y="-179.0" type="line"/>
      <point x="464.0" y="-179.0"/>
      <point x="433.0" y="-180.0"/>
      <point x="412.0" y="-182.0" type="curve"/>
      <point x="416.0" y="-152.0"/>
      <point x="418.0" y="-111.0"/>
      <point x="419.0" y="-92.0" type="curve"/>
      <point x="425.0" y="38.0"/>
      <point x="439.0" y="274.0"/>
      <point x="474.0" y="576.0" type="curve" smooth="yes"/>
      <point x="481.0" y="634.0"/>
      <point x="488.0" y="693.0"/>
      <point x="496.0" y="755.0" type="curve"/>
      <point x="441.0" y="755.0" type="line"/>
      <point x="427.0" y="742.0"/>
      <point x="383.0" y="725.0"/>
      <point x="290.0" y="725.0" type="curve"/>
      <point x="286.0" y="649.0" type="line"/>
      <point x="304.0" y="650.0"/>
      <point x="341.0" y="651.0"/>
      <point x="362.0" y="652.0" type="curve"/>
      <point x="357.0" y="623.0"/>
      <point x="353.0" y="585.0"/>
      <point x="349.0" y="559.0" type="curve" smooth="yes"/>
      <point x="321.0" y="349.0"/>
      <point x="306.0" y="120.0"/>
      <point x="288.0" y="-100.0" type="curve" smooth="yes"/>
      <point x="283.0" y="-152.0"/>
      <point x="274.0" y="-190.0"/>
      <point x="225.0" y="-190.0" type="curve"/>
    </contour>
    <contour>
      <point x="229.0" y="-11.0" type="curve" smooth="yes"/>
      <point x="275.0" y="-11.0"/>
      <point x="315.0" y="1.0"/>
      <point x="350.0" y="21.0" type="curve"/>
      <point x="331.0" y="103.0" type="line"/>
      <point x="315.0" y="76.0"/>
      <point x="288.0" y="55.0"/>
      <point x="255.0" y="55.0" type="curve" smooth="yes"/>
      <point x="181.0" y="55.0"/>
      <point x="164.0" y="164.0"/>
      <point x="164.0" y="244.0" type="curve" smooth="yes"/>
      <point x="164.0" y="354.0"/>
      <point x="210.0" y="446.0"/>
      <point x="284.0" y="445.0" type="curve" smooth="yes"/>
      <point x="322.0" y="445.0"/>
      <point x="340.0" y="421.0"/>
      <point x="350.0" y="395.0" type="curve"/>
      <point x="371.0" y="470.0" type="line"/>
      <point x="344.0" y="497.0"/>
      <point x="317.0" y="511.0"/>
      <point x="271.0" y="511.0" type="curve" smooth="yes"/>
      <point x="130.0" y="511.0"/>
      <point x="28.0" y="376.0"/>
      <point x="28.0" y="216.0" type="curve" smooth="yes"/>
      <point x="28.0" y="91.0"/>
      <point x="94.0" y="-11.0"/>
    </contour>
    <contour>
      <point x="492.0" y="-11.0" type="curve" smooth="yes"/>
      <point x="646.0" y="-11.0"/>
      <point x="741.0" y="129.0"/>
      <point x="741.0" y="288.0" type="curve" smooth="yes"/>
      <point x="741.0" y="430.0"/>
      <point x="651.0" y="511.0"/>
      <point x="537.0" y="511.0" type="curve" smooth="yes"/>
      <point x="472.0" y="511.0"/>
      <point x="415.0" y="485.0"/>
      <point x="373.0" y="442.0" type="curve"/>
      <point x="407.0" y="383.0" type="line"/>
      <point x="429.0" y="420.0"/>
      <point x="477.0" y="445.0"/>
      <point x="516.0" y="445.0" type="curve" smooth="yes"/>
      <point x="598.0" y="444.0"/>
      <point x="605.0" y="322.0"/>
      <point x="603.0" y="259.0" type="curve" smooth="yes"/>
      <point x="600.0" y="177.0"/>
      <point x="571.0" y="55.0"/>
      <point x="492.0" y="55.0" type="curve" smooth="yes"/>
      <point x="453.0" y="55.0"/>
      <point x="420.0" y="85.0"/>
      <point x="388.0" y="126.0" type="curve"/>
      <point x="356.0" y="47.0" type="line"/>
      <point x="387.0" y="11.0"/>
      <point x="431.0" y="-11.0"/>
    </contour>
  </outline>
</glyph>
<glyph name="che-cy" format="2">
  <advance width="610.0"/>
  <unicode hex="0447"/>
  <anchor x="577.0" y="0.0" name="bottomright"/>
  <anchor x="305.0" y="250.0" name="center"/>
  <anchor x="318.0" y="500.0" name="top"/>
  <outline>
    <contour>
      <point x="228.0" y="155.0" type="curve" smooth="yes"/>
      <point x="287.0" y="155.0"/>
      <point x="347.0" y="179.0"/>
      <point x="396.0" y="227.0" type="curve"/>
      <point x="405.0" y="313.0" type="line"/>
      <point x="400.0" y="286.0"/>
      <point x="331.0" y="247.0"/>
      <point x="286.0" y="247.0" type="curve" smooth="yes"/>
      <point x="249.0" y="247.0"/>
      <point x="241.0" y="273.0"/>
      <point x="247.0" y="326.0" type="curve" smooth="yes"/>
      <point x="250.0" y="354.0"/>
      <point x="253.0" y="381.0"/>
      <point x="253.0" y="405.0" type="curve" smooth="yes"/>
      <point x="253.0" y="466.0"/>
      <point x="237.0" y="511.0"/>
      <point x="170.0" y="511.0" type="curve" smooth="yes"/>
      <point x="72.0" y="511.0"/>
      <point x="20.0" y="412.0"/>
      <point x="8.0" y="355.0" type="curve"/>
      <point x="63.0" y="339.0" type="line"/>
      <point x="80.0" y="399.0"/>
      <point x="96.0" y="418.0"/>
      <point x="111.0" y="418.0" type="curve" smooth="yes"/>
      <point x="128.0" y="418.0"/>
      <point x="130.0" y="400.0"/>
      <point x="118.0" y="326.0" type="curve" smooth="yes"/>
      <point x="107.0" y="228.0"/>
      <point x="141.0" y="155.0"/>
    </contour>
    <contour>
      <point x="450.0" y="-11.0" type="curve" smooth="yes"/>
      <point x="540.0" y="-11.0"/>
      <point x="593.0" y="88.0"/>
      <point x="604.0" y="145.0" type="curve"/>
      <point x="550.0" y="161.0" type="line"/>
      <point x="533.0" y="101.0"/>
      <point x="517.0" y="82.0"/>
      <point x="502.0" y="82.0" type="curve" smooth="yes"/>
      <point x="495.0" y="82.0"/>
      <point x="488.0" y="86.0"/>
      <point x="488.0" y="108.0" type="curve" smooth="yes"/>
      <point x="488.0" y="157.0"/>
      <point x="525.0" y="366.0"/>
      <point x="525.0" y="452.0" type="curve" smooth="yes"/>
      <point x="525.0" y="465.0"/>
      <point x="525.0" y="472.0"/>
      <point x="522.0" y="500.0" type="curve"/>
      <point x="388.0" y="500.0" type="line"/>
      <point x="389.0" y="481.0"/>
      <point x="390.0" y="461.0"/>
      <point x="390.0" y="442.0" type="curve" smooth="yes"/>
      <point x="390.0" y="303.0"/>
      <point x="360.0" y="162.0"/>
      <point x="360.0" y="95.0" type="curve" smooth="yes"/>
      <point x="360.0" y="9.0"/>
      <point x="409.0" y="-11.0"/>
    </contour>
  </outline>
</glyph>
<glyph name="shcha-cy" format="2">
  <advance width="919.0"/>
  <unicode hex="0449"/>
  <outline>
    <contour>
      <point x="772.0" y="-200.0" type="line"/>
      <point x="864.0" y="-126.0"/>
      <point x="886.0" y="-55.0"/>
      <point x="849.0" y="5.0" type="curve"/>
      <point x="837.0" y="25.0"/>
      <point x="837.0" y="47.0"/>
      <point x="845.0" y="69.0" type="curve"/>
      <point x="864.0" y="136.0" type="line"/>
      <point x="824.0" y="151.0" type="line"/>
      <point x="779.0" y="69.0" type="line"/>
      <point x="779.0" y="0.0" type="line"/>
      <point x="789.0" y="-3.0" type="line"/>
      <point x="777.0" y="-28.0"/>
      <point x="771.0" y="-39.0"/>
      <point x="774.0" y="-73.0" type="curve" smooth="yes"/>
      <point x="776.0" y="-98.0"/>
      <point x="772.0" y="-118.0"/>
      <point x="734.0" y="-162.0" type="curve"/>
    </contour>
    <component base="sha-cy"/>
  </outline>
</glyph>
<glyph name="yeru-cy" format="2">
  <advance width="774.0"/>
  <unicode hex="044B"/>
  <anchor x="400.0" y="500.0" name="top"/>
  <outline>
    <contour>
      <point x="615.0" y="-11.0" type="curve" smooth="yes"/>
      <point x="703.0" y="-11.0"/>
      <point x="756.0" y="88.0"/>
      <point x="768.0" y="145.0" type="curve"/>
      <point x="713.0" y="161.0" type="line"/>
      <point x="696.0" y="101.0"/>
      <point x="680.0" y="82.0"/>
      <point x="665.0" y="82.0" type="curve" smooth="yes"/>
      <point x="658.0" y="82.0"/>
      <point x="651.0" y="86.0"/>
      <point x="651.0" y="108.0" type="curve" smooth="yes"/>
      <point x="651.0" y="157.0"/>
      <point x="688.0" y="366.0"/>
      <point x="688.0" y="452.0" type="curve" smooth="yes"/>
      <point x="688.0" y="465.0"/>
      <point x="688.0" y="472.0"/>
      <point x="685.0" y="500.0" type="curve"/>
      <point x="551.0" y="500.0" type="line"/>
      <point x="552.0" y="483.0"/>
      <point x="553.0" y="465.0"/>
      <point x="553.0" y="448.0" type="curve" smooth="yes"/>
      <point x="555.0" y="307.0"/>
      <point x="523.0" y="163.0"/>
      <point x="523.0" y="90.0" type="curve" smooth="yes"/>
      <point x="523.0" y="9.0"/>
      <point x="572.0" y="-11.0"/>
    </contour>
    <component base="softsign-cy"/>
  </outline>
</glyph>
<glyph name="softsign-cy" format="2">
  <advance width="510.0"/>
  <unicode hex="044C"/>
  <outline>
    <contour>
      <point x="250.0" y="-10.0" type="curve" smooth="yes"/>
      <point x="380.0" y="-10.0"/>
      <point x="469.0" y="62.0"/>
      <point x="474.0" y="174.0" type="curve" smooth="yes"/>
      <point x="479.0" y="283.0"/>
      <point x="407.0" y="328.0"/>
      <point x="320.0" y="328.0" type="curve" smooth="yes"/>
      <point x="275.0" y="328.0"/>
      <point x="225.0" y="311.0"/>
      <point x="181.0" y="281.0" type="curve"/>
      <point x="173.0" y="223.0" type="line"/>
      <point x="217.0" y="250.0"/>
      <point x="257.0" y="266.0"/>
      <point x="290.0" y="266.0" type="curve" smooth="yes"/>
      <point x="334.0" y="266.0"/>
      <point x="362.0" y="234.0"/>
      <point x="357.0" y="154.0" type="curve" smooth="yes"/>
      <point x="354.0" y="91.0"/>
      <point x="323.0" y="62.0"/>
      <point x="274.0" y="62.0" type="curve" smooth="yes"/>
      <point x="229.0" y="62.0"/>
      <point x="213.0" y="92.0"/>
      <point x="222.0" y="159.0" type="curve" smooth="yes"/>
      <point x="249.0" y="354.0" type="line" smooth="yes"/>
      <point x="260.0" y="440.0"/>
      <point x="244.0" y="511.0"/>
      <point x="159.0" y="511.0" type="curve" smooth="yes"/>
      <point x="74.0" y="511.0"/>
      <point x="25.0" y="427.0"/>
      <point x="6.0" y="355.0" type="curve"/>
      <point x="60.0" y="339.0" type="line"/>
      <point x="74.0" y="392.0"/>
      <point x="91.0" y="418.0"/>
      <point x="110.0" y="418.0" type="curve" smooth="yes"/>
      <point x="122.0" y="418.0"/>
      <point x="125.0" y="404.0"/>
      <point x="122.0" y="370.0" type="curve" smooth="yes"/>
      <point x="118.0" y="329.0"/>
      <point x="106.0" y="260.0"/>
      <point x="93.0" y="149.0" type="curve" smooth="yes"/>
      <point x="82.0" y="60.0"/>
      <point x="128.0" y="-10.0"/>
    </contour>
  </outline>
</glyph>
<glyph name="ereversed-cy" format="2">
  <advance width="544.0"/>
  <unicode hex="044D"/>
  <anchor x="285.0" y="500.0" name="top"/>
  <outline>
    <contour>
      <point x="215.0" y="-16.0" type="curve" smooth="yes"/>
      <point x="394.0" y="-16.0"/>
      <point x="501.0" y="110.0"/>
      <point x="509.0" y="261.0" type="curve" smooth="yes"/>
      <point x="518.0" y="426.0"/>
      <point x="412.0" y="515.0"/>
      <point x="295.0" y="515.0" type="curve" smooth="yes"/>
      <point x="244.0" y="515.0"/>
      <point x="191.0" y="497.0"/>
      <point x="146.0" y="461.0" type="curve"/>
      <point x="151.0" y="511.0" type="line"/>
      <point x="75.0" y="511.0" type="line"/>
      <point x="65.0" y="334.0" type="line"/>
      <point x="130.0" y="334.0" type="line"/>
      <point x="143.0" y="391.0"/>
      <point x="188.0" y="427.0"/>
      <point x="254.0" y="427.0" type="curve" smooth="yes"/>
      <point x="334.0" y="427.0"/>
      <point x="381.0" y="373.0"/>
      <point x="374.0" y="240.0" type="curve" smooth="yes"/>
      <point x="368.0" y="123.0"/>
      <point x="319.0" y="53.0"/>
      <point x="232.0" y="51.0" type="curve" smooth="yes"/>
      <point x="195.0" y="50.0"/>
      <point x="166.0" y="59.0"/>
      <point x="146.0" y="87.0" type="curve"/>
      <point x="155.0" y="101.0"/>
      <point x="160.0" y="119.0"/>
      <point x="161.0" y="131.0" type="curve" smooth="yes"/>
      <point x="162.0" y="159.0"/>
      <point x="147.0" y="196.0"/>
      <point x="96.0" y="196.0" type="curve" smooth="yes"/>
      <point x="53.0" y="196.0"/>
      <point x="27.0" y="160.0"/>
      <point x="25.0" y="121.0" type="curve" smooth="yes"/>
      <point x="22.0" y="51.0"/>
      <point x="83.0" y="-16.0"/>
    </contour>
    <contour>
      <point x="165.0" y="224.0" type="line"/>
      <point x="386.0" y="226.0" type="line"/>
      <point x="384.0" y="293.0" type="line"/>
      <point x="169.0" y="293.0" type="line"/>
    </contour>
  </outline>
</glyph>
<glyph name="iu-cy" format="2">
  <advance width="795"/>
  <unicode hex="044E"/>
  <outline>
    <contour>
      <point x="92" y="0" type="curve"/>
      <point x="225" y="0" type="line"/>
      <point x="224" y="17"/>
      <point x="222" y="48"/>
      <point x="222" y="77" type="curve" smooth="yes"/>
      <point x="223" y="194"/>
      <point x="254" y="342"/>
      <point x="254" y="395" type="curve" smooth="yes"/>
      <point x="254" y="483"/>
      <point x="217" y="511"/>
      <point x="162" y="511" type="curve" smooth="yes"/>
      <point x="72" y="511"/>
      <point x="20" y="412"/>
      <point x="8" y="355" type="curve"/>
      <point x="63" y="339" type="line"/>
      <point x="80" y="399"/>
      <point x="96" y="418"/>
      <point x="111" y="418" type="curve" smooth="yes"/>
      <point x="122" y="418"/>
      <point x="125" y="411"/>
      <point x="125" y="392" type="curve" smooth="yes"/>
      <point x="125" y="367"/>
      <point x="115" y="298"/>
      <point x="106" y="226" type="curve" smooth="yes"/>
      <point x="97" y="159"/>
      <point x="89" y="89"/>
      <point x="89" y="48" type="curve" smooth="yes"/>
      <point x="89" y="35"/>
      <point x="89" y="20"/>
    </contour>
    <contour>
      <point x="509" y="-11" type="curve" smooth="yes"/>
      <point x="665" y="-11"/>
      <point x="760" y="129"/>
      <point x="760" y="288" type="curve" smooth="yes"/>
      <point x="760" y="430"/>
      <point x="671" y="511"/>
      <point x="559" y="511" type="curve" smooth="yes"/>
      <point x="405" y="511"/>
      <point x="308" y="376"/>
      <point x="308" y="216" type="curve" smooth="yes"/>
      <point x="308" y="91"/>
      <point x="374" y="-11"/>
    </contour>
    <contour>
      <point x="525" y="55" type="curve" smooth="yes"/>
      <point x="461" y="55"/>
      <point x="444" y="164"/>
      <point x="444" y="244" type="curve" smooth="yes"/>
      <point x="444" y="354"/>
      <point x="483" y="446"/>
      <point x="544" y="445" type="curve" smooth="yes"/>
      <point x="611" y="444"/>
      <point x="624" y="332"/>
      <point x="622" y="259" type="curve" smooth="yes"/>
      <point x="620" y="177"/>
      <point x="594" y="55"/>
    </contour>
    <contour>
      <point x="162" y="216" type="line"/>
      <point x="367" y="218" type="line"/>
      <point x="371" y="286" type="line"/>
      <point x="168" y="286" type="line"/>
    </contour>
  </outline>
</glyph>
<glyph name="e-cy" format="2">
  <advance width="467"/>
  <unicode hex="0454"/>
  <anchor x="199" y="0" name="bottom"/>
  <anchor x="284" y="500" name="top"/>
  <outline>
    <contour>
      <point x="109" y="221" type="line"/>
      <point x="330" y="225" type="line"/>
      <point x="333" y="281" type="line"/>
      <point x="112" y="281" type="line"/>
    </contour>
    <component base="c"/>
  </outline>
</glyph>
<glyph name="nje-cy" format="2">
  <advance width="779.0"/>
  <unicode hex="045A"/>
  <outline>
    <contour>
      <point x="519.0" y="-10.0" type="curve" smooth="yes"/>
      <point x="649.0" y="-10.0"/>
      <point x="738.0" y="62.0"/>
      <point x="743.0" y="174.0" type="curve" smooth="yes"/>
      <point x="748.0" y="283.0"/>
      <point x="676.0" y="328.0"/>
      <point x="589.0" y="328.0" type="curve" smooth="yes"/>
      <point x="564.0" y="328.0"/>
      <point x="538.0" y="322.0"/>
      <point x="512.0" y="313.0" type="curve"/>
      <point x="522.0" y="397.0"/>
      <point x="525.0" y="422.0"/>
      <point x="525.0" y="452.0" type="curve" smooth="yes"/>
      <point x="525.0" y="465.0"/>
      <point x="525.0" y="472.0"/>
      <point x="522.0" y="500.0" type="curve"/>
      <point x="388.0" y="500.0" type="line"/>
      <point x="397.0" y="437.0"/>
      <point x="390.0" y="368.0"/>
      <point x="380.0" y="286.0" type="curve"/>
      <point x="242.0" y="286.0" type="line"/>
      <point x="248.0" y="333.0"/>
      <point x="254.0" y="373.0"/>
      <point x="254.0" y="395.0" type="curve" smooth="yes"/>
      <point x="254.0" y="483.0"/>
      <point x="217.0" y="511.0"/>
      <point x="162.0" y="511.0" type="curve" smooth="yes"/>
      <point x="72.0" y="511.0"/>
      <point x="20.0" y="412.0"/>
      <point x="8.0" y="355.0" type="curve"/>
      <point x="63.0" y="339.0" type="line"/>
      <point x="80.0" y="399.0"/>
      <point x="96.0" y="418.0"/>
      <point x="111.0" y="418.0" type="curve" smooth="yes"/>
      <point x="122.0" y="418.0"/>
      <point x="125.0" y="411.0"/>
      <point x="125.0" y="392.0" type="curve" smooth="yes"/>
      <point x="125.0" y="369.0"/>
      <point x="117.0" y="313.0"/>
      <point x="109.0" y="250.0" type="curve" smooth="yes"/>
      <point x="99.0" y="177.0"/>
      <point x="89.0" y="94.0"/>
      <point x="89.0" y="48.0" type="curve" smooth="yes"/>
      <point x="89.0" y="35.0"/>
      <point x="89.0" y="20.0"/>
      <point x="92.0" y="0.0" type="curve"/>
      <point x="225.0" y="0.0" type="line"/>
      <point x="224.0" y="17.0"/>
      <point x="222.0" y="48.0"/>
      <point x="222.0" y="77.0" type="curve" smooth="yes"/>
      <point x="222.0" y="121.0"/>
      <point x="227.0" y="170.0"/>
      <point x="233.0" y="216.0" type="curve"/>
      <point x="371.0" y="217.0" type="line"/>
      <point x="362.0" y="149.0" type="line" smooth="yes"/>
      <point x="351.0" y="60.0"/>
      <point x="397.0" y="-10.0"/>
    </contour>
    <contour>
      <point x="543.0" y="62.0" type="curve" smooth="yes"/>
      <point x="499.0" y="62.0"/>
      <point x="482.0" y="92.0"/>
      <point x="491.0" y="159.0" type="curve" smooth="yes"/>
      <point x="500.0" y="226.0" type="line"/>
      <point x="501.0" y="235.0"/>
      <point x="503.0" y="245.0"/>
      <point x="502.0" y="253.0" type="curve"/>
      <point x="524.0" y="262.0"/>
      <point x="542.0" y="266.0"/>
      <point x="559.0" y="266.0" type="curve" smooth="yes"/>
      <point x="603.0" y="266.0"/>
      <point x="631.0" y="234.0"/>
      <point x="626.0" y="154.0" type="curve" smooth="yes"/>
      <point x="624.0" y="91.0"/>
      <point x="592.0" y="62.0"/>
    </contour>
  </outline>
</glyph>
<glyph name="tshe-cy" format="2">
  <advance width="621.0"/>
  <unicode hex="045B"/>
  <outline>
    <contour>
      <point x="464.0" y="-11.0" type="curve" smooth="yes"/>
      <point x="554.0" y="-11.0"/>
      <point x="604.0" y="88.0"/>
      <point x="615.0" y="145.0" type="curve"/>
      <point x="561.0" y="161.0" type="line"/>
      <point x="544.0" y="101.0"/>
      <point x="527.0" y="82.0"/>
      <point x="512.0" y="82.0" type="curve" smooth="yes"/>
      <point x="505.0" y="82.0"/>
      <point x="497.0" y="86.0"/>
      <point x="497.0" y="108.0" type="curve" smooth="yes"/>
      <point x="497.0" y="142.0"/>
      <point x="504.0" y="221.0"/>
      <point x="515.0" y="317.0" type="curve" smooth="yes"/>
      <point x="527.0" y="409.0"/>
      <point x="489.0" y="471.0"/>
      <point x="404.0" y="471.0" type="curve" smooth="yes"/>
      <point x="355.0" y="471.0"/>
      <point x="266.0" y="436.0"/>
      <point x="217.0" y="300.0" type="curve"/>
      <point x="216.0" y="300.0" type="line"/>
      <point x="234.0" y="376.0"/>
      <point x="252.0" y="521.0"/>
      <point x="256.0" y="551.0" type="curve" smooth="yes"/>
      <point x="261.0" y="591.0"/>
      <point x="273.0" y="697.0"/>
      <point x="280.0" y="755.0" type="curve"/>
      <point x="226.0" y="755.0" type="line"/>
      <point x="212.0" y="742.0"/>
      <point x="167.0" y="725.0"/>
      <point x="74.0" y="725.0" type="curve"/>
      <point x="70.0" y="649.0" type="line"/>
      <point x="85.0" y="650.0"/>
      <point x="119.0" y="651.0"/>
      <point x="140.0" y="652.0" type="curve"/>
      <point x="134.0" y="625.0"/>
      <point x="130.0" y="582.0"/>
      <point x="127.0" y="559.0" type="curve" smooth="yes"/>
      <point x="113.0" y="440.0"/>
      <point x="96.0" y="212.0"/>
      <point x="96.0" y="48.0" type="curve" smooth="yes"/>
      <point x="96.0" y="35.0"/>
      <point x="96.0" y="28.0"/>
      <point x="99.0" y="0.0" type="curve"/>
      <point x="227.0" y="0.0" type="line"/>
      <point x="226.0" y="16.0"/>
      <point x="224.0" y="54.0"/>
      <point x="224.0" y="83.0" type="curve" smooth="yes"/>
      <point x="224.0" y="195.0"/>
      <point x="298.0" y="379.0"/>
      <point x="359.0" y="379.0" type="curve" smooth="yes"/>
      <point x="380.0" y="379.0"/>
      <point x="396.0" y="366.0"/>
      <point x="392.0" y="336.0" type="curve" smooth="yes"/>
      <point x="380.0" y="248.0"/>
      <point x="369.0" y="176.0"/>
      <point x="369.0" y="102.0" type="curve" smooth="yes"/>
      <point x="369.0" y="31.0"/>
      <point x="390.0" y="-11.0"/>
    </contour>
    <contour>
      <point x="49.0" y="525.0" type="line"/>
      <point x="450.0" y="528.0" type="line"/>
      <point x="455.0" y="597.0" type="line"/>
      <point x="53.0" y="597.0" type="line"/>
    </contour>
  </outline>
</glyph>
<glyph name="dzhe-cy" format="2">
  <advance width="598"/>
  <unicode hex="045F"/>
  <anchor x="286" y="0" name="bottom"/>
  <anchor x="511" y="5" name="ogonek"/>
  <anchor x="315" y="500" name="top"/>
  <anchor x="549" y="500" name="topright"/>
  <outline>
    <contour>
      <point x="245" y="-257" type="line"/>
      <point x="304" y="-210"/>
      <point x="334" y="-181"/>
      <point x="338" y="-127" type="curve" smooth="yes"/>
      <point x="340" y="-92"/>
      <point x="331" y="-73"/>
      <point x="345" y="-58" type="curve" smooth="yes"/>
      <point x="366" y="-35" type="line"/>
      <point x="330" y="1" type="line"/>
      <point x="296" y="-30" type="line" smooth="yes"/>
      <point x="227" y="-96"/>
      <point x="276" y="-164"/>
      <point x="212" y="-223" type="curve"/>
    </contour>
    <component base="u"/>
  </outline>
</glyph>
<glyph name="yat-cy" format="2">
  <advance width="713.0"/>
  <unicode hex="0463"/>
  <outline>
    <contour>
      <point x="463.0" y="-10.0" type="curve" smooth="yes"/>
      <point x="573.0" y="-10.0"/>
      <point x="672.0" y="52.0"/>
      <point x="677.0" y="174.0" type="curve" smooth="yes"/>
      <point x="682.0" y="293.0"/>
      <point x="600.0" y="328.0"/>
      <point x="523.0" y="328.0" type="curve" smooth="yes"/>
      <point x="485.0" y="328.0"/>
      <point x="438.0" y="311.0"/>
      <point x="394.0" y="281.0" type="curve"/>
      <point x="386.0" y="223.0" type="line"/>
      <point x="430.0" y="250.0"/>
      <point x="460.0" y="266.0"/>
      <point x="493.0" y="266.0" type="curve" smooth="yes"/>
      <point x="537.0" y="266.0"/>
      <point x="555.0" y="234.0"/>
      <point x="550.0" y="164.0" type="curve" smooth="yes"/>
      <point x="546.0" y="111.0"/>
      <point x="522.0" y="56.0"/>
      <point x="479.0" y="56.0" type="curve" smooth="yes"/>
      <point x="444.0" y="56.0"/>
      <point x="426.0" y="92.0"/>
      <point x="435.0" y="159.0" type="curve" smooth="yes"/>
      <point x="444.0" y="224.0"/>
      <point x="453.0" y="289.0"/>
      <point x="462.0" y="354.0" type="curve" smooth="yes"/>
      <point x="473.0" y="440.0"/>
      <point x="457.0" y="511.0"/>
      <point x="372.0" y="511.0" type="curve" smooth="yes"/>
      <point x="314.0" y="511.0"/>
      <point x="268.0" y="480.0"/>
      <point x="221.0" y="360.0" type="curve"/>
      <point x="220.0" y="360.0" type="line"/>
      <point x="223.0" y="383.0"/>
      <point x="226.0" y="394.0"/>
      <point x="226.0" y="420.0" type="curve" smooth="yes"/>
      <point x="226.0" y="491.0"/>
      <point x="185.0" y="511.0"/>
      <point x="142.0" y="511.0" type="curve" smooth="yes"/>
      <point x="55.0" y="511.0"/>
      <point x="20.0" y="412.0"/>
      <point x="8.0" y="355.0" type="curve"/>
      <point x="63.0" y="339.0" type="line"/>
      <point x="80.0" y="399.0"/>
      <point x="96.0" y="418.0"/>
      <point x="111.0" y="418.0" type="curve" smooth="yes"/>
      <point x="118.0" y="418.0"/>
      <point x="125.0" y="414.0"/>
      <point x="125.0" y="392.0" type="curve" smooth="yes"/>
      <point x="125.0" y="367.0"/>
      <point x="115.0" y="299.0"/>
      <point x="106.0" y="228.0" type="curve" smooth="yes"/>
      <point x="97.0" y="161.0"/>
      <point x="89.0" y="90.0"/>
      <point x="89.0" y="48.0" type="curve" smooth="yes"/>
      <point x="89.0" y="35.0"/>
      <point x="89.0" y="28.0"/>
      <point x="92.0" y="0.0" type="curve"/>
      <point x="221.0" y="0.0" type="line"/>
      <point x="220.0" y="16.0"/>
      <point x="218.0" y="54.0"/>
      <point x="218.0" y="72.0" type="curve" smooth="yes"/>
      <point x="218.0" y="212.0"/>
      <point x="273.0" y="418.0"/>
      <point x="328.0" y="418.0" type="curve" smooth="yes"/>
      <point x="337.0" y="418.0"/>
      <point x="340.0" y="407.0"/>
      <point x="340.0" y="390.0" type="curve" smooth="yes"/>
      <point x="340.0" y="333.0"/>
      <point x="306.0" y="207.0"/>
      <point x="306.0" y="149.0" type="curve" smooth="yes"/>
      <point x="306.0" y="59.0"/>
      <point x="351.0" y="-10.0"/>
    </contour>
  </outline>
</glyph>
